<svg width="51" height="19" viewBox="0 0 51 19" fill="none" xmlns="http://www.w3.org/2000/svg">
<path opacity="0.3" d="M6.71995 5.9C6.57328 6.1 6.43995 6.31334 6.31995 6.54C6.19995 6.76667 6.04662 6.98 5.85995 7.18C5.65995 7.40667 5.47995 7.64667 5.31995 7.9C5.15995 8.15334 4.99328 8.40667 4.81995 8.66C4.81995 8.83334 4.76662 8.98667 4.65995 9.12C4.56662 9.24 4.48662 9.37334 4.41995 9.52C4.28662 9.78667 4.13328 10.04 3.95995 10.28C3.78662 10.52 3.61995 10.7667 3.45995 11.02C3.29995 11.2733 3.13995 11.5267 2.97995 11.78C2.83328 12.02 2.71328 12.2933 2.61995 12.6C2.57995 12.7467 2.52662 12.9 2.45995 13.06C2.39328 13.2067 2.33328 13.36 2.27995 13.52C2.25328 13.5867 2.20662 13.6533 2.13995 13.72C2.08662 13.7867 2.02662 13.8667 1.95995 13.96L1.15995 13.56C1.11995 13.4533 1.08662 13.3467 1.05995 13.24C1.03328 13.1333 1.00662 13.02 0.979951 12.9C0.993285 12.8733 1.01328 12.8467 1.03995 12.82C1.06662 12.78 1.07995 12.74 1.07995 12.7C1.10662 12.3533 1.17328 12.0267 1.27995 11.72C1.39995 11.4133 1.51328 11.1067 1.61995 10.8C1.80662 10.2267 2.03328 9.67334 2.29995 9.14C2.57995 8.60667 2.85995 8.07334 3.13995 7.54C3.32662 7.18 3.51328 6.82 3.69995 6.46C3.89995 6.1 4.11995 5.75334 4.35995 5.42C4.38662 5.39334 4.39995 5.36 4.39995 5.32C4.41328 5.28 4.42662 5.24667 4.43995 5.22C4.50662 5.08667 4.58662 4.96667 4.67995 4.86C4.77328 4.75334 4.89995 4.68667 5.05995 4.66C5.37995 4.15334 5.63995 3.81334 5.83995 3.64C6.03995 3.46667 6.19328 3.40667 6.29995 3.46C6.40662 3.5 6.47995 3.62667 6.51995 3.84C6.55995 4.05334 6.58662 4.29334 6.59995 4.56C6.61328 4.81334 6.61995 5.06667 6.61995 5.32C6.63328 5.57334 6.66662 5.76667 6.71995 5.9ZM0.679951 14.98H1.27995L1.43995 15.3C1.43995 15.42 1.43995 15.54 1.43995 15.66C1.45328 15.78 1.44662 15.9 1.41995 16.02C1.40662 16.14 1.36662 16.2533 1.29995 16.36C1.23328 16.4667 1.12662 16.56 0.979951 16.64H0.299951C0.259951 16.5867 0.213285 16.5333 0.159951 16.48C0.119951 16.44 0.0666179 16.3867 -4.88162e-05 16.32C0.0132845 16.0533 0.0666179 15.8133 0.159951 15.6C0.266618 15.3733 0.439951 15.1667 0.679951 14.98ZM3.37995 8.82C3.35328 8.84667 3.33328 8.86667 3.31995 8.88C3.30662 8.89334 3.29328 8.90667 3.27995 8.92C3.26662 8.93334 3.25328 8.94 3.23995 8.94L3.27995 9.06L3.23995 9.12H3.11995L3.07995 8.88C3.06662 8.89334 3.03995 8.9 2.99995 8.9V9.12C2.90662 9.12 2.86662 9.14667 2.87995 9.2C2.89328 9.25334 2.89328 9.30667 2.87995 9.36C2.78662 9.36 2.74662 9.38667 2.75995 9.44C2.77328 9.49334 2.77328 9.54667 2.75995 9.6C2.74662 9.6 2.71328 9.61334 2.65995 9.64L2.75995 9.72C2.73328 9.78667 2.69995 9.86 2.65995 9.94C2.61995 10.02 2.63995 10.1133 2.71995 10.22L2.87995 9.72C3.05328 9.66667 3.13328 9.54667 3.11995 9.36C3.18662 9.36 3.21995 9.34 3.21995 9.3C3.23328 9.26 3.25328 9.19334 3.27995 9.1L3.29995 9.12C3.29995 9.06667 3.29995 9.04 3.29995 9.04C3.31328 9.01334 3.31995 8.98 3.31995 8.94C3.33328 8.9 3.35328 8.86 3.37995 8.82ZM1.79995 11.86C1.89328 11.86 1.93328 11.84 1.91995 11.8C1.90662 11.7467 1.91328 11.7067 1.93995 11.68L2.15995 11.26C2.09328 11.2733 2.01995 11.28 1.93995 11.28C1.93995 11.3467 1.93995 11.4067 1.93995 11.46C1.93995 11.5133 1.93328 11.5667 1.91995 11.62C1.85328 11.6333 1.81328 11.66 1.79995 11.7C1.78662 11.74 1.76662 11.8067 1.73995 11.9V11.86C1.73995 11.9133 1.73995 11.94 1.73995 11.94C1.72662 11.9667 1.71328 12 1.69995 12.04C1.69995 12.08 1.68662 12.12 1.65995 12.16C1.75328 12.08 1.79995 12.0333 1.79995 12.02C1.79995 12.0067 1.78662 11.9733 1.75995 11.92C1.77328 11.92 1.77995 11.9133 1.77995 11.9C1.77995 11.8867 1.78662 11.8733 1.79995 11.86ZM2.31995 9.76C2.19995 9.84 2.11995 9.93334 2.07995 10.04C2.05328 10.1333 2.03995 10.2267 2.03995 10.32L1.65995 11.1C1.67328 11.1 1.68662 11.0933 1.69995 11.08C1.75328 10.96 1.83328 10.7867 1.93995 10.56C2.04662 10.3333 2.17328 10.0667 2.31995 9.76ZM1.47995 11.96C1.53328 11.8133 1.57328 11.7 1.59995 11.62C1.62662 11.5267 1.65328 11.44 1.67995 11.36C1.67995 11.36 1.66662 11.34 1.63995 11.3C1.54662 11.5267 1.49328 11.68 1.47995 11.76C1.46662 11.8267 1.46662 11.8933 1.47995 11.96ZM1.75995 11.04C1.94662 10.9333 2.03995 10.7467 2.03995 10.48L1.75995 11.04ZM2.27995 10.42H2.15995C2.18662 10.3667 2.21328 10.2867 2.23995 10.18L2.35995 9.86C2.29328 9.96667 2.23328 10.0667 2.17995 10.16C2.13995 10.2533 2.09995 10.34 2.05995 10.42H2.15995C2.18662 10.4733 2.19995 10.5067 2.19995 10.52C2.22662 10.5067 2.25328 10.4733 2.27995 10.42ZM2.35995 10.52C2.42662 10.52 2.47995 10.5267 2.51995 10.54C2.55995 10.54 2.59995 10.54 2.63995 10.54C2.63995 10.5 2.62662 10.4733 2.59995 10.46C2.58662 10.4333 2.53995 10.42 2.45995 10.42L2.35995 10.52ZM3.33995 8.4C3.25995 8.41334 3.22662 8.44667 3.23995 8.5C3.25328 8.54 3.25995 8.58667 3.25995 8.64C3.32662 8.62667 3.35328 8.6 3.33995 8.56C3.33995 8.50667 3.33995 8.45334 3.33995 8.4ZM2.55995 9.46C2.53328 9.51334 2.50662 9.56 2.47995 9.6C2.46662 9.64 2.44662 9.68 2.41995 9.72C2.47328 9.70667 2.49995 9.68 2.49995 9.64C2.51328 9.6 2.53328 9.54 2.55995 9.46ZM3.37995 8.4C3.39328 8.38667 3.40662 8.38 3.41995 8.38C3.43328 8.36667 3.44662 8.34667 3.45995 8.32L3.41995 8.28L3.35995 8.4H3.37995ZM3.23995 8.64C3.22662 8.64 3.21995 8.63334 3.21995 8.62C3.20662 8.64667 3.19328 8.66667 3.17995 8.68C3.16662 8.68 3.15328 8.68667 3.13995 8.7C3.15328 8.72667 3.15995 8.74 3.15995 8.74L3.23995 8.64ZM1.19995 15.56L1.09995 15.64L1.13995 15.68C1.15328 15.6533 1.16662 15.6333 1.17995 15.62C1.19328 15.6067 1.19995 15.5867 1.19995 15.56ZM1.31995 15.5C1.29328 15.4733 1.27995 15.46 1.27995 15.46C1.26662 15.4867 1.25328 15.5067 1.23995 15.52C1.22662 15.5333 1.21995 15.5533 1.21995 15.58L1.31995 15.5ZM2.27995 10.42C2.30662 10.42 2.34662 10.4133 2.39995 10.4C2.37328 10.3733 2.35995 10.3533 2.35995 10.34C2.34662 10.3533 2.33328 10.3667 2.31995 10.38C2.31995 10.3933 2.30662 10.4067 2.27995 10.42ZM2.39995 9.6L2.45995 9.5C2.41995 9.51334 2.39995 9.54667 2.39995 9.6ZM2.51995 9.3V9.34L2.57995 9.26C2.55328 9.27334 2.53995 9.28 2.53995 9.28C2.52662 9.28 2.51995 9.28667 2.51995 9.3ZM2.57995 9.48C2.57995 9.45334 2.57995 9.44 2.57995 9.44C2.59328 9.42667 2.59995 9.41334 2.59995 9.4L2.55995 9.46L2.57995 9.48ZM2.57995 9.4L2.55995 9.42V9.46C2.55995 9.43334 2.56662 9.41334 2.57995 9.4ZM1.73995 11.94L1.75995 11.92L1.73995 11.9V11.94ZM3.27995 9.06V9.1C3.27995 9.07334 3.28662 9.05334 3.29995 9.04L3.27995 9.06ZM10.3851 12.24C10.3851 12.3467 10.3784 12.4533 10.3651 12.56C10.3651 12.6533 10.3384 12.7533 10.2851 12.86C10.2318 12.9267 10.1984 13.0067 10.1851 13.1C10.1718 13.18 10.1384 13.2467 10.0851 13.3C10.0584 13.3267 10.0451 13.36 10.0451 13.4C10.0451 13.44 10.0451 13.48 10.0451 13.52C10.0451 13.56 10.0318 13.5933 10.0051 13.62C9.99177 13.6467 9.94511 13.6667 9.86511 13.68H9.92511C9.89844 13.5733 9.88511 13.4933 9.88511 13.44H9.80511C9.80511 13.5467 9.82511 13.6267 9.86511 13.68C9.89177 13.72 9.90511 13.78 9.90511 13.86L9.66511 13.98C9.69177 14.0867 9.73177 14.1933 9.78511 14.3C9.83844 14.3933 9.79844 14.4933 9.66511 14.6C9.62511 14.8667 9.56511 15.1267 9.48511 15.38C9.40511 15.6333 9.40511 15.9133 9.48511 16.22C9.67177 15.9933 9.85177 15.7733 10.0251 15.56C10.1984 15.3467 10.3584 15.1267 10.5051 14.9C10.6651 14.6467 10.8184 14.3867 10.9651 14.12C11.1118 13.8533 11.2584 13.5867 11.4051 13.32C11.6451 12.9067 11.8851 12.5067 12.1251 12.12C12.3118 11.8267 12.4918 11.5333 12.6651 11.24C12.8518 10.9333 13.0584 10.6467 13.2851 10.38C13.4718 10.1533 13.6451 9.92 13.8051 9.68C13.9784 9.44 14.1518 9.2 14.3251 8.96C14.6318 8.53334 14.9251 8.1 15.2051 7.66C15.4984 7.22 15.7918 6.78667 16.0851 6.36C16.1518 6.26667 16.2051 6.18 16.2451 6.1C16.2851 6.00667 16.3251 5.90667 16.3651 5.8C16.5251 5.38667 16.7784 5.03334 17.1251 4.74C17.3918 4.75334 17.6051 4.77334 17.7651 4.8C17.9384 4.81334 18.0918 4.85334 18.2251 4.92C18.3718 4.98667 18.5184 5.09334 18.6651 5.24C18.8118 5.38667 18.9984 5.59334 19.2251 5.86C19.2251 5.88667 19.2251 5.91334 19.2251 5.94C19.2384 5.95334 19.2384 5.96667 19.2251 5.98C19.0784 6.1 18.9718 6.24 18.9051 6.4C18.8518 6.56 18.7984 6.72667 18.7451 6.9C18.6518 7.19334 18.5318 7.48 18.3851 7.76C18.2518 8.02667 18.1451 8.30667 18.0651 8.6C17.9984 8.81334 17.9251 9.02 17.8451 9.22C17.7651 9.42 17.6918 9.62667 17.6251 9.84C17.5584 10.0533 17.4918 10.26 17.4251 10.46C17.3718 10.66 17.3118 10.86 17.2451 11.06C17.2184 11.14 17.2051 11.1933 17.2051 11.22C17.1784 11.4467 17.1584 11.68 17.1451 11.92C17.1451 12.1467 17.1184 12.3733 17.0651 12.6C16.9584 13.04 16.9184 13.48 16.9451 13.92C16.9851 14.36 16.9918 14.8 16.9651 15.24C16.9518 15.4533 16.9784 15.6533 17.0451 15.84C17.1118 16.0133 17.2118 16.2 17.3451 16.4C17.5718 16.3333 17.7718 16.24 17.9451 16.12C18.1184 15.9867 18.2984 15.8467 18.4851 15.7C18.8184 15.4333 19.1051 15.14 19.3451 14.82C19.5984 14.4867 19.8451 14.1467 20.0851 13.8C20.2718 13.5333 20.4384 13.26 20.5851 12.98C20.7451 12.6867 20.9184 12.4067 21.1051 12.14C21.2251 11.9533 21.3184 11.7667 21.3851 11.58C21.4518 11.3933 21.5251 11.2067 21.6051 11.02C21.7118 10.7933 21.7984 10.56 21.8651 10.32C21.9318 10.08 22.0184 9.84667 22.1251 9.62C22.2318 9.40667 22.3251 9.18667 22.4051 8.96C22.4851 8.73334 22.5651 8.50667 22.6451 8.28C22.6984 8.13334 22.7451 7.98 22.7851 7.82C22.8384 7.66 22.8851 7.5 22.9251 7.34C23.0051 7.00667 23.0851 6.68 23.1651 6.36C23.2584 6.04 23.3384 5.71334 23.4051 5.38C23.4718 5.35334 23.5118 5.32 23.5251 5.28C23.5384 5.22667 23.5451 5.17334 23.5451 5.12C23.5451 5.06667 23.5451 5.01334 23.5451 4.96C23.5451 4.90667 23.5651 4.85334 23.6051 4.8C23.6718 4.72 23.7051 4.62 23.7051 4.5C23.7184 4.38 23.7384 4.26667 23.7651 4.16C23.8051 4.05334 23.8318 3.95334 23.8451 3.86C23.8584 3.76667 23.8784 3.66667 23.9051 3.56C23.9318 3.4 23.9718 3.24 24.0251 3.08C24.0784 2.92 24.1318 2.76 24.1851 2.6C24.2251 2.45334 24.2451 2.31334 24.2451 2.18C24.2584 2.04667 24.2984 1.91334 24.3651 1.78C24.3918 1.7 24.4251 1.63334 24.4651 1.58C24.5051 1.52667 24.5718 1.49334 24.6651 1.48C24.7318 1.70667 24.7851 1.93334 24.8251 2.16C24.8784 2.38667 24.8851 2.61334 24.8451 2.84C24.8184 3 24.7918 3.16667 24.7651 3.34C24.7384 3.5 24.6918 3.66 24.6251 3.82C24.5584 4.00667 24.5051 4.2 24.4651 4.4C24.4384 4.58667 24.4051 4.77334 24.3651 4.96C24.3118 5.21334 24.2651 5.46667 24.2251 5.72C24.1851 5.97334 24.1451 6.22667 24.1051 6.48C24.0784 6.70667 24.0384 6.94 23.9851 7.18C23.9318 7.42 23.8651 7.65334 23.7851 7.88C23.7184 8.10667 23.6451 8.34 23.5651 8.58C23.4851 8.80667 23.4118 9.03334 23.3451 9.26C23.3051 9.40667 23.2651 9.55334 23.2251 9.7C23.1851 9.83334 23.1451 9.97334 23.1051 10.12C22.9584 10.5867 22.7784 11.0467 22.5651 11.5C22.3518 11.9533 22.1384 12.4067 21.9251 12.86C21.7251 13.2733 21.4984 13.6667 21.2451 14.04C20.9918 14.4133 20.7518 14.8 20.5251 15.2C20.2451 15.44 19.9851 15.7 19.7451 15.98C19.5184 16.26 19.2451 16.4933 18.9251 16.68C18.8451 16.7333 18.7718 16.7933 18.7051 16.86C18.6518 16.9267 18.5784 16.9867 18.4851 17.04C18.1651 17.16 17.8518 17.2333 17.5451 17.26C17.2384 17.2867 16.9251 17.2267 16.6051 17.08C16.2984 16.9467 16.0318 16.7733 15.8051 16.56C15.5784 16.3467 15.3651 16.1133 15.1651 15.86C15.1384 15.8333 15.1051 15.76 15.0651 15.64C15.0251 15.5067 14.9851 15.3667 14.9451 15.22C14.9051 15.0733 14.8718 14.9333 14.8451 14.8C14.8184 14.6667 14.8051 14.5733 14.8051 14.52C14.8051 14.2133 14.8051 13.9133 14.8051 13.62C14.8051 13.3267 14.8118 13.0333 14.8251 12.74C14.8251 12.6067 14.8318 12.48 14.8451 12.36C14.8718 12.24 14.8984 12.12 14.9251 12C14.9518 11.8933 14.9518 11.7867 14.9251 11.68C14.8984 11.56 14.9384 11.4467 15.0451 11.34C15.0718 11.3133 15.0784 11.28 15.0651 11.24C15.0651 11.1867 15.0584 11.14 15.0451 11.1C15.0184 10.9667 15.0251 10.84 15.0651 10.72C15.1051 10.6 15.1384 10.48 15.1651 10.36C15.3118 9.86667 15.4318 9.38 15.5251 8.9C15.5518 8.78 15.5851 8.66667 15.6251 8.56C15.6784 8.44 15.6851 8.31334 15.6451 8.18H15.6651C15.6784 8.16667 15.6918 8.16 15.7051 8.16C15.7184 8.14667 15.7384 8.12667 15.7651 8.1C15.7384 8.08667 15.7251 8.08 15.7251 8.08C15.6984 8.09334 15.6718 8.12667 15.6451 8.18C15.4984 8.35334 15.3651 8.53334 15.2451 8.72C15.1251 8.90667 14.9718 9.07334 14.7851 9.22C14.7051 9.28667 14.6451 9.37334 14.6051 9.48C14.5651 9.58667 14.5118 9.69334 14.4451 9.8C14.2451 10.1467 14.0251 10.4733 13.7851 10.78C13.5451 11.0867 13.3318 11.4133 13.1451 11.76C12.9184 12.16 12.6918 12.5667 12.4651 12.98C12.2384 13.38 12.0318 13.7933 11.8451 14.22C11.6184 14.7 11.3651 15.1667 11.0851 15.62C10.8184 16.06 10.5451 16.5067 10.2651 16.96C10.1451 17.1467 9.98511 17.2867 9.78511 17.38C9.58511 17.4867 9.37844 17.56 9.16511 17.6C9.07177 17.6267 8.97177 17.62 8.86511 17.58C8.77177 17.5533 8.67177 17.5267 8.56511 17.5C8.24511 17.3933 7.97177 17.18 7.74511 16.86C7.53177 16.54 7.41844 16.2067 7.40511 15.86C7.39177 15.5533 7.40511 15.2533 7.44511 14.96C7.49844 14.6533 7.55177 14.3467 7.60511 14.04C7.67177 13.6933 7.75177 13.36 7.84511 13.04C7.95177 12.72 8.04511 12.3867 8.12511 12.04C8.20511 11.7067 8.29844 11.38 8.40511 11.06C8.51177 10.7267 8.61844 10.4 8.72511 10.08C8.80511 9.84 8.89844 9.60667 9.00511 9.38C9.11177 9.14 9.21177 8.9 9.30511 8.66C9.41177 8.39334 9.51844 8.12667 9.62511 7.86C9.73177 7.59334 9.83177 7.32667 9.92511 7.06C10.0184 6.79334 10.1318 6.54 10.2651 6.3C10.3984 6.06 10.5318 5.82 10.6651 5.58C10.8518 5.22 11.0384 4.86 11.2251 4.5C11.4251 4.14 11.6251 3.78 11.8251 3.42C11.9184 3.27334 12.0118 3.12667 12.1051 2.98C12.1984 2.83334 12.2984 2.68667 12.4051 2.54C12.5118 2.38 12.6451 2.24667 12.8051 2.14C12.9651 2.03334 13.1384 1.94667 13.3251 1.88C13.4318 1.90667 13.5384 1.94 13.6451 1.98C13.7518 2.02 13.8651 2.05334 13.9851 2.08C14.1318 2.08 14.2451 2.14 14.3251 2.26C14.4451 2.44667 14.5584 2.62667 14.6651 2.8C14.7851 2.97334 14.8784 3.17334 14.9451 3.4C14.6518 3.74667 14.3851 4.11334 14.1451 4.5C13.9051 4.88667 13.6851 5.28667 13.4851 5.7C13.3651 5.92667 13.2318 6.14667 13.0851 6.36C12.9518 6.56 12.8251 6.77334 12.7051 7C12.6251 7.14667 12.5518 7.30667 12.4851 7.48C12.4318 7.64 12.3718 7.8 12.3051 7.96C12.2918 7.98667 12.2718 8.00667 12.2451 8.02C12.2318 8.02 12.2118 8.03334 12.1851 8.06C12.1584 7.95334 12.1451 7.88 12.1451 7.84H12.0651V8.06C12.0251 8.08667 11.9851 8.11334 11.9451 8.14C11.9051 8.16667 11.8718 8.19334 11.8451 8.22C11.7384 8.42 11.6384 8.62 11.5451 8.82C11.4518 9.00667 11.3584 9.2 11.2651 9.4C11.2384 9.45334 11.2251 9.50667 11.2251 9.56C11.2384 9.61334 11.2384 9.67334 11.2251 9.74C10.9451 10.06 10.7851 10.4533 10.7451 10.92C10.6384 10.9867 10.5718 11.0733 10.5451 11.18C10.5184 11.2867 10.5051 11.4 10.5051 11.52C10.3584 11.6533 10.2718 11.8133 10.2451 12C10.2184 12.1867 10.1651 12.3533 10.0851 12.5C10.0451 12.5667 10.0251 12.6467 10.0251 12.74C10.0251 12.8333 10.0051 12.9533 9.96511 13.1C9.97844 13.1267 9.99177 13.14 10.0051 13.14C10.0184 13.14 10.0251 13.1333 10.0251 13.12C10.0251 13.0933 10.0184 13.0667 10.0051 13.04C9.99177 13.0133 9.97844 12.9867 9.96511 12.96C9.93844 13.0533 9.93844 13.1 9.96511 13.1C10.0184 12.9933 10.0584 12.9267 10.0851 12.9C10.1118 12.86 10.1318 12.8267 10.1451 12.8C10.1984 12.7067 10.2251 12.6067 10.2251 12.5C10.2384 12.3933 10.2918 12.3067 10.3851 12.24ZM20.3051 14.26C20.3051 14.2733 20.3118 14.28 20.3251 14.28C20.3651 14.24 20.3984 14.2133 20.4251 14.2C20.3984 14.1733 20.3851 14.16 20.3851 14.16C20.3451 14.2 20.3251 14.24 20.3251 14.28C20.3118 14.2667 20.3051 14.26 20.3051 14.26C20.2784 14.2733 20.2451 14.3 20.2051 14.34C20.2051 14.34 20.2184 14.3533 20.2451 14.38C20.2584 14.3533 20.2651 14.3333 20.2651 14.32C20.2784 14.3067 20.2918 14.2867 20.3051 14.26ZM8.96511 12.9L8.84511 13.02C8.84511 13.06 8.85844 13.12 8.88511 13.2C8.89844 13.16 8.89844 13.1467 8.88511 13.16C8.87177 13.16 8.80511 13.2733 8.68511 13.5C8.77844 13.4067 8.82511 13.36 8.82511 13.36C8.82511 13.3333 8.81177 13.28 8.78511 13.2C8.77177 13.24 8.77177 13.26 8.78511 13.26C8.79844 13.2467 8.85844 13.1267 8.96511 12.9ZM9.42511 12.54C9.50511 12.4467 9.54511 12.4 9.54511 12.4C9.54511 12.3733 9.53844 12.3467 9.52511 12.32C9.51177 12.2933 9.50511 12.2667 9.50511 12.24C9.49177 12.28 9.48511 12.3067 9.48511 12.32C9.48511 12.3333 9.50511 12.3067 9.54511 12.24L9.56511 12.26L9.66511 12.16C9.65177 12.16 9.64511 12.16 9.64511 12.16C9.64511 12.1467 9.63844 12.14 9.62511 12.14C9.59844 12.1533 9.57177 12.18 9.54511 12.22C9.53177 12.26 9.49177 12.3667 9.42511 12.54ZM9.56511 11.46C9.48511 11.5533 9.44511 11.6 9.44511 11.6C9.44511 11.6267 9.45844 11.68 9.48511 11.76C9.49844 11.72 9.49844 11.7067 9.48511 11.72C9.47177 11.72 9.41177 11.8333 9.30511 12.06C9.38511 11.98 9.42511 11.9333 9.42511 11.92C9.42511 11.8933 9.41844 11.8667 9.40511 11.84C9.39177 11.8133 9.38511 11.7867 9.38511 11.76C9.37177 11.8 9.37177 11.82 9.38511 11.82C9.39844 11.8067 9.45844 11.6867 9.56511 11.46ZM21.7451 11.28C21.8384 11.28 21.8784 11.2533 21.8651 11.2C21.8518 11.1467 21.8518 11.0933 21.8651 11.04C21.9584 11.04 21.9984 11.0133 21.9851 10.96C21.9718 10.9067 21.9718 10.8533 21.9851 10.8C22.0784 10.8 22.1184 10.7733 22.1051 10.72C22.0918 10.6667 22.0918 10.6133 22.1051 10.56C22.2118 10.5333 22.2518 10.4867 22.2251 10.42C22.1984 10.34 22.1984 10.2733 22.2251 10.22C22.3584 10.18 22.4318 10.12 22.4451 10.04C22.4584 9.94667 22.4651 9.84667 22.4651 9.74C22.7451 9.40667 22.9051 9.00667 22.9451 8.54C23.0518 8.51334 23.0918 8.46667 23.0651 8.4C23.0384 8.32 23.0384 8.24667 23.0651 8.18C23.1451 8.16667 23.1784 8.14 23.1651 8.1C23.1651 8.06 23.1718 8.02667 23.1851 8C23.2251 7.92 23.2651 7.84667 23.3051 7.78C23.3451 7.71334 23.3784 7.64 23.4051 7.56C23.3518 7.57334 23.3118 7.58667 23.2851 7.6C23.2584 7.6 23.2251 7.6 23.1851 7.6V7.94C23.0918 7.95334 23.0451 7.98667 23.0451 8.04C23.0584 8.08 23.0651 8.12667 23.0651 8.18C22.9451 8.20667 22.8984 8.26 22.9251 8.34C22.9651 8.40667 22.9718 8.47334 22.9451 8.54C22.6384 8.88667 22.4784 9.28667 22.4651 9.74C22.2918 9.87334 22.2118 10.0333 22.2251 10.22C22.1851 10.2467 22.1451 10.2733 22.1051 10.3C22.0651 10.3133 22.0251 10.3333 21.9851 10.36C22.0118 10.4133 22.0518 10.48 22.1051 10.56C22.0118 10.5733 21.9718 10.6067 21.9851 10.66C21.9984 10.7133 21.9984 10.76 21.9851 10.8C21.8918 10.8133 21.8518 10.8467 21.8651 10.9C21.8784 10.9533 21.8784 11 21.8651 11.04C21.7718 11.0533 21.7251 11.1 21.7251 11.18C21.7251 11.26 21.6851 11.3933 21.6051 11.58C21.6318 11.5533 21.6518 11.54 21.6651 11.54C21.6784 11.5267 21.6918 11.5133 21.7051 11.5L21.7451 11.46L21.6851 11.28C21.6718 11.32 21.6651 11.3467 21.6651 11.36C21.6651 11.3733 21.6918 11.3467 21.7451 11.28ZM16.6251 10.16C16.5318 10.24 16.4851 10.28 16.4851 10.28C16.5118 10.36 16.5318 10.4133 16.5451 10.44C16.5584 10.4133 16.5651 10.3933 16.5651 10.38C16.5651 10.3533 16.5451 10.38 16.5051 10.46C16.4918 10.46 16.4851 10.46 16.4851 10.46C16.4851 10.4467 16.4784 10.44 16.4651 10.44L16.3851 10.52C16.3851 10.5333 16.3851 10.54 16.3851 10.54C16.3984 10.54 16.4051 10.5467 16.4051 10.56C16.4318 10.5333 16.4518 10.5067 16.4651 10.48C16.4918 10.44 16.5451 10.3333 16.6251 10.16ZM11.3651 6.32C11.2718 6.41334 11.2251 6.46 11.2251 6.46C11.2384 6.48667 11.2451 6.51334 11.2451 6.54C11.2584 6.56667 11.2718 6.59334 11.2851 6.62C11.2984 6.59334 11.3051 6.57334 11.3051 6.56C11.3051 6.53334 11.2784 6.55334 11.2251 6.62C11.1318 6.63334 11.0918 6.66667 11.1051 6.72C11.1184 6.77334 11.1184 6.82 11.1051 6.86C10.9984 6.92667 10.9251 7.01334 10.8851 7.12C10.8451 7.21334 10.8118 7.30667 10.7851 7.4C10.6651 7.78667 10.5184 8.15334 10.3451 8.5C10.1851 8.84667 10.0318 9.20667 9.88511 9.58C9.83177 9.7 9.77177 9.81334 9.70511 9.92C9.65177 10.0267 9.60511 10.14 9.56511 10.26C9.52511 10.3667 9.49844 10.48 9.48511 10.6C9.47177 10.7067 9.45177 10.8133 9.42511 10.92C9.29177 11.0533 9.19844 11.22 9.14511 11.42C9.09177 11.6067 9.02511 11.86 8.94511 12.18C9.02511 12.1 9.06511 12.0533 9.06511 12.04C9.06511 12.0133 9.05177 11.96 9.02511 11.88C9.01177 11.92 9.00511 11.9467 9.00511 11.96C9.00511 11.9733 9.02511 11.9467 9.06511 11.88C9.34511 11.6 9.46511 11.28 9.42511 10.92C9.53177 10.8933 9.59177 10.84 9.60511 10.76C9.61844 10.6667 9.63844 10.5867 9.66511 10.52C9.70511 10.4533 9.73844 10.3867 9.76511 10.32C9.80511 10.24 9.85844 10.1467 9.92511 10.04V9.76C9.96511 9.74667 9.99844 9.74 10.0251 9.74C10.0651 9.72667 10.1051 9.71334 10.1451 9.7C10.1451 9.66 10.1384 9.62 10.1251 9.58C10.1251 9.52667 10.1384 9.48 10.1651 9.44C10.2584 9.2 10.3518 8.96667 10.4451 8.74C10.5384 8.5 10.6384 8.26 10.7451 8.02C10.8251 7.83334 10.9051 7.65334 10.9851 7.48C11.0651 7.29334 11.1051 7.08667 11.1051 6.86C11.1984 6.86 11.2451 6.82 11.2451 6.74C11.2451 6.66 11.2851 6.52 11.3651 6.32ZM11.4451 6.08C11.5384 6 11.5851 5.96 11.5851 5.96L11.5251 5.78C11.5118 5.82 11.5051 5.85334 11.5051 5.88C11.5051 5.89334 11.5251 5.86 11.5651 5.78C11.5784 5.78 11.5851 5.78667 11.5851 5.8C11.5851 5.8 11.5918 5.8 11.6051 5.8L11.6851 5.72C11.6851 5.72 11.6718 5.70667 11.6451 5.68C11.6318 5.70667 11.6118 5.74 11.5851 5.78C11.5718 5.80667 11.5251 5.90667 11.4451 6.08ZM9.06511 12.48L9.12511 12.54C9.15177 12.5 9.17844 12.46 9.20511 12.42C9.24511 12.38 9.27844 12.3267 9.30511 12.26C9.26511 12.26 9.22511 12.26 9.18511 12.26C9.15844 12.2467 9.12511 12.24 9.08511 12.24C9.08511 12.2933 9.07844 12.3533 9.06511 12.42C9.05177 12.4733 9.01177 12.5933 8.94511 12.78C9.02511 12.6867 9.06511 12.64 9.06511 12.64C9.06511 12.6133 9.05177 12.56 9.02511 12.48C9.01177 12.52 9.00511 12.5467 9.00511 12.56C9.00511 12.5733 9.02511 12.5467 9.06511 12.48ZM16.3651 8.92C16.3651 8.98667 16.3718 9.05334 16.3851 9.12C16.3984 9.18667 16.3918 9.25334 16.3651 9.32C16.2584 9.52 16.1651 9.72667 16.0851 9.94C16.0184 10.14 15.9718 10.3533 15.9451 10.58C15.9184 10.8067 15.8651 11.0333 15.7851 11.26C15.7184 11.4867 15.6651 11.7133 15.6251 11.94C15.5984 12.0867 15.5851 12.2333 15.5851 12.38C15.5984 12.5267 15.5718 12.66 15.5051 12.78C15.4118 12.9667 15.3784 13.14 15.4051 13.3C15.4318 13.46 15.4451 13.62 15.4451 13.78C15.4851 13.66 15.5251 13.54 15.5651 13.42C15.6184 13.2867 15.6384 13.16 15.6251 13.04C15.5984 12.76 15.6184 12.4933 15.6851 12.24C15.7651 11.9867 15.8318 11.7267 15.8851 11.46C15.9251 11.2733 15.9718 11.1 16.0251 10.94C16.0918 10.7667 16.1584 10.5867 16.2251 10.4C16.3051 10.16 16.3718 9.92 16.4251 9.68C16.4784 9.44 16.4584 9.18667 16.3651 8.92ZM15.1251 12.82C15.1518 12.6733 15.1784 12.5267 15.2051 12.38C15.2318 12.22 15.2518 12.0667 15.2651 11.92C15.2918 11.5733 15.3584 11.2467 15.4651 10.94C15.5718 10.62 15.6851 10.3067 15.8051 10C15.8718 9.84 15.9251 9.68 15.9651 9.52C16.0051 9.36 16.0384 9.19334 16.0651 9.02C15.8918 9.38 15.7251 9.74667 15.5651 10.12C15.4051 10.4933 15.2851 10.88 15.2051 11.28C15.1518 11.5467 15.1051 11.8067 15.0651 12.06C15.0384 12.3 15.0584 12.5533 15.1251 12.82ZM14.9651 13.8H15.0251V13.08H14.9651V13.8ZM15.7851 14.84H15.8851C15.8851 14.7733 15.8784 14.7067 15.8651 14.64C15.8651 14.56 15.8651 14.48 15.8651 14.4H15.7851V14.84ZM12.4051 7.24C12.3518 7.24 12.3184 7.24667 12.3051 7.26C12.3051 7.28667 12.3184 7.35334 12.3451 7.46C12.3584 7.44667 12.3784 7.44 12.4051 7.44V7.24ZM15.6651 10.9H15.7651C15.7651 10.8467 15.7518 10.78 15.7251 10.7H15.6651V10.9ZM16.6851 9.98H16.6451V10.1H16.6851V9.98ZM19.9451 14.68V14.72H20.0651V14.68H19.9451ZM15.6451 11.24V11.2H15.5251V11.24H15.6451ZM9.30511 12.76V12.8H9.42511V12.76H9.30511ZM16.6851 8.06H16.6451V8.18H16.6851V8.06ZM15.5251 7.78V7.74H15.4051V7.78H15.5251ZM8.84511 12.44V12.4H8.72511V12.44H8.84511ZM21.6251 11.72V11.68H21.5051V11.72H21.6251ZM12.4651 7.1H12.5051V6.98H12.4651V7.1ZM12.5851 6.86H12.6251V6.74H12.5851V6.86ZM20.9851 13.2H20.9451V13.32H20.9851V13.2ZM11.3451 6.18V6.22H11.4651V6.18H11.3451ZM15.8851 10.4V10.36H15.7651V10.4H15.8851ZM9.82511 11.52H9.86511V11.4H9.82511V11.52ZM15.7651 14.12V14.08H15.6451V14.12H15.7651ZM9.58511 11.4H9.62511V11.28H9.58511V11.4ZM32.4742 13.9C32.3142 14.2867 32.2142 14.6733 32.1742 15.06C32.1342 15.4333 32.0275 15.8067 31.8542 16.18C31.8808 16.26 31.9008 16.3333 31.9142 16.4C31.9275 16.4667 31.9408 16.5333 31.9542 16.6C31.9008 16.6267 31.8342 16.66 31.7542 16.7C31.6875 16.7533 31.6008 16.8133 31.4942 16.88H30.8942C30.7075 16.8 30.5675 16.6867 30.4742 16.54C30.3942 16.4067 30.3275 16.26 30.2742 16.1C30.2342 15.9267 30.2075 15.7533 30.1942 15.58C30.1808 15.4067 30.1542 15.24 30.1142 15.08C30.1408 14.6267 30.2208 14.18 30.3542 13.74C30.5008 13.2867 30.6608 12.84 30.8342 12.4C30.9408 12.0933 31.0675 11.78 31.2142 11.46C31.3608 11.14 31.5342 10.8267 31.7342 10.52C31.7742 10.4533 31.8208 10.38 31.8742 10.3C31.9275 10.2067 31.9008 10.1333 31.7942 10.08C31.8075 10.0533 31.8142 10.0333 31.8142 10.02C31.8142 9.99334 31.8275 9.95334 31.8542 9.9V9.92C31.8542 9.93334 31.8475 9.94 31.8342 9.94C31.8342 9.94 31.8342 9.94667 31.8342 9.96C31.8742 9.96 31.9142 9.96 31.9542 9.96C31.9942 9.94667 32.0408 9.93334 32.0942 9.92C32.0942 9.92 32.0942 9.89334 32.0942 9.84C32.0142 9.84 31.9342 9.86 31.8542 9.9C31.7875 9.92667 31.7208 9.94 31.6542 9.94C31.6008 9.94 31.5475 9.94667 31.4942 9.96C31.4542 9.96 31.3942 10.0133 31.3142 10.12C31.3142 10.12 31.3142 10.1 31.3142 10.06L31.0742 10.12C31.0475 10.1467 31.0475 10.1667 31.0742 10.18C31.1008 10.18 31.1342 10.18 31.1742 10.18C31.2142 10.1667 31.2608 10.1467 31.3142 10.12C31.3942 10.0933 31.4742 10.08 31.5542 10.08C31.6342 10.08 31.7142 10.08 31.7942 10.08C31.6075 10.2267 31.4342 10.3 31.2742 10.3C31.1142 10.3 30.9408 10.3067 30.7542 10.32C30.6475 10.1467 30.4875 10.1467 30.2742 10.32C30.2208 10.3333 30.1675 10.3333 30.1142 10.32C30.0742 10.3067 30.0342 10.3467 29.9942 10.44H29.2942C29.2942 10.4667 29.2875 10.4933 29.2742 10.52C29.3408 10.5333 29.4075 10.5467 29.4742 10.56C29.5542 10.56 29.6342 10.5667 29.7142 10.58C29.7008 10.6067 29.6742 10.64 29.6342 10.68H29.0942C29.1075 10.68 29.1142 10.6733 29.1142 10.66C29.1008 10.6333 29.0875 10.62 29.0742 10.62C29.0742 10.6067 29.0675 10.5867 29.0542 10.56C29.0275 10.5867 29.0142 10.6 29.0142 10.6C29.0275 10.64 29.0542 10.6667 29.0942 10.68C29.0675 10.7067 29.0608 10.72 29.0742 10.72C28.9008 10.7733 28.7275 10.8267 28.5542 10.88C28.3808 10.9333 28.2075 10.98 28.0342 11.02C27.9675 11.0467 27.9075 11.0667 27.8542 11.08C27.8142 11.08 27.7608 11.1 27.6942 11.14C27.4408 11.2867 27.1808 11.4067 26.9142 11.5C26.6608 11.58 26.4075 11.6667 26.1542 11.76C26.1142 11.8 26.0942 11.8333 26.0942 11.86C25.9875 11.8867 25.9075 11.9333 25.8542 12C25.8142 12.0533 25.7608 12.12 25.6942 12.2C25.6542 12.2667 25.6075 12.3267 25.5542 12.38C25.5142 12.42 25.4675 12.4667 25.4142 12.52C25.4142 12.56 25.4275 12.62 25.4542 12.7C25.4008 12.7267 25.3408 12.76 25.2742 12.8C25.2208 12.8267 25.1875 12.8533 25.1742 12.88C25.1075 13.0667 24.9942 13.22 24.8342 13.34C24.6875 13.46 24.5608 13.6 24.4542 13.76C24.3475 13.92 24.2342 14.0733 24.1142 14.22C23.9942 14.3667 23.8808 14.5133 23.7742 14.66C23.7075 14.7267 23.6408 14.7933 23.5742 14.86C23.5075 14.9267 23.4408 15.0067 23.3742 15.1C23.3475 15.1667 23.3208 15.24 23.2942 15.32C23.2808 15.4 23.2608 15.4867 23.2342 15.58C23.0742 15.6867 23.0008 15.8 23.0142 15.92C23.0142 16.0267 23.0075 16.14 22.9942 16.26C22.7408 16.3133 22.5208 16.32 22.3342 16.28C22.1342 16.2267 21.9408 16.1667 21.7542 16.1C21.6742 16.0733 21.6075 16.0267 21.5542 15.96C21.4875 15.8933 21.4208 15.8267 21.3542 15.76C21.4608 15.6 21.5608 15.4467 21.6542 15.3C21.7475 15.1533 21.8475 15.0133 21.9542 14.88C22.1275 14.6667 22.3075 14.4667 22.4942 14.28C22.6675 14.08 22.8475 13.88 23.0342 13.68C23.1408 13.5733 23.2475 13.4667 23.3542 13.36C23.4608 13.2533 23.5608 13.14 23.6542 13.02C23.8675 12.7133 24.1142 12.46 24.3942 12.26C24.0875 12.3533 23.8075 12.3867 23.5542 12.36C23.3142 12.3333 23.0608 12.3333 22.7942 12.36C22.7408 12.28 22.6875 12.2067 22.6342 12.14C22.5808 12.06 22.5408 11.9867 22.5142 11.92C22.5408 11.8133 22.5742 11.7133 22.6142 11.62C22.6408 11.5267 22.6675 11.44 22.6942 11.36C22.7342 11.3067 22.7742 11.26 22.8142 11.22C22.8542 11.18 22.8875 11.1267 22.9142 11.06C23.0208 11.02 23.1275 10.9733 23.2342 10.92C23.3408 10.8667 23.4542 10.8267 23.5742 10.8C23.7608 10.76 23.9408 10.7067 24.1142 10.64C24.3008 10.5733 24.4875 10.5 24.6742 10.42C25.1675 10.1933 25.6675 10.04 26.1742 9.96C26.4675 9.89334 26.7275 9.74667 26.9542 9.52C27.4208 9.05334 27.8808 8.58667 28.3342 8.12C28.8008 7.65334 29.2608 7.18 29.7142 6.7C30.0075 6.40667 30.3008 6.11334 30.5942 5.82C30.8875 5.52667 31.1675 5.22667 31.4342 4.92C31.5942 4.72 31.7675 4.52667 31.9542 4.34C32.1408 4.15334 32.3275 3.96667 32.5142 3.78C32.7542 3.58 32.9608 3.36667 33.1342 3.14C33.3075 2.91334 33.5075 2.7 33.7342 2.5C33.9475 2.3 34.1542 2.09334 34.3542 1.88C34.5675 1.66667 34.7742 1.45334 34.9742 1.24C35.1742 1.02667 35.3808 0.866671 35.5942 0.760005C35.8208 0.653338 36.0608 0.573337 36.3142 0.520004C36.5008 0.466671 36.6808 0.420004 36.8542 0.380005C37.0408 0.326671 37.2275 0.226671 37.4142 0.0800037C37.4408 0.0533374 37.4675 0.0400043 37.4942 0.0400043C37.5208 0.0400043 37.5608 0.0266707 37.6142 3.57628e-06C37.6008 0.066671 37.5875 0.126671 37.5742 0.180004C37.5742 0.233337 37.5675 0.293337 37.5542 0.360004C38.3142 0.480004 38.8808 0.840004 39.2542 1.44C39.1875 1.57334 39.1208 1.70667 39.0542 1.84C39.0008 1.97334 38.9275 2.11334 38.8342 2.26C38.6875 2.47334 38.5542 2.68667 38.4342 2.9C38.3275 3.11334 38.2008 3.32667 38.0542 3.54C37.9208 3.74 37.7875 3.94 37.6542 4.14C37.5342 4.34 37.4275 4.54667 37.3342 4.76C37.2675 4.89334 37.1808 5.01334 37.0742 5.12C36.9808 5.22667 36.9008 5.35334 36.8342 5.5C36.7008 5.72667 36.5675 5.96 36.4342 6.2C36.3142 6.44 36.1408 6.65334 35.9142 6.84C35.9275 6.88 35.9408 6.92 35.9542 6.96C35.9675 6.98667 35.9808 7.02667 35.9942 7.08C35.9008 7.13334 35.8408 7.21334 35.8142 7.32C35.7875 7.42667 35.7075 7.51334 35.5742 7.58C35.5875 7.56667 35.6008 7.56 35.6142 7.56C35.5875 7.53334 35.5742 7.51334 35.5742 7.5C35.5742 7.48667 35.5608 7.47334 35.5342 7.46C35.5208 7.47334 35.5142 7.48667 35.5142 7.5C35.5142 7.51334 35.5342 7.54 35.5742 7.58C35.5208 7.60667 35.4675 7.64 35.4142 7.68C35.3608 7.72 35.3075 7.76667 35.2542 7.82C35.2142 7.87334 35.1742 7.93334 35.1342 8C35.1075 8.05334 35.0742 8.11334 35.0342 8.18C35.0075 8.23334 34.9742 8.28667 34.9342 8.34C34.8942 8.39334 34.8608 8.45334 34.8342 8.52H34.9742C35.0142 8.50667 35.0408 8.48 35.0542 8.44C35.0675 8.4 35.0808 8.36 35.0942 8.32C35.1075 8.28 35.1208 8.24667 35.1342 8.22C35.1608 8.18 35.2075 8.16 35.2742 8.16C35.2475 8.21334 35.2275 8.26667 35.2142 8.32C35.2142 8.36 35.2008 8.40667 35.1742 8.46C35.2142 8.51334 35.2608 8.54 35.3142 8.54C35.3808 8.54 35.4475 8.53334 35.5142 8.52C35.5808 8.49334 35.6408 8.47334 35.6942 8.46C35.7608 8.43334 35.8208 8.44 35.8742 8.48C35.8875 8.49334 35.9142 8.48667 35.9542 8.46C35.9942 8.42 36.0208 8.4 36.0342 8.4C36.1675 8.50667 36.3208 8.55334 36.4942 8.54C36.6808 8.51334 36.8542 8.50667 37.0142 8.52C37.4008 8.53334 37.7342 8.66 38.0142 8.9C38.0008 8.95334 37.9875 9.00667 37.9742 9.06C37.9608 9.1 37.9408 9.15334 37.9142 9.22C37.7675 9.20667 37.6208 9.19334 37.4742 9.18C37.3408 9.15334 37.2075 9.13334 37.0742 9.12C36.9275 9.10667 36.7742 9.10667 36.6142 9.12C36.4675 9.12 36.3075 9.12 36.1342 9.12C36.1608 9.16 36.1808 9.19334 36.1942 9.22C36.2075 9.24667 36.2208 9.27334 36.2342 9.3C36.1142 9.35334 36.0075 9.38 35.9142 9.38C35.8208 9.36667 35.7275 9.34667 35.6342 9.32C35.5408 9.29334 35.4475 9.27334 35.3542 9.26C35.2742 9.23334 35.1808 9.22667 35.0742 9.24C35.0475 9.28 35.0275 9.31334 35.0142 9.34C35.0008 9.36667 34.9808 9.40667 34.9542 9.46C34.9275 9.46 34.8875 9.46667 34.8342 9.48C34.7942 9.48 34.7475 9.48 34.6942 9.48C34.6408 9.53334 34.5808 9.58667 34.5142 9.64C34.4608 9.69334 34.4275 9.74667 34.4142 9.8C34.3208 10.0667 34.1942 10.32 34.0342 10.56C33.8875 10.8 33.7608 11.0533 33.6542 11.32C33.6008 11.4533 33.5342 11.58 33.4542 11.7C33.3875 11.82 33.3142 11.9533 33.2342 12.1C33.2075 11.98 33.2208 11.86 33.2742 11.74C33.3275 11.62 33.3675 11.5 33.3942 11.38C33.4208 11.3533 33.4542 11.3333 33.4942 11.32C33.5342 11.2933 33.5608 11.2667 33.5742 11.24C33.6008 11.0933 33.6475 10.9467 33.7142 10.8C33.7942 10.6533 33.8808 10.5067 33.9742 10.36C34.0408 10.24 34.1142 10.12 34.1942 10C34.2875 9.86667 34.3342 9.72667 34.3342 9.58C34.3342 9.59334 34.3408 9.6 34.3542 9.6C34.3675 9.58667 34.3808 9.58 34.3942 9.58C34.4208 9.56667 34.4475 9.54667 34.4742 9.52C34.4342 9.52 34.4275 9.50667 34.4542 9.48C34.4275 9.50667 34.4075 9.52667 34.3942 9.54C34.3808 9.55334 34.3608 9.56667 34.3342 9.58C34.3075 9.60667 34.2875 9.62 34.2742 9.62C34.2608 9.62 34.2408 9.62667 34.2142 9.64C34.0542 9.93334 33.8942 10.22 33.7342 10.5C33.5742 10.78 33.4608 11.0733 33.3942 11.38C33.3675 11.4067 33.3408 11.4267 33.3142 11.44C33.2875 11.44 33.2742 11.4533 33.2742 11.48C33.2342 11.5467 33.2008 11.62 33.1742 11.7C33.1608 11.7667 33.1408 11.8333 33.1142 11.9C33.0475 12.2067 32.9475 12.5067 32.8142 12.8C32.6942 13.0933 32.5608 13.3867 32.4142 13.68C32.4008 13.72 32.3875 13.7667 32.3742 13.82C32.3608 13.8733 32.3942 13.9 32.4742 13.9ZM27.8942 8.76C27.9075 8.76 27.9142 8.76667 27.9142 8.78C27.9408 8.75334 27.9608 8.74 27.9742 8.74C28.0008 8.72667 28.0275 8.70667 28.0542 8.68C28.0542 8.68 28.0408 8.66667 28.0142 8.64C28.0008 8.66667 27.9808 8.68667 27.9542 8.7C27.9408 8.71334 27.9275 8.73334 27.9142 8.76C27.9008 8.76 27.9008 8.75334 27.9142 8.74C27.9008 8.75334 27.8542 8.78667 27.7742 8.84C27.8142 8.84 27.8208 8.85334 27.7942 8.88C27.8608 8.84 27.8942 8.8 27.8942 8.76ZM28.2542 8.38C28.2542 8.39334 28.2542 8.4 28.2542 8.4C28.2675 8.4 28.2742 8.40667 28.2742 8.42C28.3008 8.39334 28.3408 8.36667 28.3942 8.34C28.3675 8.31334 28.3608 8.3 28.3742 8.3C28.3208 8.32667 28.2875 8.36667 28.2742 8.42C28.2742 8.40667 28.2675 8.4 28.2542 8.4C28.2542 8.4 28.2542 8.39334 28.2542 8.38C28.2142 8.42 28.1742 8.45334 28.1342 8.48C28.1475 8.48 28.1542 8.48667 28.1542 8.5C28.1542 8.5 28.1608 8.5 28.1742 8.5C28.1875 8.48667 28.2008 8.47334 28.2142 8.46C28.2408 8.43334 28.2542 8.40667 28.2542 8.38ZM30.0142 7.44C30.0408 7.49334 30.0675 7.53334 30.0942 7.56L29.8542 7.92C29.8008 7.81334 29.7675 7.74 29.7542 7.7C29.6875 7.76667 29.6275 7.82667 29.5742 7.88C29.5208 7.93334 29.4608 7.99334 29.3942 8.06C29.2742 8.16667 29.1475 8.27334 29.0142 8.38C28.8942 8.48667 28.8008 8.61334 28.7342 8.76C28.6542 8.76 28.6075 8.78667 28.5942 8.84C28.5942 8.89334 28.5808 8.94667 28.5542 9H28.4342C28.4342 8.97334 28.4275 8.96 28.4142 8.96C28.4142 8.94667 28.4208 8.92667 28.4342 8.9C28.3808 8.94 28.3475 8.97334 28.3342 9C28.1342 9.04 28.0208 9.16667 27.9942 9.38C27.9008 9.40667 27.8142 9.44 27.7342 9.48C27.6675 9.52 27.6342 9.61334 27.6342 9.76C27.7142 9.68 27.7742 9.61334 27.8142 9.56C27.8675 9.49334 27.9208 9.42667 27.9742 9.36H28.0942C28.0675 9.42667 28.0342 9.52 27.9942 9.64C28.0875 9.61334 28.1742 9.59334 28.2542 9.58C28.3342 9.56667 28.3875 9.54 28.4142 9.5C28.5208 9.38 28.6408 9.27334 28.7742 9.18C28.9075 9.07334 28.9742 8.93334 28.9742 8.76C29.0808 8.69334 29.1808 8.63334 29.2742 8.58C29.3808 8.51334 29.4542 8.46 29.4942 8.42C29.5742 8.31334 29.6408 8.22 29.6942 8.14C29.7608 8.06 29.8142 7.98667 29.8542 7.92L30.3342 7.56C30.4275 7.56 30.4742 7.53334 30.4742 7.48C30.4742 7.42667 30.4875 7.37334 30.5142 7.32C30.5942 7.26667 30.6408 7.22667 30.6542 7.2C30.6675 7.2 30.6742 7.20667 30.6742 7.22C30.6742 7.22 30.6808 7.22 30.6942 7.22C30.7208 7.19334 30.7608 7.16667 30.8142 7.14C30.8008 7.11334 30.7942 7.1 30.7942 7.1C30.7542 7.12667 30.7142 7.16 30.6742 7.2C30.6475 7.22667 30.5942 7.26667 30.5142 7.32C30.4208 7.33334 30.3742 7.36667 30.3742 7.42C30.3742 7.47334 30.3608 7.52 30.3342 7.56H30.0942C30.0942 7.53334 30.1075 7.49334 30.1342 7.44C30.1875 7.38667 30.2342 7.34 30.2742 7.3C30.3275 7.26 30.3875 7.21334 30.4542 7.16C30.8942 6.73334 31.3342 6.30667 31.7742 5.88C32.2142 5.45334 32.6608 5.02667 33.1142 4.6C33.1408 4.56 33.1675 4.52 33.1942 4.48C33.2208 4.42667 33.2475 4.38 33.2742 4.34C33.3542 4.28667 33.3942 4.27334 33.3942 4.3C33.5675 4.15334 33.7275 4.02667 33.8742 3.92C34.0342 3.8 34.1875 3.68667 34.3342 3.58C34.3475 3.58 34.3542 3.56667 34.3542 3.54C34.3408 3.52667 34.3342 3.51334 34.3342 3.5C33.8942 3.68667 33.5942 3.92667 33.4342 4.22C33.4075 4.24667 33.3542 4.28667 33.2742 4.34C33.0608 4.44667 32.8608 4.58667 32.6742 4.76C32.5008 4.92 32.3208 5.08 32.1342 5.24C31.7475 5.57334 31.3808 5.91334 31.0342 6.26C30.6875 6.59334 30.3542 6.94667 30.0342 7.32C30.0075 7.34667 29.9742 7.36 29.9342 7.36C29.9475 7.38667 29.9608 7.40667 29.9742 7.42C29.9875 7.42 30.0008 7.42667 30.0142 7.44ZM27.7542 8.94C27.7142 8.96667 27.6742 9 27.6342 9.04C27.6208 9.05334 27.6075 9.06 27.5942 9.06C27.5808 9.08667 27.5742 9.12 27.5742 9.16C27.5875 9.18667 27.5875 9.21334 27.5742 9.24C27.6008 9.2 27.6142 9.17334 27.6142 9.16C27.6275 9.14667 27.6008 9.17334 27.5342 9.24L27.5142 9.22C27.4875 9.24667 27.4475 9.27334 27.3942 9.3C27.3942 9.32667 27.4008 9.34 27.4142 9.34C27.4408 9.32667 27.4675 9.3 27.4942 9.26C27.5342 9.22 27.6208 9.11334 27.7542 8.94ZM35.1342 7.18C35.2142 7.11334 35.2542 7.07334 35.2542 7.06C35.2675 7.03334 35.2608 6.96667 35.2342 6.86C35.2075 6.92667 35.1808 6.98667 35.1542 7.04C35.1408 7.09334 35.1208 7.14667 35.0942 7.2C34.9742 7.22667 34.9208 7.28 34.9342 7.36C34.9475 7.44 34.9408 7.51334 34.9142 7.58C34.8875 7.58 34.8675 7.58 34.8542 7.58C34.8542 7.56667 34.8408 7.56 34.8142 7.56C34.7742 7.65334 34.7208 7.74 34.6542 7.82C34.5875 7.9 34.5142 7.98667 34.4342 8.08C34.3675 8.17334 34.3075 8.27334 34.2542 8.38C34.2142 8.48667 34.2008 8.60667 34.2142 8.74C34.3608 8.51334 34.4875 8.30667 34.5942 8.12C34.7008 7.93334 34.7942 7.74667 34.8742 7.56C35.0075 7.53334 35.0675 7.48 35.0542 7.4C35.0408 7.32 35.0675 7.24667 35.1342 7.18ZM32.4142 9.96C32.4275 9.96 32.4342 9.95334 32.4342 9.94C32.4342 9.92667 32.4275 9.91334 32.4142 9.9C32.4008 9.88667 32.3942 9.86667 32.3942 9.84C32.3675 9.86667 32.3475 9.88 32.3342 9.88C32.3608 9.90667 32.3742 9.92667 32.3742 9.94C32.3875 9.94 32.4075 9.94667 32.4342 9.96C32.3942 10.08 32.3542 10.2 32.3142 10.32C32.2742 10.44 32.2408 10.56 32.2142 10.68H32.0942C32.0808 10.6133 32.0742 10.56 32.0742 10.52C32.0875 10.4667 32.0942 10.4133 32.0942 10.36C32.1208 10.3333 32.1475 10.2933 32.1742 10.24C32.2142 10.1867 32.2675 10.1067 32.3342 10C32.2408 10.08 32.1675 10.1467 32.1142 10.2C32.0608 10.24 32.0142 10.2933 31.9742 10.36C31.9342 10.4133 31.8875 10.4867 31.8342 10.58C31.7808 10.6733 31.7075 10.8 31.6142 10.96C31.7342 10.8667 31.7942 10.8267 31.7942 10.84V10.68C31.7675 10.7067 31.7475 10.7333 31.7342 10.76C31.7342 10.7733 31.7742 10.7467 31.8542 10.68H32.0942C31.8008 10.9733 31.7142 11.26 31.8342 11.54C31.7808 11.58 31.7142 11.6267 31.6342 11.68C31.7008 11.7467 31.7142 11.8267 31.6742 11.92C31.6475 12.0133 31.6208 12.16 31.5942 12.36C31.5675 12.2533 31.5542 12.1667 31.5542 12.1C31.5542 12.02 31.5475 11.9267 31.5342 11.82C31.4275 11.9533 31.3808 12.0533 31.3942 12.12C31.4075 12.1733 31.4875 12.1667 31.6342 12.1C31.6608 12.0733 31.6875 12.0533 31.7142 12.04C31.7408 12.0133 31.7608 11.9867 31.7742 11.96C31.8542 11.7333 31.9275 11.52 31.9942 11.32C32.0742 11.1067 32.1475 10.8933 32.2142 10.68C32.3208 10.56 32.3942 10.44 32.4342 10.32C32.4875 10.1867 32.4808 10.0667 32.4142 9.96ZM28.8742 9.48C29.0608 9.45334 29.2542 9.44 29.4542 9.44C29.6675 9.44 29.8675 9.40667 30.0542 9.34C30.3608 9.23334 30.6542 9.17334 30.9342 9.16C31.2142 9.13334 31.5008 9.08667 31.7942 9.02C31.9275 8.99334 32.0542 8.97334 32.1742 8.96C32.2942 8.94667 32.4075 8.90667 32.5142 8.84C32.7408 8.37334 32.9808 7.92667 33.2342 7.5C33.5008 7.07334 33.7475 6.64 33.9742 6.2C34.1875 5.77334 34.4342 5.35334 34.7142 4.94C34.9942 4.51334 35.2275 4.06667 35.4142 3.6L35.1342 3.74C35.1208 3.7 35.1008 3.65334 35.0742 3.6C34.9275 3.72 34.7808 3.83334 34.6342 3.94C34.4875 4.04667 34.3608 4.16 34.2542 4.28C34.1075 4.46667 33.9475 4.62 33.7742 4.74C33.6008 4.84667 33.4275 4.96667 33.2542 5.1C33.1475 5.18 33.0342 5.25334 32.9142 5.32C32.8075 5.37334 32.7008 5.46667 32.5942 5.6C32.5275 5.70667 32.4275 5.80667 32.2942 5.9C32.1742 5.98 32.0608 6.07334 31.9542 6.18C31.6875 6.47334 31.4075 6.75334 31.1142 7.02C30.8342 7.27334 30.5608 7.54 30.2942 7.82C30.0542 8.07334 29.8208 8.32667 29.5942 8.58C29.3808 8.83334 29.1608 9.09334 28.9342 9.36C28.8942 9.4 28.8808 9.44 28.8942 9.48C28.8808 9.48 28.8742 9.47334 28.8742 9.46C28.8475 9.48667 28.8275 9.50667 28.8142 9.52C28.8008 9.52 28.7808 9.52667 28.7542 9.54C28.7808 9.56667 28.7875 9.58 28.7742 9.58C28.8142 9.55334 28.8475 9.52 28.8742 9.48ZM35.3542 5.68C35.3275 5.68 35.3075 5.68 35.2942 5.68C35.2942 5.66667 35.2808 5.66 35.2542 5.66C35.1342 5.86 35.0075 6.06 34.8742 6.26C34.7408 6.46 34.6142 6.66 34.4942 6.86C34.2275 7.35334 33.9142 7.84667 33.5542 8.34C33.5142 8.40667 33.4875 8.48 33.4742 8.56C33.4742 8.64 33.4542 8.74 33.4142 8.86C33.5208 8.79334 33.6075 8.74 33.6742 8.7C33.7542 8.64667 33.8008 8.60667 33.8142 8.58C33.8808 8.39334 33.9742 8.21334 34.0942 8.04C34.2142 7.85334 34.3208 7.66667 34.4142 7.48C34.5342 7.24 34.6475 7.00667 34.7542 6.78C34.8608 6.54 35.0075 6.30667 35.1942 6.08C35.2475 6.02667 35.2808 5.96667 35.2942 5.9C35.3075 5.82 35.3275 5.74667 35.3542 5.68ZM31.8742 13.4C31.9142 13.2933 31.9608 13.1933 32.0142 13.1C32.0808 13.0067 32.1475 12.9133 32.2142 12.82C32.2808 12.7 32.3275 12.58 32.3542 12.46C32.3808 12.34 32.4142 12.22 32.4542 12.1C32.4542 12.06 32.4742 12.02 32.5142 11.98C32.6342 11.82 32.7275 11.6533 32.7942 11.48C32.8742 11.2933 32.9608 11.1133 33.0542 10.94C33.1608 10.7533 33.2608 10.5733 33.3542 10.4C33.4608 10.2133 33.5808 10.0333 33.7142 9.86C33.7675 9.78 33.7875 9.74 33.7742 9.74C33.7608 9.72667 33.7275 9.72 33.6742 9.72C33.5942 9.72 33.5208 9.72667 33.4542 9.74C33.4275 9.78 33.4142 9.82 33.4142 9.86C33.4142 9.9 33.4008 9.93334 33.3742 9.96C33.2408 10.2133 33.1008 10.4667 32.9542 10.72C32.8208 10.96 32.7208 11.2133 32.6542 11.48C32.6542 11.5067 32.6342 11.54 32.5942 11.58C32.4075 11.8867 32.2475 12.1933 32.1142 12.5C31.9942 12.7933 31.9142 13.0933 31.8742 13.4ZM32.9142 8.72C32.9542 8.72 32.9875 8.73334 33.0142 8.76C33.1742 8.48 33.3275 8.2 33.4742 7.92C33.6342 7.64 33.7875 7.36 33.9342 7.08C34.0275 6.92 34.1208 6.76 34.2142 6.6C34.3208 6.42667 34.4142 6.26 34.4942 6.1C34.5075 6.08667 34.4942 6.06 34.4542 6.02C34.3608 6.08667 34.3142 6.12 34.3142 6.12C34.0608 6.58667 33.8208 7.03334 33.5942 7.46C33.3675 7.87334 33.1408 8.29334 32.9142 8.72ZM32.9542 9.94C32.9275 9.96667 32.8942 9.99334 32.8542 10.02C32.8142 10.0333 32.7742 10.0533 32.7342 10.08C32.5875 10.2 32.5008 10.34 32.4742 10.5C32.4475 10.66 32.3675 10.8067 32.2342 10.94C32.1808 10.9933 32.1475 11.0667 32.1342 11.16C32.1342 11.2533 32.1075 11.3667 32.0542 11.5C32.2675 11.22 32.4208 10.9533 32.5142 10.7C32.6075 10.4333 32.7542 10.18 32.9542 9.94ZM31.6342 12.92H31.7342C31.7608 12.84 31.7808 12.7667 31.7942 12.7C31.8075 12.62 31.8275 12.54 31.8542 12.46C31.8808 12.38 31.9075 12.3 31.9342 12.22C31.9742 12.1267 31.9808 12.0267 31.9542 11.92C31.8875 12.12 31.8275 12.3 31.7742 12.46C31.7208 12.62 31.6742 12.7733 31.6342 12.92ZM31.1342 12.2C31.2008 12.1067 31.2542 12.0133 31.2942 11.92C31.3475 11.8267 31.3542 11.7333 31.3142 11.64C31.2875 11.7467 31.2542 11.8467 31.2142 11.94C31.1875 12.02 31.1608 12.1067 31.1342 12.2ZM32.0142 11.72H32.1142V11.52C32.1008 11.52 32.0875 11.5267 32.0742 11.54L32.0142 11.72ZM30.9942 13.4C31.0342 13.4 31.0675 13.3933 31.0942 13.38V13.2H31.0542C31.0408 13.2267 31.0275 13.26 31.0142 13.3C31.0142 13.34 31.0075 13.3733 30.9942 13.4ZM31.2942 13.52C31.3475 13.52 31.3875 13.5133 31.4142 13.5V13.32H31.3542C31.3408 13.3467 31.3275 13.38 31.3142 13.42C31.3142 13.46 31.3075 13.4933 31.2942 13.52ZM31.3142 13.68H31.2142V13.88H31.2542C31.2675 13.8533 31.2742 13.82 31.2742 13.78C31.2875 13.74 31.3008 13.7067 31.3142 13.68ZM34.5542 3.26H34.5142C34.4875 3.31334 34.4742 3.35334 34.4742 3.38H34.5142C34.5142 3.35334 34.5275 3.31334 34.5542 3.26ZM30.6942 6.06C30.6808 6.07334 30.6742 6.08667 30.6742 6.1H30.7942C30.8075 6.07334 30.8142 6.06 30.8142 6.06H30.6942ZM30.5942 6.24H30.5542C30.5408 6.26667 30.5342 6.28667 30.5342 6.3C30.5342 6.31334 30.5275 6.33334 30.5142 6.36H30.5542C30.5675 6.33334 30.5742 6.31334 30.5742 6.3C30.5742 6.28667 30.5808 6.26667 30.5942 6.24ZM31.0542 6.76V6.8H31.1742V6.76H31.0542ZM28.6142 8.12V8.08H28.4942V8.12H28.6142ZM28.7742 8.4H28.8142C28.8275 8.37334 28.8342 8.35334 28.8342 8.34C28.8342 8.32667 28.8408 8.30667 28.8542 8.28H28.8142C28.8008 8.30667 28.7942 8.32667 28.7942 8.34C28.7942 8.35334 28.7875 8.37334 28.7742 8.4ZM28.6542 8.52H28.6142C28.6142 8.54667 28.6008 8.58667 28.5742 8.64H28.6142C28.6408 8.58667 28.6542 8.54667 28.6542 8.52ZM35.7742 9.12H35.7342C35.7075 9.17334 35.6942 9.21334 35.6942 9.24H35.7342C35.7342 9.21334 35.7475 9.17334 35.7742 9.12ZM29.9942 10.2H30.0342C30.0608 10.1467 30.0742 10.1067 30.0742 10.08H30.0342C30.0342 10.1067 30.0208 10.1467 29.9942 10.2ZM28.6742 10.56H28.7142C28.7408 10.5067 28.7542 10.4667 28.7542 10.44H28.7142C28.7142 10.4667 28.7008 10.5067 28.6742 10.56ZM32.6742 10.78H32.7142C32.7275 10.7533 32.7342 10.74 32.7342 10.74C32.7342 10.7267 32.7408 10.7067 32.7542 10.68H32.7142C32.7008 10.7067 32.6942 10.7267 32.6942 10.74C32.6942 10.74 32.6875 10.7533 32.6742 10.78ZM31.6542 11.16H31.6142C31.6008 11.1867 31.5942 11.2067 31.5942 11.22C31.5942 11.2333 31.5875 11.2533 31.5742 11.28H31.6142C31.6275 11.2533 31.6342 11.2333 31.6342 11.22C31.6342 11.2067 31.6408 11.1867 31.6542 11.16ZM46.3143 9.3C46.5543 9.02 46.801 8.75334 47.0543 8.5C47.081 8.47334 47.1143 8.46 47.1543 8.46C47.1943 8.46 47.2277 8.46 47.2543 8.46V8.58L47.1343 8.7L47.0143 8.82L46.8943 8.94C46.841 8.99334 46.8077 9.03334 46.7943 9.06L46.7743 9.04C46.7343 9.08 46.701 9.10667 46.6743 9.12C46.701 9.14667 46.7143 9.16 46.7143 9.16C46.7277 9.13334 46.741 9.12 46.7543 9.12C46.7677 9.10667 46.781 9.08667 46.7943 9.06C46.8077 9.03334 46.841 8.99334 46.8943 8.94L47.0143 8.82L47.1343 8.7L47.2543 8.58L47.3743 8.46C47.4277 8.43334 47.461 8.42 47.4743 8.42C47.461 8.39334 47.4277 8.36667 47.3743 8.34C47.481 8.22 47.5877 8.1 47.6943 7.98C47.801 7.86 47.9077 7.74667 48.0143 7.64C48.1343 7.52 48.2343 7.39334 48.3143 7.26C48.4077 7.11334 48.5077 6.96667 48.6143 6.82C48.7877 6.58 48.921 6.32667 49.0143 6.06C49.121 5.79334 49.2543 5.52667 49.4143 5.26C49.4143 5.16667 49.4077 5.06667 49.3943 4.96C49.381 4.85334 49.3877 4.74667 49.4143 4.64C49.441 4.50667 49.4277 4.36667 49.3743 4.22C49.321 4.07334 49.241 3.94 49.1343 3.82C49.041 3.7 48.9277 3.59334 48.7943 3.5C48.661 3.40667 48.5343 3.34667 48.4143 3.32C48.161 3.25334 47.9143 3.18 47.6743 3.1C47.4343 3.02 47.1743 2.96667 46.8943 2.94C46.681 2.92667 46.5143 2.91334 46.3943 2.9C46.2743 2.88667 46.161 2.88667 46.0543 2.9C45.9477 2.9 45.8277 2.91334 45.6943 2.94C45.5743 2.96667 45.4077 3.00667 45.1943 3.06C45.0743 3.08667 44.9477 3.09334 44.8143 3.08C44.6943 3.06667 44.581 3.10667 44.4743 3.2C44.2343 3.17334 44.0077 3.20667 43.7943 3.3C43.581 3.39334 43.361 3.44667 43.1343 3.46C42.921 3.48667 42.7143 3.55334 42.5143 3.66C42.3143 3.76667 42.1143 3.86 41.9143 3.94C41.0477 4.3 40.261 4.76667 39.5543 5.34C39.3543 5.38 39.221 5.48 39.1543 5.64C39.0877 5.8 39.001 5.94667 38.8943 6.08C38.8543 6.12 38.8143 6.16667 38.7743 6.22C38.7477 6.26 38.7143 6.31334 38.6743 6.38C38.6077 6.60667 38.6077 6.82667 38.6743 7.04C38.7543 7.24 38.8477 7.45334 38.9543 7.68C38.7277 7.77334 38.5277 7.78 38.3543 7.7C38.1943 7.62 38.0543 7.52667 37.9343 7.42C37.6677 7.19334 37.461 6.94 37.3143 6.66C37.1677 6.36667 37.0943 6.04 37.0943 5.68C37.0943 5.6 37.1077 5.52667 37.1343 5.46C37.161 5.38 37.1877 5.30667 37.2143 5.24C37.361 4.89334 37.5543 4.59334 37.7943 4.34C38.0477 4.07334 38.3077 3.82667 38.5743 3.6C38.801 3.41334 39.041 3.24 39.2943 3.08C39.5477 2.92 39.8143 2.78 40.0943 2.66C40.321 2.56667 40.541 2.47334 40.7543 2.38C40.9677 2.28667 41.1877 2.20667 41.4143 2.14C41.561 2.1 41.701 2.04 41.8343 1.96C41.981 1.88 42.141 1.84 42.3143 1.84C42.461 1.85334 42.5943 1.82667 42.7143 1.76C42.8477 1.69334 42.9877 1.66 43.1343 1.66C43.4677 1.66 43.7943 1.62667 44.1143 1.56C44.4343 1.49334 44.7677 1.48 45.1143 1.52C45.2743 1.54667 45.4343 1.54667 45.5943 1.52C46.1543 1.46667 46.6677 1.54 47.1343 1.74C47.601 1.92667 48.0543 2.16667 48.4943 2.46C48.641 2.56667 48.7943 2.68 48.9543 2.8C49.1143 2.90667 49.2677 3.02 49.4143 3.14C49.6677 3.32667 49.8543 3.56 49.9743 3.84C50.1077 4.10667 50.2277 4.38 50.3343 4.66C50.361 4.72667 50.3677 4.79334 50.3543 4.86C50.3543 4.92667 50.361 4.99334 50.3743 5.06C50.3877 5.14 50.3877 5.22 50.3743 5.3C50.361 5.36667 50.3877 5.43334 50.4543 5.5C50.481 5.52667 50.4877 5.57334 50.4743 5.64C50.4743 5.69334 50.4743 5.74 50.4743 5.78C50.461 5.83334 50.441 5.88 50.4143 5.92C50.3877 5.96 50.3743 6 50.3743 6.04C50.3477 6.38667 50.2743 6.7 50.1543 6.98C50.0343 7.26 49.861 7.54 49.6343 7.82C49.5543 7.92667 49.4743 8.02667 49.3943 8.12C49.3143 8.21334 49.2477 8.31334 49.1943 8.42C49.1277 8.52667 49.041 8.60667 48.9343 8.66C48.8277 8.7 48.761 8.79334 48.7343 8.94C48.721 9.00667 48.661 9.06 48.5543 9.1C48.4477 9.12667 48.381 9.17334 48.3543 9.24C48.3143 9.32 48.2743 9.38667 48.2343 9.44C48.1943 9.48 48.1343 9.51334 48.0543 9.54C47.9877 9.56667 47.9277 9.61334 47.8743 9.68C47.821 9.74667 47.7677 9.80667 47.7143 9.86C47.4877 10.0867 47.1877 10.3267 46.8143 10.58C46.4543 10.82 46.101 11.0333 45.7543 11.22C45.5677 11.3267 45.3877 11.4333 45.2143 11.54C45.0543 11.6333 44.881 11.7267 44.6943 11.82C44.4677 11.94 44.241 12.0333 44.0143 12.1C43.7877 12.1533 43.561 12.2133 43.3343 12.28C43.241 12.3067 43.141 12.34 43.0343 12.38C42.941 12.4067 42.861 12.4067 42.7943 12.38C42.7277 12.34 42.6543 12.3267 42.5743 12.34C42.5077 12.3533 42.441 12.34 42.3743 12.3C42.3077 12.2467 42.221 12.2333 42.1143 12.26C42.021 12.2867 41.9277 12.26 41.8343 12.18C41.7677 12.1267 41.681 12.1133 41.5743 12.14C41.481 12.1667 41.401 12.12 41.3343 12C41.2943 12.1067 41.221 12.2667 41.1143 12.48C41.0077 12.6933 40.901 12.92 40.7943 13.16C40.6877 13.3867 40.5877 13.6067 40.4943 13.82C40.401 14.02 40.3343 14.1667 40.2943 14.26C40.2143 14.4467 40.1477 14.64 40.0943 14.84C40.0543 15.04 39.9877 15.2333 39.8943 15.42C39.7477 15.7 39.6343 15.9933 39.5543 16.3C39.4743 16.5933 39.3677 16.8867 39.2343 17.18C39.1677 17.3267 39.1743 17.46 39.2543 17.58C39.3343 17.7133 39.4077 17.86 39.4743 18.02C39.4343 18.0467 39.3477 18.0867 39.2143 18.14C39.041 18.18 38.881 18.18 38.7343 18.14C38.601 18.1 38.4743 18.0333 38.3543 17.94C38.2343 17.86 38.121 17.76 38.0143 17.64C37.9077 17.5333 37.7943 17.4267 37.6743 17.32C37.6477 17.1333 37.6143 16.9467 37.5743 16.76C37.5343 16.5733 37.541 16.3733 37.5943 16.16C37.6477 15.96 37.7343 15.7 37.8543 15.38C37.9743 15.06 38.101 14.7333 38.2343 14.4C38.381 14.0667 38.5143 13.7467 38.6343 13.44C38.7677 13.12 38.8677 12.86 38.9343 12.66C39.001 12.5 39.0743 12.3467 39.1543 12.2C39.2343 12.04 39.3077 11.8733 39.3743 11.7C39.641 11.06 39.9277 10.4333 40.2343 9.82C40.5543 9.20667 40.8677 8.59334 41.1743 7.98C41.3343 7.64667 41.5077 7.32667 41.6943 7.02C41.8943 6.7 42.1143 6.4 42.3543 6.12C42.4743 5.97334 42.5743 5.82 42.6543 5.66C42.7477 5.5 42.8477 5.34 42.9543 5.18C43.1143 4.88667 43.281 4.60667 43.4543 4.34C43.641 4.07334 43.8343 3.82667 44.0343 3.6C44.4477 3.52 44.8077 3.46 45.1143 3.42C45.2343 3.5 45.341 3.58 45.4343 3.66C45.5277 3.72667 45.621 3.79334 45.7143 3.86C45.8077 3.94 45.8877 4.02667 45.9543 4.12C46.0343 4.2 46.121 4.28 46.2143 4.36C46.1477 4.53334 46.0677 4.68667 45.9743 4.82C45.8943 4.95334 45.801 5.08 45.6943 5.2C45.3877 5.49334 45.1077 5.80667 44.8543 6.14C44.6143 6.46 44.3743 6.78667 44.1343 7.12C43.9343 7.4 43.7543 7.69334 43.5943 8C43.4343 8.30667 43.2543 8.6 43.0543 8.88C42.8277 9.18667 42.6277 9.50667 42.4543 9.84C42.2943 10.1733 42.101 10.4867 41.8743 10.78V10.92C41.9677 10.9467 42.021 10.96 42.0343 10.96C42.381 10.88 42.7277 10.8 43.0743 10.72C43.4343 10.6267 43.7677 10.4733 44.0743 10.26C44.181 10.1933 44.2877 10.16 44.3943 10.16C44.501 10.1467 44.6077 10.12 44.7143 10.08C44.9677 10.0133 45.1943 9.91334 45.3943 9.78C45.6077 9.64667 45.821 9.51334 46.0343 9.38C46.0877 9.35334 46.181 9.32667 46.3143 9.3V9.42L46.2943 9.4C46.2677 9.41334 46.2477 9.42667 46.2343 9.44C46.2343 9.45334 46.221 9.46667 46.1943 9.48L46.2343 9.52C46.2477 9.49334 46.261 9.48 46.2743 9.48C46.2877 9.46667 46.301 9.44667 46.3143 9.42C46.341 9.39334 46.3677 9.38 46.3943 9.38C46.381 9.35334 46.3677 9.34 46.3543 9.34C46.341 9.32667 46.3277 9.31334 46.3143 9.3ZM48.9543 7.52L48.9143 7.48C48.901 7.50667 48.8877 7.52667 48.8743 7.54C48.861 7.54 48.8477 7.54667 48.8343 7.56C48.8477 7.58667 48.8543 7.6 48.8543 7.6C48.8943 7.58667 48.9143 7.54667 48.9143 7.48L48.9543 7.52C48.9677 7.49334 48.981 7.48 48.9943 7.48C49.0077 7.46667 49.021 7.44667 49.0343 7.42C49.021 7.40667 49.0077 7.4 48.9943 7.4C48.9677 7.42667 48.9543 7.46667 48.9543 7.52ZM38.6343 14.92C38.541 15 38.4943 15.04 38.4943 15.04L38.5543 15.22C38.5677 15.18 38.5677 15.1667 38.5543 15.18C38.541 15.18 38.4743 15.2867 38.3543 15.5C38.4477 15.42 38.4943 15.38 38.4943 15.38C38.4677 15.3 38.4477 15.2467 38.4343 15.22C38.421 15.2467 38.421 15.26 38.4343 15.26C38.4477 15.26 38.5143 15.1467 38.6343 14.92ZM45.8343 10.84C45.8743 10.8267 45.921 10.8267 45.9743 10.84C46.0277 10.8533 46.0543 10.8133 46.0543 10.72L46.0743 10.74C46.101 10.7267 46.1143 10.7133 46.1143 10.7C46.1277 10.6867 46.1477 10.6733 46.1743 10.66L46.1343 10.62C46.121 10.6467 46.1077 10.6667 46.0943 10.68C46.081 10.68 46.0743 10.6933 46.0743 10.72H45.8343L45.9543 10.48C45.9943 10.48 46.041 10.4867 46.0943 10.5C46.1477 10.5 46.181 10.4533 46.1943 10.36L46.3143 10.24C46.501 10.2667 46.6143 10.1867 46.6543 10L46.6743 10.02C46.701 10.0067 46.7143 9.99334 46.7143 9.98C46.7277 9.96667 46.7477 9.95334 46.7743 9.94L46.7343 9.9C46.721 9.92667 46.7077 9.94667 46.6943 9.96C46.681 9.97334 46.6677 9.99334 46.6543 10.02C46.4677 9.99334 46.3543 10.0667 46.3143 10.24L46.1943 10.36H45.9543C45.941 10.2667 45.9077 10.2267 45.8543 10.24C45.801 10.2533 45.7543 10.2533 45.7143 10.24C45.7143 10.2133 45.7143 10.1933 45.7143 10.18C45.7143 10.1533 45.7077 10.1067 45.6943 10.04C45.7077 10.0667 45.7143 10.1 45.7143 10.14C45.821 10.1133 45.8943 10.1 45.9343 10.1V10.02C45.8943 10.02 45.8543 10.0267 45.8143 10.04C45.7743 10.04 45.741 10.0667 45.7143 10.12C45.661 10.1333 45.6077 10.14 45.5543 10.14C45.501 10.1267 45.4743 10.1933 45.4743 10.34V10.24C45.4343 10.2533 45.3943 10.26 45.3543 10.26C45.3143 10.26 45.2743 10.2667 45.2343 10.28V10.36C45.3277 10.36 45.4077 10.32 45.4743 10.24H45.7143L45.5943 10.48L44.9943 10.6C44.9943 10.5467 44.9877 10.5067 44.9743 10.48C44.9877 10.4933 44.9943 10.5 44.9943 10.5C45.021 10.4867 45.0543 10.46 45.0943 10.42C45.0943 10.42 45.081 10.4067 45.0543 10.38C45.041 10.4067 45.0277 10.4267 45.0143 10.44C45.0143 10.44 45.0077 10.4533 44.9943 10.48C44.8877 10.5067 44.8077 10.52 44.7543 10.52C44.7677 10.5467 44.7743 10.5733 44.7743 10.6H44.9943C44.9677 10.72 44.9143 10.7667 44.8343 10.74C44.7543 10.7133 44.681 10.7133 44.6143 10.74C44.6277 10.7267 44.6343 10.72 44.6343 10.72C44.621 10.6933 44.5943 10.66 44.5543 10.62C44.5543 10.62 44.541 10.6333 44.5143 10.66C44.541 10.6733 44.561 10.6867 44.5743 10.7C44.5877 10.7133 44.6077 10.72 44.6343 10.72L44.5143 10.96H44.2743C44.261 10.9333 44.2277 10.8933 44.1743 10.84C44.121 10.8933 44.0743 10.9333 44.0343 10.96C43.9677 10.9867 43.8943 10.9933 43.8143 10.98C43.7477 10.9533 43.701 11.02 43.6743 11.18V11.12H43.2143V11.18C43.281 11.18 43.3543 11.18 43.4343 11.18C43.5143 11.1667 43.5943 11.1333 43.6743 11.08H44.0343C43.9943 11.2133 43.901 11.3 43.7543 11.34C43.6743 11.3533 43.601 11.3733 43.5343 11.4C43.4677 11.4267 43.3943 11.4533 43.3143 11.48C43.4077 11.56 43.4877 11.5867 43.5543 11.56C43.621 11.5333 43.6877 11.5133 43.7543 11.5C43.8343 11.4867 43.9077 11.4667 43.9743 11.44C44.1077 11.3733 44.241 11.3333 44.3743 11.32C44.521 11.2933 44.6477 11.2133 44.7543 11.08C44.861 11.0533 44.961 11.0333 45.0543 11.02C45.161 10.9933 45.281 10.9667 45.4143 10.94C45.3743 10.98 45.341 11.02 45.3143 11.06C45.2877 11.1 45.241 11.1533 45.1743 11.22C45.2543 11.2067 45.3143 11.2 45.3543 11.2C45.3943 11.1867 45.441 11.18 45.4943 11.18C45.4677 11.1267 45.4477 11.0867 45.4343 11.06C45.4343 11.02 45.4077 10.9867 45.3543 10.96C45.4743 10.8 45.6343 10.72 45.8343 10.72V10.86C45.821 10.8467 45.8143 10.84 45.8143 10.84C45.7877 10.8533 45.7543 10.88 45.7143 10.92L45.7543 10.96C45.7677 10.9333 45.781 10.9133 45.7943 10.9C45.8077 10.8867 45.821 10.8667 45.8343 10.84ZM41.0543 10.84C41.1343 10.84 41.1677 10.8133 41.1543 10.76C41.1543 10.7067 41.161 10.6533 41.1743 10.6C41.2543 10.6 41.2877 10.5733 41.2743 10.52C41.2743 10.4667 41.281 10.4133 41.2943 10.36C41.3743 10.36 41.4077 10.3333 41.3943 10.28C41.3943 10.2267 41.401 10.1733 41.4143 10.12C41.441 10.0933 41.4743 10.0733 41.5143 10.06C41.5543 10.0333 41.5877 10 41.6143 9.96C41.641 9.92 41.6477 9.88 41.6343 9.84C41.6343 9.8 41.601 9.78 41.5343 9.78C41.5343 9.72667 41.5277 9.67334 41.5143 9.62C41.5143 9.56667 41.561 9.53334 41.6543 9.52L41.6343 9.54C41.6477 9.56667 41.661 9.58667 41.6743 9.6C41.6877 9.6 41.701 9.61334 41.7143 9.64L41.7543 9.6C41.7277 9.58667 41.7077 9.57334 41.6943 9.56C41.6943 9.54667 41.681 9.54 41.6543 9.54V9.3C41.7343 9.28667 41.7677 9.25334 41.7543 9.2C41.7543 9.14667 41.7543 9.09334 41.7543 9.04L41.7743 9.06C41.801 9.04667 41.8143 9.03334 41.8143 9.02C41.8277 9.00667 41.8477 8.99334 41.8743 8.98L41.8343 8.94C41.821 8.96667 41.8077 8.98667 41.7943 9C41.781 9.01334 41.7677 9.03334 41.7543 9.06C41.6743 9.06 41.6343 9.08667 41.6343 9.14C41.6477 9.19334 41.6543 9.24667 41.6543 9.3H41.5343C41.5077 9.11334 41.5343 8.95334 41.6143 8.82C41.6943 8.67334 41.7877 8.53334 41.8943 8.4C41.961 8.33334 41.9943 8.26667 41.9943 8.2C41.9943 8.12 41.9943 8.04667 41.9943 7.98C42.0877 7.96667 42.1277 7.94 42.1143 7.9C42.1143 7.84667 42.1143 7.78667 42.1143 7.72C42.1143 7.73334 42.1143 7.74 42.1143 7.74C42.1277 7.74 42.1343 7.74667 42.1343 7.76L42.2343 7.66C42.221 7.66 42.2143 7.66 42.2143 7.66C42.2143 7.64667 42.2077 7.64 42.1943 7.64C42.1543 7.68 42.1277 7.71334 42.1143 7.74C42.0343 7.75334 41.9943 7.78667 41.9943 7.84C42.0077 7.88 42.0077 7.92667 41.9943 7.98C41.9677 8.03334 41.9343 8.08 41.8943 8.12C41.8543 8.16 41.8143 8.20667 41.7743 8.26C41.5743 8.54 41.3877 8.83334 41.2143 9.14C41.041 9.43334 40.8877 9.73334 40.7543 10.04C40.6077 10.3867 40.4543 10.7267 40.2943 11.06C40.1343 11.3933 39.981 11.7333 39.8343 12.08C39.8077 12.1333 39.781 12.1867 39.7543 12.24C39.7277 12.28 39.721 12.3333 39.7343 12.4C39.681 12.4533 39.6077 12.5667 39.5143 12.74C39.4343 12.9133 39.3477 13.1 39.2543 13.3C39.161 13.5 39.0743 13.6933 38.9943 13.88C38.9143 14.0533 38.8543 14.1667 38.8143 14.22C38.761 14.2867 38.7277 14.3667 38.7143 14.46C38.7143 14.54 38.6743 14.6867 38.5943 14.9C38.6877 14.82 38.7343 14.78 38.7343 14.78C38.721 14.7533 38.7077 14.7267 38.6943 14.7C38.6943 14.6733 38.6877 14.6467 38.6743 14.62C38.661 14.6467 38.6543 14.6733 38.6543 14.7C38.6543 14.7133 38.681 14.6867 38.7343 14.62C38.7877 14.5667 38.861 14.4533 38.9543 14.28C39.0477 14.1067 39.141 13.92 39.2343 13.72C39.3277 13.5067 39.4143 13.3133 39.4943 13.14C39.5877 12.9533 39.6543 12.8333 39.6943 12.78C39.6943 12.7933 39.6677 12.8733 39.6143 13.02C39.5743 13.1533 39.5277 13.3 39.4743 13.46C39.421 13.62 39.3677 13.7733 39.3143 13.92C39.2743 14.0533 39.2543 14.1267 39.2543 14.14C39.281 14.1267 39.3077 14.12 39.3343 14.12C39.3343 14.0933 39.361 14.0067 39.4143 13.86C39.4677 13.7133 39.5277 13.5533 39.5943 13.38C39.661 13.2067 39.721 13.0467 39.7743 12.9C39.8277 12.7533 39.8543 12.6667 39.8543 12.64C39.9477 12.6267 39.9877 12.6 39.9743 12.56C39.961 12.5067 39.961 12.4533 39.9743 12.4C40.001 12.36 40.0277 12.32 40.0543 12.28C40.0943 12.24 40.1277 12.2 40.1543 12.16C40.2477 11.96 40.3477 11.7667 40.4543 11.58C40.561 11.3933 40.641 11.1867 40.6943 10.96C40.7877 10.96 40.8277 10.9333 40.8143 10.88C40.801 10.8267 40.801 10.7733 40.8143 10.72L41.0543 10.6V10.86C41.041 10.8467 41.0343 10.84 41.0343 10.84C41.0077 10.8533 40.9743 10.88 40.9343 10.92L40.9743 10.96C40.9877 10.9333 41.001 10.9133 41.0143 10.9C41.0277 10.8867 41.041 10.8667 41.0543 10.84ZM46.6543 9.66C46.561 9.64667 46.4877 9.66 46.4343 9.7C46.381 9.74 46.341 9.83334 46.3143 9.98V9.88C46.2743 9.89334 46.2343 9.9 46.1943 9.9C46.1543 9.9 46.1143 9.90667 46.0743 9.92V10C46.1677 10 46.2477 9.96667 46.3143 9.9C46.501 9.9 46.6143 9.81334 46.6543 9.64L46.6743 9.66C46.701 9.64667 46.7143 9.63334 46.7143 9.62C46.7277 9.60667 46.7477 9.59334 46.7743 9.58L46.7343 9.54C46.721 9.56667 46.7077 9.58667 46.6943 9.6C46.681 9.61334 46.6677 9.63334 46.6543 9.66ZM44.8743 11.3C44.6343 11.4067 44.3943 11.5067 44.1543 11.6C43.9143 11.68 43.681 11.7733 43.4543 11.88L43.5943 12.02C43.821 11.9267 44.0477 11.8333 44.2743 11.74C44.501 11.6333 44.6877 11.4667 44.8343 11.24C44.8877 11.28 44.9277 11.32 44.9543 11.36C44.9943 11.3867 45.0477 11.4333 45.1143 11.5C45.101 11.42 45.0943 11.36 45.0943 11.32C45.0943 11.28 45.0943 11.2333 45.0943 11.18C45.041 11.2067 44.9943 11.2267 44.9543 11.24C44.9277 11.24 44.901 11.26 44.8743 11.3ZM46.5343 2.46C46.521 2.43334 46.5143 2.4 46.5143 2.36C46.4343 2.38667 46.3677 2.4 46.3143 2.4C46.3143 2.42667 46.321 2.44667 46.3343 2.46H46.5343ZM44.4143 10.38V10.5C44.4677 10.4867 44.5343 10.4667 44.6143 10.44V10.38H44.4143ZM42.3543 11.12V11.18H42.5943V11.12H42.3543ZM42.0143 11.22C42.0277 11.2467 42.0343 11.2867 42.0343 11.34C42.1143 11.3133 42.181 11.2933 42.2343 11.28C42.2343 11.2533 42.2277 11.2333 42.2143 11.22H42.0143ZM42.8343 11.24V11.3H43.0743V11.24H42.8343ZM45.7943 9.78H45.7543V9.9H45.7943V9.78ZM47.0143 9.5V9.46H46.8943V9.5H47.0143ZM47.5743 8.7H47.5343V8.82H47.5743V8.7ZM42.7143 8.74V8.78H42.8343V8.74H42.7143ZM41.9943 8.78V8.74H41.8743V8.78H41.9943ZM41.9943 8.5V8.54H42.1143V8.5H41.9943ZM42.2343 8.3V8.26H42.1143V8.3H42.2343ZM43.1943 11.64V11.6H43.0743V11.64H43.1943ZM48.6943 7.94V7.9H48.5743V7.94H48.6943ZM49.4943 7.14H49.4543V7.26H49.4943V7.14ZM39.1343 14.38H39.1743V14.26H39.1343V14.38ZM43.2743 11.92H43.2343V12.04H43.2743V11.92ZM40.0543 3.32H40.0143V3.44H40.0543V3.32ZM45.2343 10.04V10.08H45.3543V10.04H45.2343ZM46.5343 2.46H46.3343C46.321 2.44667 46.3143 2.42667 46.3143 2.4C46.3677 2.4 46.4343 2.38667 46.5143 2.36C46.5143 2.4 46.521 2.43334 46.5343 2.46Z" fill="white"/>
</svg>
