<svg width="32" height="32" viewBox="0 0 32 32" fill="none" xmlns="http://www.w3.org/2000/svg">
<path fill-rule="evenodd" clip-rule="evenodd" d="M8.53188 15.0199L16.9069 23.3943L12.1948 28.106C12.113 28.1895 12.0154 28.2559 11.9076 28.3012C11.7998 28.3465 11.6841 28.3699 11.5671 28.3699C11.4502 28.3699 11.3345 28.3465 11.2267 28.3012C11.1189 28.2559 11.0213 28.1895 10.9395 28.106L3.82696 20.994C3.74413 20.9114 3.6784 20.8133 3.63355 20.7053C3.5887 20.5973 3.5656 20.4815 3.56557 20.3646C3.5656 20.2476 3.5887 20.1318 3.63355 20.0238C3.6784 19.9158 3.74413 19.8177 3.82696 19.7351L8.53899 15.0234L8.53188 15.0199ZM19.823 3.72959C19.9051 3.64621 20.0029 3.57999 20.1108 3.53479C20.2187 3.48959 20.3346 3.46632 20.4516 3.46632C20.5685 3.46632 20.6844 3.48959 20.7923 3.53479C20.9002 3.57999 20.998 3.64621 21.0801 3.72959L28.1926 10.8416C28.2755 10.9242 28.3412 11.0222 28.386 11.1303C28.4309 11.2383 28.454 11.3541 28.454 11.471C28.454 11.5879 28.4309 11.7037 28.386 11.8117C28.3412 11.9198 28.2755 12.0178 28.1926 12.1004L18.1462 22.1461L9.77123 13.7717L19.8176 3.72603L19.823 3.72959ZM14.4353 28.4438H22.2235C22.4592 28.4438 22.6854 28.5375 22.8521 28.7042C23.0188 28.8709 23.1125 29.097 23.1125 29.3328C23.1125 29.5686 23.0188 29.7947 22.8521 29.9614C22.6854 30.1281 22.4592 30.2218 22.2235 30.2218H11.5547C10.8185 30.2218 10.15 29.9231 9.66988 29.4412L2.55737 22.3292C2.0579 21.8292 1.77734 21.1513 1.77734 20.4446C1.77734 19.7378 2.0579 19.06 2.55737 18.5599L18.5605 2.55789C19.0605 2.05824 19.7384 1.77749 20.4453 1.77734C21.1832 1.77734 21.85 2.07605 22.3301 2.55789L29.4426 9.66989C29.9419 10.1702 30.2221 10.8482 30.2218 11.5549C30.2215 12.2617 29.9406 12.9394 29.4409 13.4392L14.4353 28.4438Z" fill="white"/>
</svg>
