<svg width="68" height="25" viewBox="0 0 68 25" fill="none" xmlns="http://www.w3.org/2000/svg">
<path d="M5.40006 16.47C5.44006 16.57 5.46006 16.67 5.46006 16.77C5.46006 16.87 5.43006 16.97 5.37006 17.07C5.27006 17.19 5.20006 17.33 5.16006 17.49C5.12006 17.63 5.08006 17.77 5.04006 17.91C4.96006 17.75 4.90006 17.64 4.86006 17.58C4.76006 17.8 4.64006 18.02 4.50006 18.24C4.38006 18.46 4.30006 18.69 4.26006 18.93C4.20006 19.17 4.14006 19.42 4.08006 19.68C4.04006 19.92 3.97006 20.15 3.87006 20.37C3.77006 20.59 3.70006 20.82 3.66006 21.06C3.64006 21.3 3.60006 21.53 3.54006 21.75C3.48006 22.01 3.46006 22.27 3.48006 22.53C3.50006 22.81 3.51006 23.09 3.51006 23.37L3.87006 23.73C3.93006 23.95 3.89006 24.11 3.75006 24.21C3.63006 24.33 3.52006 24.44 3.42006 24.54H2.79006C2.51006 24.38 2.26006 24.21 2.04006 24.03C1.82006 23.85 1.63006 23.63 1.47006 23.37C1.33006 23.15 1.22006 22.93 1.14006 22.71C1.06006 22.51 1.01006 22.28 0.990059 22.02C0.990059 21.74 0.980059 21.45 0.960059 21.15C0.960059 20.85 0.980059 20.55 1.02006 20.25C1.08006 19.77 1.16006 19.29 1.26006 18.81C1.36006 18.33 1.51006 17.86 1.71006 17.4C1.89006 17 2.06006 16.59 2.22006 16.17C2.40006 15.75 2.57006 15.31 2.73006 14.85C2.57006 14.89 2.40006 14.92 2.22006 14.94C2.06006 14.96 1.88006 14.99 1.68006 15.03C1.58006 14.97 1.46006 14.91 1.32006 14.85C1.20006 14.79 1.07006 14.73 0.930059 14.67C0.850059 14.57 0.770059 14.47 0.690059 14.37C0.630059 14.27 0.550059 14.17 0.450059 14.07C0.150059 13.69 0.0400586 13.33 0.120059 12.99C0.220059 12.65 0.470059 12.4 0.870059 12.24C1.11006 12.14 1.35006 12.06 1.59006 12C1.83006 11.92 2.06006 11.83 2.28006 11.73C2.50006 11.63 2.73006 11.56 2.97006 11.52C3.23006 11.46 3.48006 11.38 3.72006 11.28C3.78006 11.26 3.85006 11.26 3.93006 11.28C4.03006 11.28 4.13006 11.28 4.23006 11.28C4.65006 10.44 5.07006 9.59996 5.49006 8.75996C5.91006 7.89996 6.35006 7.01996 6.81006 6.11996C6.23006 6.33996 5.66006 6.51996 5.10006 6.65996C4.56006 6.77996 4.01006 6.88996 3.45006 6.98996C3.33006 6.98996 3.25006 6.99996 3.21006 7.01996C2.75006 7.15996 2.40006 7.17996 2.16006 7.07996C1.94006 6.97996 1.71006 6.71996 1.47006 6.29996C1.43006 6.21996 1.39006 6.14996 1.35006 6.08996C1.31006 6.00996 1.27006 5.91996 1.23006 5.81996C1.31006 5.71996 1.34006 5.62996 1.32006 5.54996C1.30006 5.44996 1.27006 5.34996 1.23006 5.24996C1.19006 5.14996 1.20006 5.02996 1.26006 4.88996C1.34006 4.74996 1.41006 4.58996 1.47006 4.40996C1.69006 4.34996 1.91006 4.27996 2.13006 4.19996C2.37006 4.09996 2.62006 4.00996 2.88006 3.92996C3.46006 3.78996 4.03006 3.64996 4.59006 3.50996C5.17006 3.34995 5.75006 3.17995 6.33006 2.99995C6.67006 2.89995 7.02006 2.80995 7.38006 2.72995C7.74006 2.62995 8.11006 2.52995 8.49006 2.42995C8.61006 2.22995 8.72006 2.01996 8.82006 1.79996C8.92006 1.55996 9.07006 1.32996 9.27006 1.10996C9.47006 0.889955 9.69006 0.779955 9.93006 0.779955C10.1901 0.759955 10.4301 0.679955 10.6501 0.539956C11.0901 0.699955 11.4701 0.929955 11.7901 1.22996C12.1101 1.52996 12.4401 1.84996 12.7801 2.18996C12.9601 2.14996 13.1401 2.10996 13.3201 2.06996C13.5201 2.02996 13.7201 1.99995 13.9201 1.97996C14.1401 1.95996 14.3501 1.88996 14.5501 1.76995C14.7501 1.62995 14.9701 1.62995 15.2101 1.76995C15.4301 1.64995 15.6501 1.56996 15.8701 1.52996C16.1101 1.46996 16.3401 1.40995 16.5601 1.34995C16.6401 1.32995 16.7101 1.30995 16.7701 1.28996C16.8301 1.24996 16.9001 1.23996 16.9801 1.25996C17.4601 1.27996 17.9501 1.16995 18.4501 0.929954C18.5301 0.889955 18.6201 0.889955 18.7201 0.929954C18.8201 0.949955 18.9401 0.959956 19.0801 0.959956C19.1001 0.939955 19.1101 0.919955 19.1101 0.899955C19.1101 0.839956 19.1201 0.789956 19.1401 0.749955C19.3401 0.709955 19.5401 0.679955 19.7401 0.659954C19.9401 0.619955 20.1501 0.579955 20.3701 0.539956V0.779955V0.689956C20.3101 0.709955 20.2501 0.719955 20.1901 0.719955C20.1301 0.719955 20.0701 0.729955 20.0101 0.749955V0.869955C20.1301 0.869955 20.2501 0.839955 20.3701 0.779955C20.4501 0.699954 20.5601 0.659954 20.7001 0.659954V0.539956H20.3701C20.4101 0.359956 20.4801 0.299955 20.5801 0.359955C20.7001 0.399955 20.8001 0.399955 20.8801 0.359955C20.9801 0.539955 21.1101 0.619955 21.2701 0.599955C21.4301 0.579955 21.5601 0.549955 21.6601 0.509954C21.9801 0.409955 22.3001 0.329955 22.6201 0.269956C22.9601 0.189956 23.3001 0.149956 23.6401 0.149956C23.6601 0.149956 23.7001 0.0999556 23.7601 -4.43459e-05H24.0601C24.1601 0.199955 24.1701 0.379956 24.0901 0.539956C24.0101 0.699955 23.9001 0.839955 23.7601 0.959956C23.5201 1.15996 23.2601 1.32996 22.9801 1.46995C22.7201 1.60996 22.4401 1.69996 22.1401 1.73995C22.0201 1.77996 21.9001 1.81996 21.7801 1.85995C21.6601 1.89996 21.5201 1.89996 21.3601 1.85995C21.2601 1.81996 21.1501 1.84996 21.0301 1.94996C20.9101 2.02996 20.7901 2.09996 20.6701 2.15995L20.5201 2.00995C20.2601 2.10995 20.0101 2.19995 19.7701 2.27995C19.5301 2.33996 19.2901 2.41996 19.0501 2.51996C18.9701 2.43996 18.9001 2.37996 18.8401 2.33996C18.5601 2.57996 18.2501 2.73995 17.9101 2.81996C17.5701 2.89996 17.2301 3.01996 16.8901 3.17996C16.4901 3.39996 16.0801 3.58996 15.6601 3.74996C15.2401 3.90996 14.8001 4.03996 14.3401 4.13996C14.1401 4.17996 13.9501 4.20996 13.7701 4.22995C13.6101 4.24995 13.4301 4.26995 13.2301 4.28996C13.0701 4.30996 12.9201 4.33996 12.7801 4.37995C12.6401 4.41996 12.4901 4.45996 12.3301 4.49995C12.2301 4.53996 12.1201 4.57996 12.0001 4.61996C11.8801 4.65996 11.7401 4.69996 11.5801 4.73996C11.4401 4.85996 11.3101 5.00996 11.1901 5.18995C11.0701 5.36996 10.9501 5.56996 10.8301 5.78996C10.4501 6.44996 10.0701 7.09996 9.69006 7.73996C9.31006 8.37996 8.98006 9.04996 8.70006 9.74996C8.64006 9.88996 8.55006 10.03 8.43006 10.17C8.33006 10.29 8.21006 10.45 8.07006 10.65C8.29006 10.59 8.47006 10.53 8.61006 10.47C8.75006 10.41 8.88006 10.39 9.00006 10.41C9.40006 10.41 9.78006 10.38 10.1401 10.32C10.5001 10.24 10.8701 10.19 11.2501 10.17C11.4701 10.17 11.6901 10.16 11.9101 10.14C12.1501 10.1 12.3901 10.06 12.6301 10.02C12.9701 9.97996 13.3001 9.99996 13.6201 10.08C13.9401 10.16 14.2701 10.2 14.6101 10.2C14.6501 10.2 14.6801 10.22 14.7001 10.26C14.7401 10.28 14.7801 10.3 14.8201 10.32C14.8601 10.34 14.9101 10.36 14.9701 10.38C15.0301 10.38 15.0801 10.4 15.1201 10.44L15.6301 10.95C15.5101 11.03 15.3901 11.11 15.2701 11.19C15.1501 11.25 15.0001 11.33 14.8201 11.43H12.9901C13.1101 11.29 13.2301 11.24 13.3501 11.28C13.4901 11.3 13.6201 11.3 13.7401 11.28C13.8601 11.26 13.9801 11.26 14.1001 11.28C14.2401 11.28 14.3601 11.26 14.4601 11.22L14.8201 11.04C14.4801 11.14 14.1401 11.17 13.8001 11.13C13.4601 11.09 13.1201 11.08 12.7801 11.1C12.7201 11.1 12.6501 11.1 12.5701 11.1C12.5101 11.1 12.4801 11.16 12.4801 11.28H12.1201V11.64C12.0201 11.62 11.9501 11.58 11.9101 11.52C11.8301 11.48 11.7601 11.46 11.7001 11.46C11.6401 11.46 11.6001 11.52 11.5801 11.64L11.5501 11.61C11.5301 11.65 11.5101 11.68 11.4901 11.7C11.4701 11.7 11.4501 11.72 11.4301 11.76L11.4601 11.79C11.5001 11.77 11.5401 11.72 11.5801 11.64C11.6601 11.68 11.7201 11.72 11.7601 11.76C11.8601 11.8 11.9301 11.82 11.9701 11.82C12.0301 11.82 12.0801 11.76 12.1201 11.64C12.2001 11.68 12.2701 11.72 12.3301 11.76C12.4101 11.8 12.4701 11.82 12.5101 11.82C12.5701 11.82 12.6201 11.76 12.6601 11.64H13.1701C13.0301 11.74 12.9001 11.82 12.7801 11.88C12.6601 11.94 12.5201 11.99 12.3601 12.03C11.9201 12.09 11.4701 12.14 11.0101 12.18C10.5701 12.2 10.1401 12.31 9.72006 12.51C9.56006 12.57 9.38006 12.6 9.18006 12.6C9.00006 12.6 8.82006 12.62 8.64006 12.66C8.40006 12.72 8.17006 12.79 7.95006 12.87C7.73006 12.93 7.53006 13.05 7.35006 13.23C7.33006 13.27 7.30006 13.29 7.26006 13.29C7.22006 13.29 7.18006 13.29 7.14006 13.29C7.08006 13.37 7.07006 13.47 7.11006 13.59C7.15006 13.69 7.08006 13.76 6.90006 13.8C6.92006 13.8 6.93006 13.79 6.93006 13.77C6.87006 13.71 6.83006 13.66 6.81006 13.62C6.77006 13.66 6.75006 13.68 6.75006 13.68C6.81006 13.74 6.86006 13.78 6.90006 13.8C6.84006 13.86 6.73006 13.95 6.57006 14.07C6.59006 14.09 6.61006 14.12 6.63006 14.16C6.65006 14.18 6.69006 14.21 6.75006 14.25C6.63006 14.29 6.54006 14.33 6.48006 14.37C6.20006 15.01 5.93006 15.67 5.67006 16.35C5.65006 16.39 5.56006 16.43 5.40006 16.47H5.49006C5.47006 16.41 5.46006 16.35 5.46006 16.29C5.46006 16.23 5.45006 16.18 5.43006 16.14H5.31006C5.31006 16.28 5.34006 16.39 5.40006 16.47ZM5.28006 14.85C5.30006 14.87 5.31006 14.88 5.31006 14.88C5.39006 14.84 5.44006 14.8 5.46006 14.76L5.40006 14.7C5.38006 14.74 5.36006 14.77 5.34006 14.79C5.34006 14.81 5.33006 14.84 5.31006 14.88C5.31006 14.86 5.30006 14.85 5.28006 14.85C5.22006 14.91 5.17006 14.95 5.13006 14.97C5.17006 15.01 5.19006 15.03 5.19006 15.03C5.25006 14.97 5.28006 14.91 5.28006 14.85ZM2.43006 20.07C2.57006 20.05 2.63006 20 2.61006 19.92C2.59006 19.84 2.59006 19.77 2.61006 19.71C2.65006 19.67 2.68006 19.63 2.70006 19.59C2.74006 19.55 2.77006 19.51 2.79006 19.47C2.81006 19.41 2.81006 19.34 2.79006 19.26C2.79006 19.16 2.81006 19.09 2.85006 19.05C3.01006 18.95 3.09006 18.83 3.09006 18.69C3.11006 18.53 3.14006 18.37 3.18006 18.21C3.22006 18.05 3.28006 17.91 3.36006 17.79C3.44006 17.67 3.50006 17.53 3.54006 17.37C3.68006 16.89 3.83006 16.42 3.99006 15.96C4.15006 15.48 4.31006 15.01 4.47006 14.55C4.47006 14.53 4.51006 14.46 4.59006 14.34H4.32006C4.16006 14.74 4.01006 15.13 3.87006 15.51C3.73006 15.89 3.59006 16.28 3.45006 16.68C3.41006 16.64 3.37006 16.6 3.33006 16.56C3.29006 16.52 3.23006 16.48 3.15006 16.44V16.83C3.09006 16.87 3.02006 16.92 2.94006 16.98C2.86006 17.02 2.82006 17.06 2.82006 17.1C2.86006 17.38 2.79006 17.63 2.61006 17.85C2.43006 18.07 2.34006 18.32 2.34006 18.6C2.34006 18.82 2.31006 19.04 2.25006 19.26C2.19006 19.46 2.13006 19.68 2.07006 19.92C2.17006 19.88 2.24006 19.85 2.28006 19.83C2.34006 19.79 2.39006 19.75 2.43006 19.71V20.22V20.04L2.07006 20.13C2.07006 20.15 2.07006 20.16 2.07006 20.16C2.09006 20.18 2.10006 20.2 2.10006 20.22C2.16006 20.22 2.22006 20.21 2.28006 20.19C2.34006 20.19 2.39006 20.15 2.43006 20.07ZM4.98006 16.38C4.84006 16.52 4.77006 16.59 4.77006 16.59C4.77006 16.63 4.78006 16.67 4.80006 16.71C4.82006 16.75 4.84006 16.79 4.86006 16.83C4.88006 16.79 4.89006 16.76 4.89006 16.74C4.89006 16.7 4.85006 16.74 4.77006 16.86C4.77006 16.84 4.76006 16.83 4.74006 16.83C4.72006 16.85 4.70006 16.87 4.68006 16.89C4.66006 16.89 4.63006 16.91 4.59006 16.95C4.63006 16.95 4.65006 16.97 4.65006 17.01C4.69006 16.97 4.72006 16.92 4.74006 16.86C4.78006 16.8 4.86006 16.64 4.98006 16.38ZM4.77006 15.99V16.14C4.93006 16.1 5.05006 16.08 5.13006 16.08C5.11006 16.04 5.10006 16 5.10006 15.96C5.04006 15.96 4.98006 15.97 4.92006 15.99C4.88006 15.99 4.83006 16.04 4.77006 16.14C4.77006 16.12 4.76006 16.11 4.74006 16.11C4.68006 16.17 4.63006 16.21 4.59006 16.23C4.63006 16.27 4.65006 16.29 4.65006 16.29C4.69006 16.25 4.71006 16.22 4.71006 16.2C4.73006 16.16 4.75006 16.09 4.77006 15.99ZM7.47006 9.23996C7.35006 9.35996 7.29006 9.41996 7.29006 9.41996C7.29006 9.45996 7.31006 9.53996 7.35006 9.65996C7.37006 9.61996 7.38006 9.58996 7.38006 9.56996C7.38006 9.52996 7.34006 9.55996 7.26006 9.65996H7.08006C7.08006 9.55996 7.09006 9.44996 7.11006 9.32996C7.13006 9.20996 7.19006 8.99996 7.29006 8.69996C7.17006 8.81996 7.11006 8.87996 7.11006 8.87996C7.11006 8.95996 7.13006 9.03996 7.17006 9.11996C7.19006 9.07996 7.20006 9.04996 7.20006 9.02996C7.20006 8.98996 7.16006 9.01996 7.08006 9.11996C6.86006 9.33996 6.70006 9.59996 6.60006 9.89996C6.50006 10.18 6.36006 10.47 6.18006 10.77C6.36006 10.71 6.52006 10.66 6.66006 10.62C6.80006 10.58 6.94006 10.54 7.08006 10.5V10.02C7.22006 10.02 7.29006 9.95996 7.29006 9.83996C7.31006 9.71996 7.37006 9.51996 7.47006 9.23996ZM8.01006 8.15996C7.87006 8.29996 7.80006 8.35996 7.80006 8.33996C7.84006 8.45996 7.87006 8.53996 7.89006 8.57996C7.91006 8.53996 7.92006 8.50996 7.92006 8.48996C7.92006 8.44996 7.89006 8.48996 7.83006 8.60996L7.80006 8.57996C7.76006 8.59996 7.73006 8.61996 7.71006 8.63996C7.71006 8.65996 7.69006 8.67996 7.65006 8.69996L7.71006 8.75996C7.73006 8.71996 7.76006 8.67996 7.80006 8.63996C7.84006 8.57996 7.91006 8.41996 8.01006 8.15996ZM16.9501 2.81996V2.66996C16.8501 2.66996 16.7601 2.67996 16.6801 2.69995C16.6001 2.69995 16.5101 2.70995 16.4101 2.72995C16.4301 2.74996 16.4401 2.78996 16.4401 2.84995C16.5201 2.84995 16.6001 2.83995 16.6801 2.81996C16.7601 2.77996 16.8501 2.67996 16.9501 2.51996V2.69995C17.0501 2.67996 17.1401 2.66996 17.2201 2.66996C17.3001 2.64996 17.3901 2.63996 17.4901 2.63996C17.4901 2.57996 17.4801 2.53996 17.4601 2.51996C17.3801 2.51996 17.3001 2.52996 17.2201 2.54996C17.1401 2.56995 17.0501 2.65995 16.9501 2.81996ZM14.0701 2.84995C13.9901 2.88996 13.8901 2.89996 13.7701 2.87996C13.6701 2.83996 13.6001 2.93996 13.5601 3.17996V3.02996C13.4601 3.02996 13.3701 3.03996 13.2901 3.05996C13.2101 3.05996 13.1201 3.06996 13.0201 3.08996V3.20996C13.2401 3.20996 13.4201 3.14996 13.5601 3.02996C13.6601 2.98996 13.7601 2.99996 13.8601 3.05996C13.9601 3.09996 14.0301 3.02995 14.0701 2.84995C14.1701 2.80996 14.2701 2.80996 14.3701 2.84995C14.4901 2.88996 14.5401 2.77996 14.5201 2.51996C14.6201 2.61996 14.7001 2.69996 14.7601 2.75996C14.8401 2.79996 14.9101 2.84996 14.9701 2.90996C14.9901 2.84996 15.0301 2.80996 15.0901 2.78996C15.1701 2.74995 15.2401 2.71995 15.3001 2.69995C15.3801 2.67996 15.4401 2.64996 15.4801 2.60996C15.5201 2.54996 15.5301 2.45996 15.5101 2.33996C15.4301 2.37996 15.3601 2.40996 15.3001 2.42995C15.2401 2.44995 15.1801 2.46995 15.1201 2.48996C15.0401 2.50996 14.9601 2.52996 14.8801 2.54996C14.8001 2.54996 14.7201 2.58996 14.6401 2.66996C14.5401 2.70995 14.4301 2.70995 14.3101 2.66996C14.1901 2.62996 14.1101 2.68996 14.0701 2.84995ZM4.77006 13.8L4.68006 13.71C4.64006 13.77 4.59006 13.83 4.53006 13.89C4.49006 13.95 4.45006 14.03 4.41006 14.13C4.55006 14.13 4.66006 14.14 4.74006 14.16C4.76006 14.08 4.77006 14.01 4.77006 13.95C4.77006 13.89 4.78006 13.83 4.80006 13.77C4.88006 13.67 4.92006 13.6 4.92006 13.56C4.92006 13.52 4.88006 13.42 4.80006 13.26C4.80006 13.36 4.80006 13.45 4.80006 13.53C4.80006 13.61 4.79006 13.7 4.77006 13.8ZM15.6901 3.02996H15.1801C15.1201 3.04996 15.0501 3.15996 14.9701 3.35996V3.20996C14.8701 3.20996 14.7601 3.22996 14.6401 3.26995V3.38995C14.7801 3.38995 14.8901 3.32996 14.9701 3.20996C15.0701 3.20996 15.1601 3.21996 15.2401 3.23996C15.3201 3.23996 15.4001 3.22996 15.4801 3.20996C15.5601 3.20996 15.6301 3.09996 15.6901 2.87996V3.05996C15.7901 3.03996 15.8801 3.02996 15.9601 3.02996C16.0401 3.00996 16.1301 2.99995 16.2301 2.99995V2.87996C16.1301 2.87996 16.0401 2.88996 15.9601 2.90996C15.8801 2.90996 15.7901 2.94996 15.6901 3.02996ZM20.1901 1.31995C20.1901 1.27996 20.1801 1.24996 20.1601 1.22996C20.0601 1.24996 19.9701 1.25996 19.8901 1.25996C19.8101 1.25996 19.7201 1.26996 19.6201 1.28996C19.6401 1.36996 19.6501 1.42996 19.6501 1.46995C19.6701 1.50996 19.6801 1.54996 19.6801 1.58995C19.7801 1.54996 19.8601 1.49996 19.9201 1.43995C20.0001 1.37995 20.0801 1.26995 20.1601 1.10996C20.1801 1.14996 20.1901 1.19996 20.1901 1.25996C20.2501 1.23996 20.3101 1.22996 20.3701 1.22996C20.4301 1.22996 20.4901 1.21996 20.5501 1.19995C20.5301 1.15996 20.5201 1.11996 20.5201 1.07996C20.4601 1.07996 20.4001 1.09996 20.3401 1.13996C20.2801 1.15996 20.2301 1.21995 20.1901 1.31995ZM11.0101 11.91C10.5101 11.83 10.0901 11.83 9.75006 11.91C9.43006 11.97 9.07006 12.12 8.67006 12.36C9.09006 12.28 9.49006 12.2 9.87006 12.12C10.2701 12.04 10.6501 11.93 11.0101 11.79C11.0301 11.81 11.0401 11.83 11.0401 11.85C11.0801 11.81 11.1101 11.79 11.1301 11.79C11.1501 11.77 11.1701 11.75 11.1901 11.73C11.1901 11.69 11.1701 11.67 11.1301 11.67C11.1101 11.69 11.0701 11.77 11.0101 11.91ZM7.47006 7.52996C7.31006 7.64996 7.18006 7.78996 7.08006 7.94996C7.00006 8.08996 6.92006 8.24996 6.84006 8.42996C6.76006 8.58996 6.67006 8.75996 6.57006 8.93996C6.49006 9.09996 6.38006 9.23996 6.24006 9.35996C6.22006 9.63996 6.13006 9.89996 5.97006 10.14C5.83006 10.36 5.75006 10.61 5.73006 10.89C6.09006 10.37 6.40006 9.82996 6.66006 9.26996C6.94006 8.68996 7.21006 8.13996 7.47006 7.61996C7.53006 7.49996 7.59006 7.38996 7.65006 7.28996C7.71006 7.18996 7.76006 7.07996 7.80006 6.95996C7.72006 6.97996 7.65006 6.98996 7.59006 6.98996C7.55006 6.98996 7.51006 6.99996 7.47006 7.01996V7.52996ZM18.5401 1.61995C18.3801 1.65996 18.2101 1.69996 18.0301 1.73995C17.8501 1.77996 17.6701 1.81996 17.4901 1.85995C17.4901 1.89996 17.4901 1.94996 17.4901 2.00995C17.5101 2.04996 17.5301 2.10996 17.5501 2.18996C17.6101 2.06996 17.6901 1.99995 17.7901 1.97996C17.8901 1.95996 17.9901 1.94996 18.0901 1.94996C18.1901 1.94996 18.2801 1.92996 18.3601 1.88995C18.4401 1.84996 18.5001 1.75996 18.5401 1.61995ZM12.6301 2.48996C12.7301 2.42996 12.8201 2.41995 12.9001 2.45995C13.0001 2.47996 13.0901 2.51996 13.1701 2.57995C13.2701 2.61996 13.3701 2.64996 13.4701 2.66996C13.5701 2.68995 13.6801 2.64995 13.8001 2.54996C13.5801 2.50996 13.3801 2.44996 13.2001 2.36996C13.0401 2.26996 12.8501 2.30996 12.6301 2.48996ZM16.1401 2.09996C16.0001 2.13995 15.8801 2.19995 15.7801 2.27995C15.7001 2.33996 15.6801 2.46996 15.7201 2.66996C15.8201 2.62996 15.9101 2.58996 15.9901 2.54996C16.0701 2.48995 16.1601 2.43995 16.2601 2.39996C16.2201 2.27996 16.1801 2.17996 16.1401 2.09996ZM18.7501 1.73995C18.8701 1.69996 18.9901 1.66996 19.1101 1.64996C19.2301 1.60996 19.3501 1.56996 19.4701 1.52996V1.46995H18.7501V1.73995ZM12.3301 3.59996V3.77996C12.4101 3.75996 12.4901 3.74996 12.5701 3.74996C12.6501 3.72996 12.7301 3.70996 12.8101 3.68995V3.59996H12.3301ZM21.2101 1.01996V0.869955C21.1701 0.889955 21.1201 0.909955 21.0601 0.929954C21.0001 0.929954 20.9501 0.939955 20.9101 0.959956C20.9101 0.999955 20.9201 1.01996 20.9401 1.01996H21.2101ZM14.0701 2.27995C14.0501 2.25996 14.0401 2.20996 14.0401 2.12996C13.9201 2.16996 13.8201 2.18996 13.7401 2.18996C13.7401 2.22996 13.7501 2.25996 13.7701 2.27995H14.0701ZM17.7001 2.33996C17.7001 2.41995 17.7101 2.47995 17.7301 2.51996L18.0001 2.42995V2.33996H17.7001ZM13.0201 4.07995V3.98996H12.6601V4.07995H13.0201ZM8.01006 8.00996H8.16006C8.16006 7.96996 8.14006 7.86996 8.10006 7.70996H8.01006V8.00996ZM5.07006 15.21H4.98006V15.6H5.07006V15.21ZM4.44006 17.55H4.53006V17.19H4.44006V17.55ZM2.10006 18.24H2.25006C2.25006 18.16 2.23006 18.06 2.19006 17.94H2.10006V18.24ZM3.66006 20.1H3.51006C3.53006 20.16 3.54006 20.21 3.54006 20.25C3.54006 20.31 3.55006 20.36 3.57006 20.4H3.66006V20.1ZM22.3801 0.719955H22.4401V0.539956H22.3801V0.719955ZM21.9001 0.719955H21.8401V0.899955H21.9001V0.719955ZM21.9601 1.52996V1.46995H21.7801V1.52996H21.9601ZM19.4701 1.88995V1.82996H19.2901V1.88995H19.4701ZM17.1901 2.12996H17.2501V1.94996H17.1901V2.12996ZM18.9901 2.12996H19.0501V1.94996H18.9901V2.12996ZM16.9501 2.24996V2.18996H16.7701V2.24996H16.9501ZM18.3301 2.12996H18.2701V2.30995H18.3301V2.12996ZM14.1301 3.56995H14.1901V3.38995H14.1301V3.56995ZM12.3001 4.16996V4.22995H12.4801V4.16996H12.3001ZM8.40006 7.16996H8.46006V6.98996H8.40006V7.16996ZM8.16006 7.40996V7.46996H8.34006V7.40996H8.16006ZM7.32006 8.57996H7.38006V8.39996H7.32006V8.57996ZM7.50006 9.11996H7.56006V8.93996H7.50006V9.11996ZM9.96006 11.16V11.22H10.1401V11.16H9.96006ZM4.41006 18.03V17.97H4.23006V18.03H4.41006ZM1.95006 18.63H2.01006V18.45H1.95006V18.63ZM4.11006 18.63H4.17006V18.45H4.11006V18.63ZM1.89006 19.47V19.41H1.71006V19.47H1.89006ZM2.01006 20.43H1.95006V20.61H2.01006V20.43ZM28.8926 14.76C28.4326 15.36 28.0126 15.96 27.6326 16.56C27.4126 16.88 27.2026 17.17 27.0026 17.43C26.8026 17.67 26.5926 17.9 26.3726 18.12C26.1726 18.34 25.9526 18.56 25.7126 18.78C25.4726 19 25.2026 19.23 24.9026 19.47C24.5226 19.77 24.1326 20.04 23.7326 20.28C23.3326 20.54 22.9226 20.78 22.5026 21C22.1826 21.18 21.8626 21.28 21.5426 21.3C21.2226 21.34 20.9126 21.32 20.6126 21.24C20.3126 21.18 20.0326 21.08 19.7726 20.94C19.5126 20.8 19.2826 20.64 19.0826 20.46C18.7426 20.18 18.4426 19.86 18.1826 19.5C17.9226 19.14 17.7126 18.71 17.5526 18.21V17.16C17.5526 17.06 17.5426 16.96 17.5226 16.86C17.5026 16.76 17.5126 16.68 17.5526 16.62C17.7126 16.4 17.8026 16.17 17.8226 15.93C17.8426 15.67 17.9126 15.42 18.0326 15.18C18.4126 14.44 18.8126 13.72 19.2326 13.02C19.6526 12.32 20.1226 11.64 20.6426 10.98C20.7826 10.82 20.9026 10.64 21.0026 10.44C21.1026 10.22 21.2226 9.99996 21.3626 9.77996C21.0826 9.65996 20.8026 9.58996 20.5226 9.56996C20.2426 9.52996 19.9526 9.50996 19.6526 9.50996C19.3726 9.50996 19.0926 9.51996 18.8126 9.53996C18.5326 9.53996 18.2526 9.51996 17.9726 9.47996C17.3326 9.07996 16.8326 8.59996 16.4726 8.03996C16.1326 7.47996 16.0126 6.81996 16.1126 6.05996C16.1726 5.95996 16.2326 5.86996 16.2926 5.78996C16.3726 5.70996 16.4226 5.61996 16.4426 5.51996C16.4826 5.17996 16.5926 4.87996 16.7726 4.61996C16.9526 4.33996 17.1026 4.05996 17.2226 3.77996C17.3226 3.55996 17.4526 3.36996 17.6126 3.20996C17.7926 3.04996 17.9626 2.88995 18.1226 2.72995C18.4226 2.68995 18.6926 2.69996 18.9326 2.75996C19.1926 2.81996 19.4326 2.90996 19.6526 3.02996C19.8926 3.12996 20.1126 3.24996 20.3126 3.38995C20.5326 3.52996 20.7526 3.66996 20.9726 3.80995C20.8726 4.44995 20.6426 4.99996 20.2826 5.45996C19.9426 5.89996 19.5726 6.31996 19.1726 6.71996C19.1526 6.85996 19.1426 6.98996 19.1426 7.10996C19.1426 7.22996 19.0926 7.34996 18.9926 7.46996C18.9126 7.56996 18.9126 7.69996 18.9926 7.85996C19.0926 7.99996 19.2026 8.06996 19.3226 8.06996C19.5426 8.06996 19.7626 8.09996 19.9826 8.15996C20.2226 8.21996 20.4526 8.25996 20.6726 8.27996C21.0326 8.31996 21.3926 8.37996 21.7526 8.45996C22.1126 8.53996 22.4326 8.71996 22.7126 8.99996C22.7726 9.07996 22.8626 9.12996 22.9826 9.14996C23.1026 9.16996 23.2126 9.20996 23.3126 9.26996C23.7326 9.50996 24.0726 9.87996 24.3326 10.38V11.16C24.1526 11.44 23.9526 11.74 23.7326 12.06C23.5326 12.38 23.3226 12.71 23.1026 13.05C23.0026 13.21 22.8826 13.37 22.7426 13.53C22.6226 13.69 22.5026 13.85 22.3826 14.01C22.0026 14.57 21.6726 15.16 21.3926 15.78C21.1326 16.4 20.8326 17.01 20.4926 17.61C20.3926 17.79 20.3226 17.98 20.2826 18.18C20.2426 18.38 20.1726 18.58 20.0726 18.78C20.0126 18.9 19.9926 19.04 20.0126 19.2C20.0526 19.34 20.0726 19.49 20.0726 19.65L20.2826 19.86C20.6226 19.96 20.9526 19.95 21.2726 19.83C21.5926 19.69 21.9026 19.56 22.2026 19.44C23.0026 19.12 23.7526 18.63 24.4526 17.97C24.6126 17.81 24.7626 17.65 24.9026 17.49C25.0626 17.33 25.2226 17.17 25.3826 17.01C25.5626 16.85 25.7426 16.69 25.9226 16.53C26.1226 16.37 26.3126 16.21 26.4926 16.05C26.8126 15.77 27.0926 15.48 27.3326 15.18C27.5926 14.86 27.8526 14.54 28.1126 14.22L28.8926 14.76ZM20.8226 12.03H20.9126V11.67H20.8226V12.03ZM21.1226 11.43V11.37H20.9426V11.43H21.1226ZM19.8326 14.01H19.7726V14.19H19.8326V14.01ZM19.1726 17.1V17.16H19.3526V17.1H19.1726ZM30.53 20.64C30.03 20.68 29.54 20.58 29.06 20.34C28.58 20.12 28.11 19.8 27.65 19.38C27.27 19.04 27.02 18.71 26.9 18.39C26.76 18.07 26.67 17.68 26.63 17.22C26.59 16.56 26.66 15.92 26.84 15.3C27 14.68 27.2 14.06 27.44 13.44C27.64 12.94 27.88 12.47 28.16 12.03C28.44 11.59 28.7 11.14 28.94 10.68C29.28 10.04 29.66 9.44996 30.08 8.90996C30.5 8.34996 30.96 7.82996 31.46 7.34996C31.7 7.10996 31.95 6.87996 32.21 6.65996C32.49 6.41996 32.83 6.27996 33.23 6.23996C33.29 6.23996 33.35 6.22996 33.41 6.20996C33.49 6.16996 33.56 6.13996 33.62 6.11996C33.7 6.09996 33.77 6.09996 33.83 6.11996C33.91 6.11996 33.99 6.11996 34.07 6.11996C34.23 6.07996 34.39 6.02996 34.55 5.96996C34.71 5.88996 34.87 5.89996 35.03 5.99996C35.33 6.17996 35.64 6.33996 35.96 6.47996C36.28 6.59996 36.57 6.78996 36.83 7.04996C37.15 7.34996 37.43 7.66996 37.67 8.00996C37.91 8.34996 38.12 8.74996 38.3 9.20996C38.28 9.32996 38.29 9.46996 38.33 9.62996C38.37 9.78996 38.41 9.95996 38.45 10.14C38.55 10.54 38.54 10.92 38.42 11.28C38.32 11.62 38.21 11.96 38.09 12.3C37.89 12.82 37.66 13.33 37.4 13.83C37.14 14.31 36.87 14.79 36.59 15.27C36.21 15.95 35.77 16.57 35.27 17.13C34.77 17.67 34.23 18.19 33.65 18.69C33.23 19.07 32.78 19.44 32.3 19.8C31.84 20.14 31.25 20.42 30.53 20.64ZM34.52 16.5C34.66 16.5 34.72 16.46 34.7 16.38C34.68 16.3 34.68 16.22 34.7 16.14C34.84 16.14 34.9 16.1 34.88 16.02C34.86 15.94 34.86 15.86 34.88 15.78C35.16 15.72 35.28 15.54 35.24 15.24C35.24 15.26 35.25 15.27 35.27 15.27C35.31 15.25 35.33 15.23 35.33 15.21C35.35 15.19 35.38 15.17 35.42 15.15L35.36 15.09C35.3 15.15 35.26 15.2 35.24 15.24C34.96 15.34 34.84 15.52 34.88 15.78C34.74 15.8 34.68 15.85 34.7 15.93C34.72 16.01 34.72 16.08 34.7 16.14C34.56 16.16 34.5 16.21 34.52 16.29C34.54 16.37 34.55 16.45 34.55 16.53C34.53 16.51 34.52 16.5 34.52 16.5C34.48 16.52 34.43 16.56 34.37 16.62C34.37 16.62 34.39 16.64 34.43 16.68L34.52 16.5ZM27.92 15.36C27.8 15.48 27.74 15.54 27.74 15.54C27.74 15.62 27.76 15.7 27.8 15.78C27.82 15.74 27.83 15.71 27.83 15.69C27.83 15.65 27.8 15.69 27.74 15.81L27.71 15.78C27.67 15.8 27.64 15.82 27.62 15.84C27.62 15.86 27.6 15.88 27.56 15.9C27.56 15.9 27.58 15.92 27.62 15.96C27.64 15.92 27.66 15.88 27.68 15.84C27.72 15.78 27.8 15.62 27.92 15.36ZM28.97 14.88C29.11 14.88 29.17 14.84 29.15 14.76C29.13 14.68 29.13 14.6 29.15 14.52C29.31 14.36 29.44 14.18 29.54 13.98C29.66 13.78 29.7 13.54 29.66 13.26C29.68 13.28 29.7 13.29 29.72 13.29C29.74 13.27 29.76 13.26 29.78 13.26C29.8 13.24 29.82 13.21 29.84 13.17L29.78 13.11L29.69 13.29C29.53 13.47 29.39 13.66 29.27 13.86C29.17 14.06 29.13 14.28 29.15 14.52C29.01 14.54 28.94 14.61 28.94 14.73C28.94 14.85 28.88 15.05 28.76 15.33C28.9 15.21 28.97 15.15 28.97 15.15C28.97 15.11 28.96 15.07 28.94 15.03C28.92 14.97 28.9 14.92 28.88 14.88C28.86 14.94 28.85 14.99 28.85 15.03C28.85 15.05 28.89 15 28.97 14.88ZM35.6 14.7C35.74 14.7 35.8 14.66 35.78 14.58C35.76 14.5 35.76 14.42 35.78 14.34C35.92 14.34 35.99 14.28 35.99 14.16C35.99 14.04 36.05 13.84 36.17 13.56C36.03 13.68 35.96 13.74 35.96 13.74L36.05 14.01C36.07 13.95 36.08 13.91 36.08 13.89C36.08 13.85 36.04 13.89 35.96 14.01C35.82 14.01 35.76 14.05 35.78 14.13C35.8 14.21 35.8 14.28 35.78 14.34C35.64 14.36 35.58 14.41 35.6 14.49C35.62 14.57 35.63 14.65 35.63 14.73C35.61 14.71 35.6 14.7 35.6 14.7C35.56 14.72 35.51 14.76 35.45 14.82C35.45 14.82 35.47 14.84 35.51 14.88C35.53 14.84 35.54 14.81 35.54 14.79C35.56 14.77 35.58 14.74 35.6 14.7ZM35.99 12.3C35.95 12.34 35.92 12.37 35.9 12.39C35.88 12.41 35.86 12.43 35.84 12.45C35.82 12.47 35.8 12.48 35.78 12.48L35.87 12.75C35.89 12.69 35.89 12.67 35.87 12.69C35.85 12.69 35.75 12.86 35.57 13.2C35.71 13.06 35.78 12.99 35.78 12.99C35.78 12.95 35.77 12.91 35.75 12.87C35.73 12.83 35.71 12.79 35.69 12.75C35.67 12.79 35.67 12.81 35.69 12.81C35.71 12.81 35.81 12.64 35.99 12.3ZM28.61 12.75C28.75 12.73 28.81 12.68 28.79 12.6C28.77 12.52 28.77 12.44 28.79 12.36C28.79 12.38 28.8 12.4 28.82 12.42C28.84 12.38 28.86 12.36 28.88 12.36C28.9 12.34 28.93 12.31 28.97 12.27C28.93 12.27 28.91 12.25 28.91 12.21C28.87 12.25 28.83 12.31 28.79 12.39C28.65 12.39 28.59 12.43 28.61 12.51C28.63 12.59 28.64 12.67 28.64 12.75C28.62 12.75 28.61 12.74 28.61 12.72C28.57 12.76 28.54 12.79 28.52 12.81C28.5 12.81 28.48 12.82 28.46 12.84C28.46 12.88 28.48 12.9 28.52 12.9C28.54 12.88 28.57 12.83 28.61 12.75ZM29.15 12.57C29.29 12.55 29.35 12.5 29.33 12.42C29.31 12.34 29.31 12.27 29.33 12.21C29.47 12.19 29.53 12.14 29.51 12.06C29.49 11.98 29.49 11.91 29.51 11.85L29.87 11.67C29.89 11.71 29.9 11.74 29.9 11.76C29.9 11.76 29.91 11.78 29.93 11.82C29.95 11.78 29.97 11.76 29.99 11.76C30.01 11.74 30.03 11.71 30.05 11.67C30.33 11.61 30.44 11.42 30.38 11.1C30.4 11.12 30.41 11.14 30.41 11.16C30.45 11.12 30.48 11.1 30.5 11.1C30.52 11.08 30.54 11.06 30.56 11.04C30.56 11 30.54 10.98 30.5 10.98C30.48 11 30.45 11.05 30.41 11.13L30.05 11.31C30.05 11.15 30.04 11.02 30.02 10.92L30.08 10.98C30.1 10.94 30.12 10.92 30.14 10.92C30.16 10.9 30.18 10.88 30.2 10.86C30.2 10.82 30.18 10.8 30.14 10.8C30.12 10.82 30.09 10.87 30.05 10.95C29.91 10.97 29.85 11.02 29.87 11.1C29.89 11.16 29.89 11.23 29.87 11.31C29.59 11.37 29.47 11.55 29.51 11.85C29.37 11.85 29.31 11.89 29.33 11.97C29.35 12.05 29.35 12.13 29.33 12.21C29.19 12.21 29.13 12.25 29.15 12.33C29.17 12.41 29.18 12.49 29.18 12.57C29.16 12.57 29.15 12.56 29.15 12.54C29.11 12.58 29.08 12.61 29.06 12.63C29.04 12.63 29.02 12.64 29 12.66C29 12.7 29.02 12.72 29.06 12.72C29.08 12.7 29.11 12.65 29.15 12.57ZM28.61 15.78C28.45 15.82 28.39 15.9 28.43 16.02C28.47 16.14 28.47 16.25 28.43 16.35C28.31 16.53 28.25 16.71 28.25 16.89C28.25 17.07 28.31 17.3 28.43 17.58V16.32C28.61 16.28 28.68 16.19 28.64 16.05C28.62 15.89 28.68 15.66 28.82 15.36C28.68 15.48 28.61 15.54 28.61 15.54C28.65 15.66 28.68 15.74 28.7 15.78C28.72 15.74 28.73 15.71 28.73 15.69C28.73 15.65 28.69 15.68 28.61 15.78ZM28.94 15.99C28.84 16.17 28.79 16.3 28.79 16.38C28.79 16.44 28.84 16.6 28.94 16.86C28.94 16.7 28.95 16.53 28.97 16.35C28.99 16.17 29.06 15.9 29.18 15.54C29.04 15.66 28.97 15.72 28.97 15.72C29.01 15.84 29.04 15.92 29.06 15.96C29.08 15.92 29.09 15.89 29.09 15.87C29.09 15.83 29.04 15.87 28.94 15.99ZM35.36 8.24996C35.3 8.32996 35.25 8.39996 35.21 8.45996C35.17 8.51996 35.13 8.56996 35.09 8.60996C34.95 8.70996 34.81 8.78996 34.67 8.84996C34.53 8.88996 34.41 8.96996 34.31 9.08996C33.91 9.52996 33.52 9.95996 33.14 10.38C32.76 10.8 32.37 11.22 31.97 11.64C31.91 11.7 31.86 11.77 31.82 11.85C31.78 11.91 31.74 11.98 31.7 12.06C31.38 12.76 31.05 13.45 30.71 14.13C30.37 14.79 30.06 15.47 29.78 16.17C29.64 16.51 29.52 16.84 29.42 17.16C29.32 17.48 29.29 17.8 29.33 18.12C29.43 18.3 29.51 18.46 29.57 18.6C29.65 18.74 29.72 18.88 29.78 19.02C30.34 18.86 30.84 18.54 31.28 18.06C31.74 17.58 32.2 17.1 32.66 16.62C33.12 16.12 33.55 15.6 33.95 15.06C34.29 14.6 34.6 14.13 34.88 13.65C35.16 13.17 35.44 12.68 35.72 12.18C35.78 12.06 35.82 11.93 35.84 11.79C35.86 11.65 35.9 11.52 35.96 11.4C36.56 10.42 36.79 9.39996 36.65 8.33996C36.53 8.17996 36.41 8.09996 36.29 8.09996C36.19 8.07996 36.08 8.09996 35.96 8.15996C35.86 8.19996 35.76 8.23996 35.66 8.27996C35.56 8.31996 35.46 8.30996 35.36 8.24996ZM27.56 16.83H27.74C27.72 16.73 27.7 16.62 27.68 16.5C27.68 16.38 27.68 16.27 27.68 16.17H27.56V16.83ZM26.87 17.55H27.02C27 17.45 26.99 17.37 26.99 17.31C26.97 17.23 26.96 17.15 26.96 17.07H26.87V17.55ZM36.11 11.88C36.05 11.88 36 11.89 35.96 11.91C36 12.03 36.02 12.12 36.02 12.18H36.11V11.88ZM35.48 13.65H35.57V13.29H35.48V13.65ZM27.92 14.16C27.96 14.14 28.01 14.13 28.07 14.13C28.07 14.09 28.05 13.99 28.01 13.83C27.97 13.83 27.94 13.84 27.92 13.86V14.16ZM29.39 12.93H29.45V12.75H29.39V12.93ZM28.85 13.11H28.91V12.93H28.85V13.11ZM35.3 14.01H35.36V13.83H35.3V14.01ZM35.12 14.34H35.18V14.19H35.12V14.34ZM29.33 15.36V15.3H29.15V15.36H29.33ZM26.87 16.32H26.93V16.14H26.87V16.32ZM27.17 18.24V18.18H26.99V18.24H27.17ZM51.3626 12.33C52.5626 10.99 53.7826 9.77996 55.0226 8.69996C56.2626 7.59996 57.6626 6.67996 59.2226 5.93996C59.7626 5.85996 60.3726 5.97996 61.0526 6.29996C61.1526 6.35996 61.2626 6.48996 61.3826 6.68996C61.5026 6.86996 61.6126 7.08996 61.7126 7.34996C61.4326 7.74996 61.1926 8.17996 60.9926 8.63996C60.7926 9.07996 60.5626 9.51996 60.3026 9.95996C59.8026 10.84 59.3526 11.79 58.9526 12.81C58.7926 13.21 58.6226 13.61 58.4426 14.01C58.2826 14.39 58.1526 14.79 58.0526 15.21C58.0326 15.25 58.0026 15.29 57.9626 15.33C57.9426 15.35 57.9326 15.38 57.9326 15.42C57.9326 15.92 57.8726 16.42 57.7526 16.92C57.6526 17.4 57.6526 17.89 57.7526 18.39C57.8126 18.73 57.8926 19.07 57.9926 19.41C58.1126 19.75 58.3726 20.03 58.7726 20.25H59.5526C60.1726 19.99 60.7426 19.68 61.2626 19.32C61.8026 18.94 62.3326 18.54 62.8526 18.12C62.5726 18.64 62.2426 19.11 61.8626 19.53C61.4826 19.93 61.0726 20.3 60.6326 20.64C60.2526 20.94 59.8426 21.17 59.4026 21.33C58.9626 21.49 58.4826 21.44 57.9626 21.18C57.8826 21.14 57.7826 21.12 57.6626 21.12C57.5626 21.14 57.4726 21.13 57.3926 21.09C57.0926 20.91 56.8226 20.7 56.5826 20.46C56.3426 20.22 56.1026 19.99 55.8626 19.77C55.6226 19.53 55.4526 19.24 55.3526 18.9C55.2926 18.7 55.2226 18.5 55.1426 18.3C55.0626 18.1 55.0326 17.89 55.0526 17.67C55.0526 17.55 55.0526 17.43 55.0526 17.31C55.0726 17.17 55.0126 17.05 54.8726 16.95C54.8526 16.93 54.8426 16.89 54.8426 16.83C54.8426 16.77 54.8526 16.72 54.8726 16.68C55.0126 16.5 55.0726 16.31 55.0526 16.11C55.0526 15.91 55.0526 15.71 55.0526 15.51C55.0326 15.15 55.0626 14.8 55.1426 14.46C55.2426 14.1 55.3226 13.75 55.3826 13.41C55.4826 12.89 55.6326 12.4 55.8326 11.94C56.0526 11.48 56.2826 11.02 56.5226 10.56C56.6826 10.24 56.8326 9.91996 56.9726 9.59996C57.1126 9.25996 57.3026 8.94996 57.5426 8.66996C57.5626 8.64996 57.5526 8.57996 57.5126 8.45996C57.0526 8.69996 56.6126 8.96996 56.1926 9.26996C55.7926 9.54996 55.3926 9.83996 54.9926 10.14C54.6726 10.4 54.3826 10.69 54.1226 11.01C53.8626 11.31 53.5326 11.54 53.1326 11.7C52.9926 11.96 52.8226 12.19 52.6226 12.39C52.4426 12.59 52.2526 12.8 52.0526 13.02C51.8526 13.22 51.6626 13.43 51.4826 13.65C51.3226 13.87 51.1926 14.13 51.0926 14.43C50.9926 14.65 50.8626 14.86 50.7026 15.06C50.5426 15.26 50.3826 15.47 50.2226 15.69C49.8626 16.15 49.5726 16.64 49.3526 17.16C49.1326 17.68 48.8826 18.19 48.6026 18.69C48.5226 18.81 48.4526 18.91 48.3926 18.99C48.3326 18.97 48.2726 18.95 48.2126 18.93C48.1726 18.89 48.1226 18.86 48.0626 18.84C47.5026 18.78 47.1026 18.58 46.8626 18.24C46.6226 17.88 46.4826 17.5 46.4426 17.1C46.4026 16.78 46.4226 16.47 46.5026 16.17C46.5826 15.87 46.6726 15.57 46.7726 15.27C46.8726 14.93 46.9826 14.61 47.1026 14.31C47.2426 14.01 47.3626 13.69 47.4626 13.35C47.4426 13.33 47.4226 13.3 47.4026 13.26C47.4026 13.22 47.3826 13.18 47.3426 13.14C47.8426 12.26 48.3626 11.41 48.9026 10.59C49.4426 9.76996 49.9626 8.91996 50.4626 8.03996L50.3126 7.88996C50.1526 7.96996 49.9826 8.04996 49.8026 8.12996C49.6426 8.18996 49.4826 8.26996 49.3226 8.36996C48.6226 8.82996 47.9426 9.29996 47.2826 9.77996C46.6426 10.26 46.0426 10.82 45.4826 11.46C45.3226 11.64 45.1526 11.8 44.9726 11.94C44.7926 12.06 44.6126 12.2 44.4326 12.36C43.3526 13.36 42.4626 14.52 41.7626 15.84C41.6426 16.1 41.5026 16.35 41.3426 16.59C41.2026 16.83 41.0526 17.08 40.8926 17.34C40.8126 17.44 40.7326 17.55 40.6526 17.67C40.5926 17.77 40.5526 17.88 40.5326 18C40.5126 18.22 40.4326 18.41 40.2926 18.57C40.1726 18.73 40.0226 18.9 39.8426 19.08C39.6226 19.04 39.3926 19 39.1526 18.96C38.9126 18.92 38.6726 18.88 38.4326 18.84C38.2126 18.5 38.0226 18.16 37.8626 17.82C37.6826 17.48 37.6226 17.11 37.6826 16.71C37.7826 16.19 37.8826 15.68 37.9826 15.18C38.1026 14.66 38.2626 14.15 38.4626 13.65C38.7426 12.95 39.0526 12.27 39.3926 11.61C39.7326 10.93 40.0726 10.26 40.4126 9.59996C40.9126 8.55996 41.5026 7.54996 42.1826 6.56996C42.3226 6.34996 42.4926 6.14996 42.6926 5.96996C42.9126 5.78996 43.1126 5.59996 43.2926 5.39995C43.3726 5.39995 43.4426 5.40996 43.5026 5.42996C43.5826 5.42996 43.6626 5.41996 43.7426 5.39995C43.8026 5.37996 43.8626 5.35996 43.9226 5.33996C43.9826 5.29996 44.0326 5.26996 44.0726 5.24996C44.4726 5.34996 44.8526 5.47996 45.2126 5.63996C45.5726 5.77996 45.8626 6.08996 46.0826 6.56996V6.83996C45.6226 7.41996 45.1726 7.99996 44.7326 8.57996C44.2926 9.13996 43.8726 9.70996 43.4726 10.29C43.2326 10.65 43.0126 11.02 42.8126 11.4C42.6326 11.78 42.4426 12.17 42.2426 12.57C42.2026 12.65 42.1826 12.74 42.1826 12.84C42.1826 12.94 42.1626 13.07 42.1226 13.23C42.4626 13.03 42.7326 12.82 42.9326 12.6C43.1526 12.36 43.3626 12.13 43.5626 11.91C43.6626 11.79 43.7626 11.67 43.8626 11.55C43.9626 11.41 44.0726 11.29 44.1926 11.19C44.3126 11.09 44.3926 10.97 44.4326 10.83C44.4926 10.67 44.6126 10.57 44.7926 10.53C44.8926 10.49 44.9826 10.42 45.0626 10.32C45.1426 10.22 45.2226 10.13 45.3026 10.05C45.8826 9.44996 46.4926 8.89996 47.1326 8.39996C47.7726 7.87996 48.4426 7.39996 49.1426 6.95996C49.4426 6.73996 49.7626 6.55996 50.1026 6.41996C50.4626 6.25996 50.8126 6.11996 51.1526 5.99996C51.4926 5.87996 51.8126 5.86996 52.1126 5.96996C52.4326 6.06996 52.7326 6.19996 53.0126 6.35996C53.2726 6.51996 53.5026 6.69996 53.7026 6.89996C53.9226 7.07996 54.1426 7.26996 54.3626 7.46996C54.3226 7.62996 54.2726 7.78996 54.2126 7.94996C54.1726 8.10996 54.1326 8.26996 54.0926 8.42996C53.5726 8.92996 53.1126 9.47996 52.7126 10.08C52.3326 10.68 51.9126 11.27 51.4526 11.85C51.4526 11.89 51.4426 11.94 51.4226 12C51.4226 12.04 51.4026 12.15 51.3626 12.33C51.3626 12.33 51.3826 12.33 51.4226 12.33C51.4426 12.33 51.4526 12.32 51.4526 12.3C51.4526 12.26 51.4426 12.22 51.4226 12.18C51.4026 12.12 51.3926 12.07 51.3926 12.03C51.3526 12.17 51.3426 12.27 51.3626 12.33ZM50.0426 10.98L50.2226 10.8C50.3426 10.78 50.4026 10.71 50.4026 10.59C50.4226 10.47 50.4826 10.27 50.5826 9.98996C50.4626 10.11 50.4026 10.17 50.4026 10.17C50.4026 10.23 50.4226 10.32 50.4626 10.44C50.4826 10.38 50.4926 10.34 50.4926 10.32C50.4926 10.28 50.4626 10.32 50.4026 10.44C50.2626 10.44 50.1926 10.48 50.1926 10.56C50.2126 10.64 50.2226 10.72 50.2226 10.8L50.0426 10.98L50.0126 10.95C49.9726 10.97 49.9426 10.99 49.9226 11.01C49.9226 11.03 49.9026 11.05 49.8626 11.07L49.9226 11.13C49.9426 11.09 49.9626 11.07 49.9826 11.07C50.0026 11.05 50.0226 11.02 50.0426 10.98ZM42.6626 13.29C42.6826 13.29 42.6926 13.3 42.6926 13.32C42.7526 13.26 42.8026 13.22 42.8426 13.2C42.8026 13.16 42.7826 13.14 42.7826 13.14C42.7226 13.2 42.6926 13.26 42.6926 13.32C42.6726 13.3 42.6626 13.29 42.6626 13.29C42.6226 13.31 42.5726 13.35 42.5126 13.41C42.5126 13.41 42.5326 13.43 42.5726 13.47C42.5926 13.43 42.6126 13.4 42.6326 13.38C42.6526 13.36 42.6626 13.33 42.6626 13.29ZM50.9126 12.75L50.9426 12.78C51.0026 12.72 51.0526 12.68 51.0926 12.66C51.0526 12.62 51.0326 12.6 51.0326 12.6C51.0126 12.64 50.9926 12.67 50.9726 12.69C50.9526 12.71 50.9426 12.74 50.9426 12.78C50.9226 12.76 50.9126 12.75 50.9126 12.75C50.8726 12.77 50.8226 12.81 50.7626 12.87C50.7626 12.87 50.7826 12.89 50.8226 12.93C50.8426 12.89 50.8626 12.86 50.8826 12.84C50.9026 12.82 50.9126 12.79 50.9126 12.75ZM43.5626 12.39L43.5926 12.42C43.6526 12.36 43.7026 12.32 43.7426 12.3C43.7026 12.26 43.6826 12.24 43.6826 12.24C43.6626 12.28 43.6426 12.31 43.6226 12.33C43.6026 12.35 43.5926 12.38 43.5926 12.42C43.5726 12.4 43.5626 12.39 43.5626 12.39C43.5226 12.41 43.4726 12.45 43.4126 12.51L43.4726 12.57C43.4926 12.53 43.5126 12.5 43.5326 12.48C43.5526 12.46 43.5626 12.43 43.5626 12.39ZM47.7026 14.91C47.8426 14.89 47.9026 14.85 47.8826 14.79C47.8626 14.71 47.8626 14.63 47.8826 14.55C48.0226 14.53 48.0826 14.49 48.0626 14.43C48.0426 14.35 48.0426 14.27 48.0626 14.19L48.2426 14.01C48.3826 14.01 48.4426 13.97 48.4226 13.89C48.4026 13.81 48.4026 13.73 48.4226 13.65C48.5626 13.65 48.6226 13.61 48.6026 13.53C48.5826 13.45 48.5726 13.37 48.5726 13.29C48.5926 13.29 48.6026 13.3 48.6026 13.32C48.6626 13.26 48.7126 13.22 48.7526 13.2C48.7526 13.16 48.7326 13.14 48.6926 13.14C48.6726 13.16 48.6426 13.21 48.6026 13.29C48.4626 13.31 48.4026 13.36 48.4226 13.44C48.4426 13.52 48.4426 13.59 48.4226 13.65C48.2826 13.67 48.2226 13.72 48.2426 13.8C48.2626 13.88 48.2626 13.95 48.2426 14.01L48.0626 14.19C47.9226 14.21 47.8626 14.26 47.8826 14.34C47.9026 14.4 47.9026 14.47 47.8826 14.55C47.7426 14.57 47.6726 14.64 47.6726 14.76C47.6726 14.86 47.6126 15.06 47.4926 15.36C47.6326 15.22 47.7026 15.15 47.7026 15.15C47.6826 15.11 47.6626 15.07 47.6426 15.03C47.6426 14.99 47.6326 14.95 47.6126 14.91C47.5926 14.97 47.5826 15.01 47.5826 15.03C47.5826 15.05 47.6226 15.01 47.7026 14.91ZM49.1726 13.95C49.0326 14.07 48.9626 14.13 48.9626 14.13C48.9626 14.21 48.9926 14.29 49.0526 14.37C49.0526 14.31 49.0526 14.27 49.0526 14.25C49.0726 14.23 49.0426 14.28 48.9626 14.4C48.9626 14.38 48.9526 14.37 48.9326 14.37C48.9326 14.37 48.9326 14.36 48.9326 14.34C48.8726 14.4 48.8226 14.44 48.7826 14.46C48.8226 14.5 48.8426 14.52 48.8426 14.52C48.8626 14.5 48.8926 14.46 48.9326 14.4C48.9726 14.34 49.0526 14.19 49.1726 13.95ZM49.5326 13.02C49.3926 13.16 49.3226 13.23 49.3226 13.23C49.3226 13.31 49.3526 13.39 49.4126 13.47C49.4126 13.41 49.4026 13.39 49.3826 13.41C49.3826 13.41 49.2926 13.58 49.1126 13.92C49.2326 13.8 49.2926 13.73 49.2926 13.71C49.2926 13.67 49.2726 13.59 49.2326 13.47C49.2126 13.53 49.2126 13.56 49.2326 13.56C49.2526 13.54 49.3526 13.36 49.5326 13.02ZM48.9626 12.75H49.1426C49.1226 12.75 49.1126 12.76 49.1126 12.78C49.1526 12.8 49.1926 12.85 49.2326 12.93L49.2926 12.87C49.2326 12.81 49.1826 12.77 49.1426 12.75C49.1026 12.63 49.0826 12.52 49.0826 12.42H48.9626V12.78C48.9426 12.76 48.9326 12.75 48.9326 12.75C48.8926 12.77 48.8426 12.81 48.7826 12.87C48.7826 12.87 48.8026 12.89 48.8426 12.93C48.8626 12.89 48.8826 12.86 48.9026 12.84C48.9226 12.82 48.9426 12.79 48.9626 12.75ZM56.3126 12.57C56.4526 12.57 56.5226 12.51 56.5226 12.39C56.5226 12.27 56.5826 12.07 56.7026 11.79C56.5626 11.91 56.4926 11.97 56.4926 11.97C56.4926 12.07 56.5226 12.15 56.5826 12.21C56.5826 12.17 56.5826 12.14 56.5826 12.12C56.6026 12.08 56.5726 12.11 56.4926 12.21C56.3526 12.23 56.2926 12.28 56.3126 12.36C56.3326 12.44 56.3326 12.51 56.3126 12.57C56.1726 12.59 56.1126 12.64 56.1326 12.72C56.1526 12.8 56.1526 12.87 56.1326 12.93C55.9326 12.99 55.8626 13.09 55.9226 13.23C55.9826 13.37 55.9826 13.49 55.9226 13.59C55.7626 13.87 55.6526 14.19 55.5926 14.55C55.5526 14.89 55.4826 15.33 55.3826 15.87C55.5226 15.75 55.5926 15.69 55.5926 15.69C55.5726 15.65 55.5526 15.61 55.5326 15.57C55.5326 15.53 55.5226 15.49 55.5026 15.45C55.4826 15.51 55.4726 15.55 55.4726 15.57C55.4726 15.59 55.5126 15.55 55.5926 15.45C55.6326 15.41 55.6726 15.39 55.7126 15.39C55.7526 15.37 55.7726 15.34 55.7726 15.3C55.7526 14.92 55.8026 14.56 55.9226 14.22C56.0426 13.88 56.1526 13.54 56.2526 13.2C56.1926 13.08 56.1526 12.99 56.1326 12.93C56.2726 12.93 56.3326 12.89 56.3126 12.81C56.2926 12.73 56.2926 12.65 56.3126 12.57ZM39.6626 14.52C39.7426 14.42 39.7826 14.35 39.7826 14.31C39.7826 14.27 39.7426 14.17 39.6626 14.01C39.6626 14.11 39.6526 14.22 39.6326 14.34C39.6126 14.46 39.5426 14.68 39.4226 15C39.5626 14.86 39.6326 14.79 39.6326 14.79C39.6126 14.75 39.5926 14.71 39.5726 14.67C39.5726 14.63 39.5626 14.59 39.5426 14.55C39.5226 14.61 39.5126 14.65 39.5126 14.67C39.5126 14.69 39.5626 14.64 39.6626 14.52ZM41.7926 14.1C41.8726 13.98 41.9326 13.87 41.9726 13.77C42.0326 13.67 42.0926 13.57 42.1526 13.47C42.0526 13.47 41.9826 13.48 41.9426 13.5C41.9026 13.5 41.8526 13.5 41.7926 13.5V14.04C41.7726 14.02 41.7626 14.01 41.7626 14.01C41.7226 14.03 41.6726 14.07 41.6126 14.13C41.6126 14.13 41.6326 14.15 41.6726 14.19C41.7126 14.09 41.7526 14.06 41.7926 14.1ZM38.8826 15.21C38.7426 15.31 38.6926 15.43 38.7326 15.57C38.7726 15.69 38.7826 15.8 38.7626 15.9C38.7626 15.9 38.8026 15.92 38.8826 15.96C38.8826 15.84 38.8926 15.71 38.9126 15.57C38.9326 15.41 39.0026 15.16 39.1226 14.82C39.0826 14.86 39.0526 14.89 39.0326 14.91C39.0126 14.93 38.9926 14.95 38.9726 14.97C38.9526 14.99 38.9326 15 38.9126 15L39.0026 15.27C39.0226 15.21 39.0326 15.17 39.0326 15.15C39.0326 15.11 38.9826 15.13 38.8826 15.21ZM56.3726 13.5C56.3326 13.6 56.2826 13.71 56.2226 13.83C56.1626 13.95 56.1326 14.07 56.1326 14.19C56.1526 14.55 56.1126 14.91 56.0126 15.27C55.9126 15.61 55.8826 15.97 55.9226 16.35C55.9626 16.51 55.9626 16.68 55.9226 16.86C55.8826 17.02 55.8426 17.19 55.8026 17.37C55.8426 17.39 55.8726 17.42 55.8926 17.46C55.9326 17.5 55.9726 17.54 56.0126 17.58L56.0426 17.55C56.0426 17.55 56.0826 17.53 56.1626 17.49C56.0426 16.83 56.0426 16.18 56.1626 15.54C56.3026 14.88 56.3726 14.2 56.3726 13.5ZM55.5926 18.66C55.5926 18.44 55.5926 18.23 55.5926 18.03C55.6126 17.83 55.6026 17.63 55.5626 17.43C55.5226 17.27 55.4726 17.13 55.4126 17.01C55.3726 16.87 55.4226 16.72 55.5626 16.56C55.6626 16.46 55.5626 16.29 55.2626 16.05C55.1826 16.49 55.1826 16.93 55.2626 17.37C55.3426 17.79 55.4526 18.22 55.5926 18.66ZM41.9426 10.65H41.7626C41.7826 10.69 41.7926 10.74 41.7926 10.8C41.8126 10.86 41.8326 10.91 41.8526 10.95H41.9426V10.65ZM39.4226 12.78C39.3826 12.78 39.3526 12.79 39.3326 12.81C39.3326 12.81 39.3126 12.81 39.2726 12.81C39.2926 12.85 39.3026 12.9 39.3026 12.96C39.3026 13 39.3126 13.05 39.3326 13.11C39.3526 13.11 39.3626 13.11 39.3626 13.11C39.3826 13.09 39.4026 13.08 39.4226 13.08V12.78ZM39.1226 13.62H39.2726C39.2726 13.54 39.2526 13.44 39.2126 13.32H39.1226V13.62ZM49.0826 11.67H49.0226V11.85H49.0826V11.67ZM48.6026 12.45V12.51H48.7826V12.45H48.6026ZM48.4226 12.81V12.87H48.6026V12.81H48.4226ZM49.6826 12.87V12.81H49.5026V12.87H49.6826ZM42.3326 13.71V13.77H42.5126V13.71H42.3326ZM56.4926 15.15V15.21H56.6726V15.15H56.4926ZM39.2726 15.33V15.39H39.4526V15.33H39.2726ZM47.7026 15.87V15.93H47.8826V15.87H47.7026ZM47.3426 16.47V16.41H47.1626V16.47H47.3426ZM56.4326 16.53H56.3726V16.71H56.4326V16.53ZM47.1626 16.95V17.01H47.3426V16.95H47.1626ZM55.7126 18.84H55.6526V19.02H55.7126V18.84ZM50.6726 9.71996H50.6426V9.89996H50.6726V9.71996ZM49.5026 11.1V11.04H49.3226V11.1H49.5026ZM64.793 16.71C65.193 16.69 65.543 16.76 65.843 16.92C66.163 17.08 66.493 17.25 66.833 17.43C66.953 17.93 66.813 18.34 66.413 18.66C66.133 18.9 65.833 19.12 65.513 19.32C65.213 19.52 64.923 19.73 64.643 19.95C64.423 20.11 64.243 20.15 64.103 20.07C63.963 19.99 63.803 19.91 63.623 19.83C63.763 19.31 63.923 18.79 64.103 18.27C64.283 17.75 64.513 17.23 64.793 16.71Z" fill="white"/>
</svg>
