<svg width="50" height="60" viewBox="0 0 50 60" fill="none" xmlns="http://www.w3.org/2000/svg">
<path d="M27.2227 32.8867C36.7646 32.8865 44.4998 25.1513 44.5 15.6094L44.5 8.1543C44.5 6.68848 43.3115 5.5 41.8457 5.5L35 5.5C29.7533 5.5 25.5 9.7533 25.5 15L25.5 31.1641C25.5 32.1152 26.2715 32.8867 27.2227 32.8867Z" fill="#8C8C8C" stroke="white"/>
<path d="M35.8242 35.1774H27.2227C26.2715 35.1774 25.5 35.9489 25.5 36.9V38.1178C25.5 41.6423 28.3574 44.4996 31.8818 44.4996H43.8535C44.2105 44.4994 44.4999 44.2102 44.5 43.8531C44.5 39.0618 40.6156 35.1774 35.8242 35.1774Z" fill="#8C8C8C" stroke="white"/>
<path d="M22.7773 17.113C13.2354 17.1133 5.50023 24.8485 5.5 34.3904L5.5 41.8455C5.5 43.3113 6.68849 44.4998 8.1543 44.4998L15 44.4998C20.2467 44.4998 24.5 40.2465 24.5 34.9998L24.5 18.8357C24.5 17.8845 23.7285 17.113 22.7773 17.113Z" fill="#8C8C8C" stroke="white"/>
<path d="M14.1758 14.8224H22.7773C23.7285 14.8224 24.5 14.0509 24.5 13.0997V11.882C24.5 8.35748 21.6426 5.50012 18.1182 5.50012H6.14648C5.78949 5.50037 5.50014 5.78958 5.5 6.14661C5.5 10.938 9.38442 14.8224 14.1758 14.8224Z" fill="#8C8C8C" stroke="white"/>
<path d="M15.6211 47.9297L15.5723 52.9785H14.918L14.8691 47.9297H15.6211ZM14.7227 54.5312C14.7227 54.2432 14.9619 54.0088 15.25 54.0039C15.5332 54.0088 15.7676 54.2432 15.7676 54.5312C15.7676 54.8145 15.5332 55.0537 15.25 55.0488C14.9619 55.0537 14.7227 54.8145 14.7227 54.5312ZM18.3398 55L16.4062 47.9297H17.1191L18.6914 53.9355H18.75L20.332 47.9297H21.123L22.7051 53.9355H22.7637L24.3359 47.9297H25.0488L23.1152 55H22.373L20.752 49.0918H20.7031L19.082 55H18.3398ZM25.3164 55H24.584L27.1523 47.9297H27.9043L30.4727 55H29.7402L28.998 52.9004H26.0586L25.3164 55ZM26.2783 52.2852H28.7783L27.5527 48.8281H27.5039L26.2783 52.2852ZM31.248 55V47.9297H33.5625C35.0859 47.9297 35.8623 48.8818 35.8574 50.127C35.8623 51.3672 35.0859 52.3242 33.5723 52.3242H31.9414V55H31.248ZM31.9414 51.6992H33.543C34.6465 51.7041 35.1738 51.0303 35.1738 50.127C35.1738 49.2139 34.6465 48.5498 33.5332 48.5547H31.9414V51.6992Z" fill="#8C8C8C"/>
<rect x="0.5" y="0.5" width="49" height="59" stroke="#8C8C8C" stroke-dasharray="4 4"/>
</svg>
