<svg width="126" height="23" viewBox="0 0 126 23" fill="none" xmlns="http://www.w3.org/2000/svg">
<path d="M6.33008 0.20996C10.0201 0.20996 12.4501 2.75996 12.4501 7.10996C12.4501 11.46 10.0801 14.19 5.49008 14.19H4.53008V19.83C4.53008 21.09 5.52008 21.66 6.66008 21.66V21.96H7.81491e-05V21.66C1.11008 21.66 2.13008 21.09 2.13008 19.83V2.33996C2.13008 1.07996 1.11008 0.50996 7.81491e-05 0.50996V0.20996H6.33008ZM4.53008 13.59H5.10008C8.55008 13.59 10.0501 10.56 10.0501 7.10996C10.0501 3.65996 8.79008 0.80996 5.94008 0.80996H4.53008V13.59ZM24.5066 -4.06504e-05C31.2566 -4.06504e-05 34.5566 4.94996 34.5566 11.07C34.5566 17.22 31.1966 22.17 24.5066 22.17C17.8166 22.17 14.4566 17.22 14.4566 11.07C14.4566 4.94996 17.7566 -4.06504e-05 24.5066 -4.06504e-05ZM24.5066 0.599961C19.3766 0.599961 16.8566 5.30996 16.8566 11.07C16.8566 16.86 19.4066 21.57 24.5066 21.57C29.6066 21.57 32.1566 16.86 32.1566 11.07C32.1566 5.30996 29.6666 0.599961 24.5066 0.599961ZM44.7146 21.24C46.0646 20.88 46.7846 19.14 46.7846 17.37C46.7846 12.33 36.7646 11.49 36.7646 5.15996C36.7646 1.85996 39.3446 -4.06504e-05 42.6446 -4.06504e-05C44.9846 -4.06504e-05 46.5446 1.16996 47.7146 2.45996V6.95996H47.4146C46.5446 4.37996 44.4146 0.77996 41.8346 0.77996C41.5346 0.77996 41.2046 0.80996 40.9046 0.92996C39.6446 1.34996 39.1646 2.90996 39.1646 4.49996C39.1646 9.92996 49.1846 10.98 49.1846 16.41C49.1846 19.14 47.1746 22.17 42.9446 22.17C40.6346 22.17 38.7146 21.24 37.0346 19.68V15.21H37.3346C38.6846 18.72 40.7846 21.42 43.5146 21.42C43.9046 21.42 44.2946 21.36 44.7146 21.24ZM49.9409 0.20996H62.6609L63.0809 4.16996H62.7809C62.3609 1.94996 61.0709 0.80996 59.2109 0.80996H57.5009V19.83C57.5009 21.09 58.5209 21.66 59.6309 21.66V21.96H52.9709V21.66C54.1109 21.66 55.1009 21.09 55.1009 19.83V0.80996H53.4209C51.5609 0.80996 50.2409 1.94996 49.8509 4.16996H49.5509L49.9409 0.20996ZM72.7609 22.17C66.0709 22.17 62.7109 17.22 62.7109 11.07C62.7109 4.94996 66.0109 -4.06504e-05 72.7609 -4.06504e-05C75.4909 -4.06504e-05 78.7009 1.04996 80.2309 2.45996V6.95996H79.9309C78.7309 3.17996 76.4509 0.62996 72.7609 0.599961C67.6309 0.599961 65.1109 5.30996 65.1109 11.07C65.1109 16.86 67.6609 21.57 72.7609 21.57C76.4509 21.54 78.7309 18.99 79.9309 15.21H80.2309V19.68C78.7009 21.12 75.4909 22.17 72.7609 22.17ZM84.7461 21.96H80.0661V21.66C81.1461 21.66 81.8661 21.12 82.1661 20.01L86.7861 0.20996H88.4061L93.0261 20.01C93.3261 21.12 94.0461 21.66 95.1261 21.66V21.96H88.5861V21.66C89.5761 21.66 90.5961 21.21 90.5961 20.22L90.5661 19.98L89.5161 15.6H83.7861L82.7961 19.83V19.86C82.7661 19.98 82.7661 20.1 82.7661 20.22C82.7661 21.21 83.7561 21.66 84.7461 21.66V21.96ZM86.6361 3.38996L83.9361 15H89.3961L86.6361 3.38996ZM103.043 0.20996C106.163 0.20996 107.363 2.12996 107.363 4.31996C107.363 6.20996 106.283 7.82996 103.493 8.27996V8.33996C105.593 8.69996 106.553 11.19 107.273 14.46C107.363 14.79 107.963 17.43 108.413 19.5L108.473 19.8C108.863 21.18 109.853 21.66 110.933 21.66V21.96H104.723V21.66C105.713 21.66 106.073 21.21 106.073 20.46C106.073 20.19 106.013 19.86 105.953 19.5C105.533 17.73 105.053 15.57 104.993 15.3C104.183 11.73 103.583 8.57996 101.753 8.57996H100.343V19.83C100.343 21.09 101.333 21.66 102.473 21.66V21.96H95.8126V21.66C96.9226 21.66 97.9426 21.09 97.9426 19.83V2.33996C97.9426 1.07996 96.9226 0.50996 95.8126 0.50996V0.20996H103.043ZM100.343 0.80996V7.97996H101.543C103.943 7.97996 104.963 5.99996 104.963 4.28996C104.963 2.57996 103.973 0.80996 101.813 0.80996H100.343ZM117.373 0.20996C122.533 0.20996 125.443 4.46996 125.443 10.77C125.443 17.04 122.443 21.96 117.733 21.96H111.733V21.66C112.843 21.66 113.863 21.09 113.863 19.83V2.33996C113.863 1.07996 112.843 0.50996 111.733 0.50996V0.20996H117.373ZM116.263 0.80996V21.36H117.373C120.913 21.36 123.043 16.32 123.043 10.77C123.043 5.21996 120.883 0.80996 117.103 0.80996H116.263Z" fill="black"/>
</svg>
