<svg width="33" height="32" viewBox="0 0 33 32" fill="none" xmlns="http://www.w3.org/2000/svg">
<path d="M6.4799 31.28C5.8399 31.7333 5.14657 31.8266 4.3999 31.56C4.0799 31.4266 3.77324 31.2666 3.4799 31.08C3.21324 30.92 2.97324 30.6533 2.7599 30.28C2.62657 29.9866 2.49324 29.7066 2.3599 29.44C2.25324 29.1466 2.18657 28.8266 2.1599 28.48C2.13324 27.6 2.22657 26.76 2.4399 25.96C2.6799 25.16 2.98657 24.3733 3.3599 23.6C3.57324 23.0666 3.77324 22.5333 3.9599 22C4.17324 21.4666 4.38657 20.9333 4.5999 20.4C5.18657 18.96 5.86657 17.6133 6.6399 16.36C6.85324 15.9866 7.02657 15.6133 7.1599 15.24C7.29324 14.8666 7.46657 14.5066 7.6799 14.16C8.21324 13.28 8.70657 12.3733 9.1599 11.44C9.61324 10.5066 10.0799 9.58665 10.5599 8.67998C10.7466 8.35998 10.9332 8.03998 11.1199 7.71998C11.3066 7.39998 11.5466 7.09331 11.8399 6.79998C12.0532 6.58665 12.2266 6.34665 12.3599 6.07998C12.4932 5.78665 12.5866 5.47998 12.6399 5.15998C12.0266 5.21331 11.4399 5.33331 10.8799 5.51998C10.3199 5.70665 9.73324 5.81331 9.1199 5.83998C8.74657 5.99998 8.3599 6.13331 7.9599 6.23998C7.5599 6.34665 7.1599 6.46665 6.7599 6.59998C6.3599 6.70665 5.9599 6.83998 5.5599 6.99998C5.18657 7.15998 4.8399 7.38665 4.5199 7.67998C4.38657 7.78665 4.2399 7.86665 4.0799 7.91998C3.9199 7.94665 3.77324 8.01331 3.6399 8.11998C3.26657 8.33331 2.9199 8.59998 2.5999 8.91998C2.30657 9.21331 2.0799 9.57331 1.9199 9.99998C1.89324 10.08 1.8399 10.1466 1.7599 10.2C1.70657 10.2533 1.65324 10.3066 1.5999 10.36C1.25324 10.0666 0.946569 9.75998 0.679902 9.43998C0.413236 9.09331 0.239902 8.69331 0.159902 8.23998C0.159902 8.21331 0.146569 8.19998 0.119902 8.19998C0.0932357 8.19998 0.0799024 8.18665 0.0799024 8.15998C0.0799024 7.97331 0.066569 7.78665 0.0399024 7.59998C0.0132357 7.41331 0.026569 7.25331 0.0799024 7.11998C0.159902 6.95998 0.213236 6.78665 0.239902 6.59998C0.266569 6.41331 0.293236 6.22665 0.319902 6.03998C0.373236 5.85331 0.439902 5.67998 0.519902 5.51998C0.599902 5.33331 0.733236 5.17331 0.919902 5.03998C1.1599 4.85331 1.38657 4.65331 1.5999 4.43998C1.81324 4.19998 2.02657 3.95998 2.2399 3.71998C2.58657 3.34665 2.97324 3.05331 3.3999 2.83998C3.85324 2.62665 4.30657 2.42665 4.7599 2.23998C5.2399 2.02665 5.73324 1.86665 6.2399 1.75998C6.74657 1.62665 7.22657 1.45331 7.6799 1.23998C7.8399 1.15998 7.98657 1.11998 8.1199 1.11998C8.2799 1.09331 8.42657 1.07998 8.5599 1.07998C8.7199 1.07998 8.86657 1.06665 8.9999 1.03998C9.1599 1.01331 9.30657 0.946647 9.4399 0.83998C9.57324 0.733313 9.73324 0.693312 9.9199 0.719979C10.1332 0.746645 10.3332 0.706645 10.5199 0.599978C10.6799 0.519979 10.8666 0.47998 11.0799 0.47998C11.2932 0.47998 11.4932 0.466646 11.6799 0.43998C11.8666 0.43998 12.0399 0.413313 12.1999 0.359979C12.3599 0.27998 12.5332 0.266647 12.7199 0.319979C12.9332 0.373312 13.1332 0.399978 13.3199 0.399978C13.5066 0.399978 13.7066 0.373312 13.9199 0.319979C14.6399 0.106645 15.3732 0.0266457 16.1199 0.0799799C16.8666 0.133313 17.6132 0.146646 18.3599 0.119979C18.6799 0.0933131 19.0132 0.0799799 19.3599 0.0799799C19.7066 0.0799799 20.0266 0.133313 20.3199 0.23998C20.6399 0.346646 20.9599 0.359979 21.2799 0.27998C21.6266 0.199979 21.9332 0.293312 22.1999 0.559978C22.3866 0.399979 22.5599 0.373313 22.7199 0.47998C22.8799 0.586646 23.0399 0.613313 23.1999 0.559978C23.4132 0.506646 23.5999 0.533313 23.7599 0.63998C23.9199 0.719979 24.0932 0.786645 24.2799 0.83998C24.9999 0.999979 25.6932 1.19998 26.3599 1.43998C27.0532 1.67998 27.6799 2.06665 28.2399 2.59998C28.3466 2.70665 28.4799 2.81331 28.6399 2.91998C28.7999 2.99998 28.9999 3.11998 29.2399 3.27998C28.7599 3.38665 28.3466 3.50665 27.9999 3.63998C27.6799 3.74665 27.3066 3.69331 26.8799 3.47998C26.6666 3.34665 26.4132 3.30665 26.1199 3.35998C25.8266 3.41331 25.5332 3.43998 25.2399 3.43998C25.1066 3.43998 24.9732 3.42665 24.8399 3.39998C24.7066 3.37331 24.5199 3.33331 24.2799 3.27998C24.2532 3.27998 24.1866 3.30665 24.0799 3.35998C23.9999 3.38665 23.8932 3.41331 23.7599 3.43998C23.6532 3.46665 23.5466 3.47998 23.4399 3.47998C23.3599 3.45331 23.2666 3.43998 23.1599 3.43998C22.4399 3.38665 21.7066 3.39998 20.9599 3.47998C20.2399 3.55998 19.4799 3.65331 18.6799 3.75998C18.5199 3.99998 18.3199 4.26665 18.0799 4.55998C17.8399 4.82665 17.6532 5.13331 17.5199 5.47998C17.3066 5.98665 17.0532 6.45331 16.7599 6.87998C16.4932 7.27998 16.2266 7.70665 15.9599 8.15998C15.7199 8.55998 15.4666 8.95998 15.1999 9.35998C14.9599 9.75998 14.7332 10.16 14.5199 10.56C14.0666 11.3866 13.6132 12.2 13.1599 13C12.7332 13.8 12.2932 14.6133 11.8399 15.44C11.6799 15.7333 11.5466 16.0533 11.4399 16.4C11.3599 16.7466 11.2132 17.0666 10.9999 17.36C10.7866 17.7066 10.5866 18.0533 10.3999 18.4C10.2132 18.7466 10.0266 19.1066 9.8399 19.48C9.38657 20.36 8.98657 21.2666 8.6399 22.2C8.29324 23.1066 7.89324 23.9866 7.4399 24.84C7.46657 25.2133 7.37324 25.5333 7.1599 25.8C6.97324 26.0666 6.8399 26.3733 6.7599 26.72C6.70657 27.04 6.62657 27.36 6.5199 27.68C6.4399 28 6.37324 28.32 6.3199 28.64C6.26657 28.9866 6.21324 29.3466 6.1599 29.72C6.13324 30.0933 6.2399 30.4533 6.4799 30.8C6.53324 30.8533 6.54657 30.92 6.5199 31C6.49324 31.1066 6.4799 31.2 6.4799 31.28ZM6.7199 19.44C6.77324 19.5466 6.7999 19.6133 6.7999 19.64C6.85324 19.6133 6.90657 19.5466 6.9599 19.44H7.1999C7.14657 19.7333 7.10657 20.0133 7.0799 20.28C7.05324 20.52 7.01324 20.7866 6.9599 21.08C7.09324 21.0266 7.1999 20.96 7.2799 20.88C7.38657 20.7733 7.4399 20.6933 7.4399 20.64C7.38657 20.3733 7.41324 20.1466 7.5199 19.96C7.62657 19.7466 7.69324 19.5333 7.7199 19.32C7.85324 19.1066 7.9599 18.8933 8.0399 18.68C8.14657 18.4666 8.26657 18.2533 8.3999 18.04H7.7199C7.7199 18.2533 7.7199 18.4533 7.7199 18.64C7.7199 18.8266 7.70657 19.0133 7.6799 19.2L7.1999 19.44L6.9599 19.2C6.98657 19.12 6.98657 19.0266 6.9599 18.92C6.93324 18.8133 7.02657 18.7466 7.2399 18.72C7.21324 18.72 7.1999 18.7333 7.1999 18.76C7.22657 18.8133 7.2799 18.88 7.3599 18.96C7.3599 18.96 7.38657 18.9333 7.4399 18.88C7.38657 18.8266 7.30657 18.7733 7.1999 18.72C7.25324 18.5866 7.30657 18.4133 7.3599 18.2C7.41324 18.0666 7.46657 17.92 7.5199 17.76C7.57324 17.6 7.62657 17.4533 7.6799 17.32C7.7599 17.2666 7.82657 17.2266 7.8799 17.2C7.9599 17.1733 8.05324 17.1333 8.1599 17.08C8.1599 17.2933 8.17324 17.4533 8.1999 17.56C8.17324 17.56 8.1599 17.56 8.1599 17.56C8.1599 17.5333 8.14657 17.52 8.1199 17.52L7.9599 17.68C7.9599 17.7066 7.9599 17.72 7.9599 17.72C7.98657 17.72 7.9999 17.7333 7.9999 17.76C8.0799 17.68 8.13324 17.6133 8.1599 17.56C8.37324 17.5066 8.45324 17.4133 8.3999 17.28C8.34657 17.12 8.34657 16.9733 8.3999 16.84C8.69324 16.7066 8.86657 16.5333 8.9199 16.32C8.9999 16.1066 9.06657 15.88 9.1199 15.64C9.30657 15.6133 9.38657 15.5466 9.3599 15.44C9.33324 15.3333 9.33324 15.24 9.3599 15.16C9.54657 15.1333 9.62657 15.0666 9.5999 14.96C9.57324 14.8533 9.57324 14.76 9.5999 14.68C9.78657 14.6533 9.86657 14.5866 9.8399 14.48C9.81324 14.3733 9.81324 14.28 9.8399 14.2C9.9199 14.1466 9.9999 14.0933 10.0799 14.04C10.1599 13.9866 10.2266 13.9333 10.2799 13.88C10.3332 13.8 10.3466 13.72 10.3199 13.64C10.2932 13.5333 10.2132 13.48 10.0799 13.48C10.1599 13.3733 10.2266 13.2666 10.2799 13.16C10.3599 13.0533 10.4399 12.9466 10.5199 12.84L10.3199 12.64C10.5332 12.48 10.6799 12.3466 10.7599 12.24C10.7599 12.2666 10.7599 12.28 10.7599 12.28C10.7866 12.28 10.7999 12.2933 10.7999 12.32L10.9999 12.12C10.9732 12.0933 10.9466 12.08 10.9199 12.08C10.8932 12.1066 10.8532 12.1733 10.7999 12.28C10.6132 12.2533 10.5332 12.2 10.5599 12.12C10.5866 12.0133 10.5732 11.9066 10.5199 11.8C10.5466 11.8 10.5599 11.8133 10.5599 11.84C10.6399 11.76 10.7066 11.7066 10.7599 11.68C10.7599 11.6266 10.7332 11.6 10.6799 11.6C10.6532 11.6266 10.6132 11.6933 10.5599 11.8C9.9999 12.52 9.5999 13.32 9.3599 14.2C9.17324 14.2 9.09324 14.2533 9.1199 14.36C9.14657 14.4666 9.14657 14.5733 9.1199 14.68C8.93324 14.68 8.85324 14.7333 8.8799 14.84C8.90657 14.9466 8.90657 15.0533 8.8799 15.16C8.58657 15.2666 8.3999 15.4266 8.3199 15.64C8.26657 15.8533 8.21324 16.0933 8.1599 16.36C7.8399 16.6 7.6799 16.92 7.6799 17.32C7.5999 17.4 7.5199 17.4933 7.4399 17.6C7.3599 17.68 7.2799 17.76 7.1999 17.84C7.14657 17.8933 7.10657 17.9333 7.0799 17.96C7.05324 17.96 7.01324 17.9866 6.9599 18.04C6.9599 18.0133 6.97324 18 6.9999 18C6.9199 17.92 6.86657 17.8533 6.8399 17.8C6.78657 17.8533 6.7599 17.88 6.7599 17.88C6.8399 17.96 6.90657 18 6.9599 18L6.7199 19.2C6.61324 19.2533 6.54657 19.28 6.5199 19.28C6.5999 19.36 6.66657 19.4133 6.7199 19.44ZM9.1599 18.4C8.97324 18.56 8.8799 18.64 8.8799 18.64C8.93324 18.8 8.97324 18.9066 8.9999 18.96C9.02657 18.9066 9.0399 18.8666 9.0399 18.84C9.0399 18.7866 8.9999 18.84 8.9199 19C8.89324 18.9733 8.86657 18.96 8.8399 18.96C8.81324 18.9866 8.78657 19.0133 8.7599 19.04C8.73324 19.04 8.70657 19.0666 8.6799 19.12C8.6799 19.1466 8.6799 19.16 8.6799 19.16C8.70657 19.16 8.7199 19.1733 8.7199 19.2C8.77324 19.1466 8.81324 19.0933 8.8399 19.04C8.89324 18.96 8.9999 18.7466 9.1599 18.4ZM11.3199 10.52C11.1332 10.68 11.0399 10.76 11.0399 10.76C11.0399 10.8133 11.0532 10.8666 11.0799 10.92C11.1066 10.9733 11.1332 11.0266 11.1599 11.08C11.1599 11 11.1599 10.9466 11.1599 10.92C11.1866 10.8933 11.1466 10.96 11.0399 11.12C11.0132 11.0933 10.9999 11.08 10.9999 11.08C10.9466 11.1066 10.8799 11.16 10.7999 11.24C10.7999 11.24 10.8266 11.2666 10.8799 11.32C10.9066 11.2666 10.9466 11.2 10.9999 11.12C11.0532 11.04 11.1599 10.84 11.3199 10.52ZM6.6799 23.28H6.4799C6.4799 23.3866 6.50657 23.5466 6.5599 23.76C6.58657 23.76 6.5999 23.76 6.5999 23.76C6.62657 23.7333 6.66657 23.72 6.7199 23.72C6.7199 23.56 6.6399 23.4133 6.4799 23.28V22.8C6.58657 22.6666 6.6799 22.5466 6.7599 22.44C6.8399 22.3333 6.9199 22.2266 6.9999 22.12C6.94657 22.0133 6.89324 21.92 6.8399 21.84C6.81324 21.7333 6.77324 21.6 6.7199 21.44V21.64L7.1999 21.52C7.1999 21.4666 7.18657 21.4133 7.1599 21.36C7.10657 21.3866 7.0399 21.4133 6.9599 21.44C6.8799 21.44 6.7999 21.4933 6.7199 21.6C6.66657 21.6533 6.61324 21.7066 6.5599 21.76C6.53324 21.7866 6.50657 21.8266 6.4799 21.88V22.8C6.37324 22.8266 6.22657 22.84 6.0399 22.84C6.09324 22.9466 6.1199 23.0533 6.1199 23.16C6.14657 23.2666 6.09324 23.5066 5.9599 23.88C6.14657 23.6933 6.2399 23.6 6.2399 23.6C6.2399 23.5466 6.22657 23.4933 6.1999 23.44C6.17324 23.3866 6.14657 23.3333 6.1199 23.28C6.09324 23.36 6.0799 23.4133 6.0799 23.44C6.0799 23.4666 6.13324 23.4133 6.2399 23.28H6.6799ZM6.2399 20.88C6.05324 20.9066 5.97324 20.9733 5.9999 21.08C6.02657 21.1866 6.0399 21.2933 6.0399 21.4C6.01324 21.3733 5.9999 21.36 5.9999 21.36C5.94657 21.3866 5.8799 21.44 5.7999 21.52L5.8799 21.6L5.9999 21.36C6.10657 21.36 6.26657 21.3333 6.4799 21.28C6.42657 21.1733 6.34657 21.04 6.2399 20.88L6.2799 20.92C6.30657 20.8666 6.37324 20.8133 6.4799 20.76L6.3999 20.68C6.34657 20.7066 6.29324 20.7733 6.2399 20.88ZM5.7599 24.72C5.8399 24.72 5.90657 24.72 5.9599 24.72C6.0399 24.6933 6.1199 24.68 6.1999 24.68C6.30657 24.3066 6.17324 24.1733 5.7999 24.28C5.7999 24.36 5.78657 24.44 5.7599 24.52C5.7599 24.5733 5.74657 24.6533 5.7199 24.76C5.61324 24.8933 5.5599 24.9866 5.5599 25.04C5.5599 25.0666 5.61324 25.1866 5.7199 25.4C5.7199 25.2666 5.7199 25.1466 5.7199 25.04C5.7199 24.9333 5.73324 24.8266 5.7599 24.72ZM4.5599 25.48C4.69324 25.1866 4.7999 24.96 4.8799 24.8C4.9599 24.64 5.0399 24.4533 5.1199 24.24C4.7999 24.3466 4.61324 24.52 4.5599 24.76C4.53324 24.9733 4.4399 25.3066 4.2799 25.76C4.46657 25.6 4.5599 25.52 4.5599 25.52C4.5599 25.4666 4.54657 25.4133 4.5199 25.36C4.49324 25.3066 4.4799 25.2533 4.4799 25.2C4.42657 25.3866 4.45324 25.48 4.5599 25.48ZM5.9599 22.12C5.90657 22.0666 5.85324 22.0266 5.7999 22C5.74657 21.9466 5.69324 21.8933 5.6399 21.84C5.50657 22.1866 5.3599 22.5333 5.1999 22.88C5.06657 23.2 4.93324 23.52 4.7999 23.84C4.93324 23.8933 5.0399 23.96 5.1199 24.04C5.22657 24.0933 5.34657 24.1466 5.4799 24.2C5.5599 23.8266 5.6399 23.4666 5.7199 23.12C5.7999 22.7733 5.89324 22.4133 5.9999 22.04C5.9999 22.0666 6.01324 22.0933 6.0399 22.12C6.06657 22.0666 6.09324 22.04 6.1199 22.04C6.14657 22.0133 6.18657 21.9733 6.2399 21.92C6.18657 21.8933 6.1599 21.88 6.1599 21.88C6.10657 21.9066 6.0399 21.9866 5.9599 22.12ZM7.2399 22.52H7.4399C7.4399 22.4133 7.41324 22.28 7.3599 22.12H7.2399V22.52ZM4.0399 24.76H3.8399C3.89324 24.9733 3.9199 25.1066 3.9199 25.16H4.0399V24.76ZM3.7999 25.48H3.5999C3.62657 25.5866 3.66657 25.72 3.7199 25.88C3.74657 25.88 3.77324 25.8666 3.7999 25.84V25.48ZM3.9199 26.64H4.0399V26.16H3.9199V26.64ZM5.3599 26.16H5.4399V25.92H5.3599V26.16ZM3.6399 26.96V27.04H3.8399V26.96H3.6399ZM8.3999 19.52V19.6H8.6399V19.52H8.3999ZM6.7199 20.08V20H6.4799V20.08H6.7199ZM9.5999 17.68V17.6H9.3599V17.68H9.5999ZM7.8399 21.12H7.7599V21.36H7.8399V21.12ZM8.7199 17.56H8.7999V17.32H8.7199V17.56ZM16.378 30.56C15.7114 30.6133 15.058 30.48 14.418 30.16C13.778 29.8666 13.1514 29.44 12.538 28.88C12.0314 28.4266 11.698 27.9866 11.538 27.56C11.3514 27.1333 11.2314 26.6133 11.178 26C11.1247 25.12 11.218 24.2666 11.458 23.44C11.6714 22.6133 11.938 21.7866 12.258 20.96C12.5247 20.2933 12.8447 19.6666 13.218 19.08C13.5914 18.4933 13.938 17.8933 14.258 17.28C14.7114 16.4266 15.218 15.64 15.778 14.92C16.338 14.1733 16.9514 13.48 17.618 12.84C17.938 12.52 18.2714 12.2133 18.618 11.92C18.9914 11.6 19.4447 11.4133 19.978 11.36C20.058 11.36 20.138 11.3466 20.218 11.32C20.3247 11.2666 20.418 11.2266 20.498 11.2C20.6047 11.1733 20.698 11.1733 20.778 11.2C20.8847 11.2 20.9914 11.2 21.098 11.2C21.3114 11.1466 21.5247 11.08 21.738 11C21.9514 10.8933 22.1647 10.9066 22.378 11.04C22.778 11.28 23.1914 11.4933 23.618 11.68C24.0447 11.84 24.4314 12.0933 24.778 12.44C25.2047 12.84 25.578 13.2666 25.898 13.72C26.218 14.1733 26.498 14.7066 26.738 15.32C26.7114 15.48 26.7247 15.6666 26.778 15.88C26.8314 16.0933 26.8847 16.32 26.938 16.56C27.0714 17.0933 27.058 17.6 26.898 18.08C26.7647 18.5333 26.618 18.9866 26.458 19.44C26.1914 20.1333 25.8847 20.8133 25.538 21.48C25.1914 22.12 24.8314 22.76 24.458 23.4C23.9514 24.3066 23.3647 25.1333 22.698 25.88C22.0314 26.6 21.3114 27.2933 20.538 27.96C19.978 28.4666 19.378 28.96 18.738 29.44C18.1247 29.8933 17.338 30.2666 16.378 30.56ZM21.698 25.04C21.8847 25.04 21.9647 24.9866 21.938 24.88C21.9114 24.7733 21.9114 24.6666 21.938 24.56C22.1247 24.56 22.2047 24.5066 22.178 24.4C22.1514 24.2933 22.1514 24.1866 22.178 24.08C22.5514 24 22.7114 23.76 22.658 23.36C22.658 23.3866 22.6714 23.4 22.698 23.4C22.7514 23.3733 22.778 23.3466 22.778 23.32C22.8047 23.2933 22.8447 23.2666 22.898 23.24L22.818 23.16C22.738 23.24 22.6847 23.3066 22.658 23.36C22.2847 23.4933 22.1247 23.7333 22.178 24.08C21.9914 24.1066 21.9114 24.1733 21.938 24.28C21.9647 24.3866 21.9647 24.48 21.938 24.56C21.7514 24.5866 21.6714 24.6533 21.698 24.76C21.7247 24.8666 21.738 24.9733 21.738 25.08C21.7114 25.0533 21.698 25.04 21.698 25.04C21.6447 25.0666 21.578 25.12 21.498 25.2C21.498 25.2 21.5247 25.2266 21.578 25.28L21.698 25.04ZM12.898 23.52C12.738 23.68 12.658 23.76 12.658 23.76C12.658 23.8666 12.6847 23.9733 12.738 24.08C12.7647 24.0266 12.778 23.9866 12.778 23.96C12.778 23.9066 12.738 23.96 12.658 24.12L12.618 24.08C12.5647 24.1066 12.5247 24.1333 12.498 24.16C12.498 24.1866 12.4714 24.2133 12.418 24.24C12.418 24.24 12.4447 24.2666 12.498 24.32C12.5247 24.2666 12.5514 24.2133 12.578 24.16C12.6314 24.08 12.738 23.8666 12.898 23.52ZM14.298 22.88C14.4847 22.88 14.5647 22.8266 14.538 22.72C14.5114 22.6133 14.5114 22.5066 14.538 22.4C14.7514 22.1866 14.9247 21.9466 15.058 21.68C15.218 21.4133 15.2714 21.0933 15.218 20.72C15.2447 20.7466 15.2714 20.76 15.298 20.76C15.3247 20.7333 15.3514 20.72 15.378 20.72C15.4047 20.6933 15.4314 20.6533 15.458 20.6L15.378 20.52L15.258 20.76C15.0447 21 14.858 21.2533 14.698 21.52C14.5647 21.7866 14.5114 22.08 14.538 22.4C14.3514 22.4266 14.258 22.52 14.258 22.68C14.258 22.84 14.178 23.1066 14.018 23.48C14.2047 23.32 14.298 23.24 14.298 23.24C14.298 23.1866 14.2847 23.1333 14.258 23.08C14.2314 23 14.2047 22.9333 14.178 22.88C14.1514 22.96 14.138 23.0266 14.138 23.08C14.138 23.1066 14.1914 23.04 14.298 22.88ZM23.138 22.64C23.3247 22.64 23.4047 22.5866 23.378 22.48C23.3514 22.3733 23.3514 22.2666 23.378 22.16C23.5647 22.16 23.658 22.08 23.658 21.92C23.658 21.76 23.738 21.4933 23.898 21.12C23.7114 21.28 23.618 21.36 23.618 21.36L23.738 21.72C23.7647 21.64 23.778 21.5866 23.778 21.56C23.778 21.5066 23.7247 21.56 23.618 21.72C23.4314 21.72 23.3514 21.7733 23.378 21.88C23.4047 21.9866 23.4047 22.08 23.378 22.16C23.1914 22.1866 23.1114 22.2533 23.138 22.36C23.1647 22.4666 23.178 22.5733 23.178 22.68C23.1514 22.6533 23.138 22.64 23.138 22.64C23.0847 22.6666 23.018 22.72 22.938 22.8C22.938 22.8 22.9647 22.8266 23.018 22.88C23.0447 22.8266 23.058 22.7866 23.058 22.76C23.0847 22.7333 23.1114 22.6933 23.138 22.64ZM23.658 19.44C23.6047 19.4933 23.5647 19.5333 23.538 19.56C23.5114 19.5866 23.4847 19.6133 23.458 19.64C23.4314 19.6666 23.4047 19.68 23.378 19.68L23.498 20.04C23.5247 19.96 23.5247 19.9333 23.498 19.96C23.4714 19.96 23.338 20.1866 23.098 20.64C23.2847 20.4533 23.378 20.36 23.378 20.36C23.378 20.3066 23.3647 20.2533 23.338 20.2C23.3114 20.1466 23.2847 20.0933 23.258 20.04C23.2314 20.0933 23.2314 20.12 23.258 20.12C23.2847 20.12 23.418 19.8933 23.658 19.44ZM13.818 20.04C14.0047 20.0133 14.0847 19.9466 14.058 19.84C14.0314 19.7333 14.0314 19.6266 14.058 19.52C14.058 19.5466 14.0714 19.5733 14.098 19.6C14.1247 19.5466 14.1514 19.52 14.178 19.52C14.2047 19.4933 14.2447 19.4533 14.298 19.4C14.2447 19.4 14.218 19.3733 14.218 19.32C14.1647 19.3733 14.1114 19.4533 14.058 19.56C13.8714 19.56 13.7914 19.6133 13.818 19.72C13.8447 19.8266 13.858 19.9333 13.858 20.04C13.8314 20.04 13.818 20.0266 13.818 20C13.7647 20.0533 13.7247 20.0933 13.698 20.12C13.6714 20.12 13.6447 20.1333 13.618 20.16C13.618 20.2133 13.6447 20.24 13.698 20.24C13.7247 20.2133 13.7647 20.1466 13.818 20.04ZM14.538 19.8C14.7247 19.7733 14.8047 19.7066 14.778 19.6C14.7514 19.4933 14.7514 19.4 14.778 19.32C14.9647 19.2933 15.0447 19.2266 15.018 19.12C14.9914 19.0133 14.9914 18.92 15.018 18.84L15.498 18.6C15.5247 18.6533 15.538 18.6933 15.538 18.72C15.538 18.72 15.5514 18.7466 15.578 18.8C15.6047 18.7466 15.6314 18.72 15.658 18.72C15.6847 18.6933 15.7114 18.6533 15.738 18.6C16.1114 18.52 16.258 18.2666 16.178 17.84C16.2047 17.8666 16.218 17.8933 16.218 17.92C16.2714 17.8666 16.3114 17.84 16.338 17.84C16.3647 17.8133 16.3914 17.7866 16.418 17.76C16.418 17.7066 16.3914 17.68 16.338 17.68C16.3114 17.7066 16.2714 17.7733 16.218 17.88L15.738 18.12C15.738 17.9066 15.7247 17.7333 15.698 17.6L15.778 17.68C15.8047 17.6266 15.8314 17.6 15.858 17.6C15.8847 17.5733 15.9114 17.5466 15.938 17.52C15.938 17.4666 15.9114 17.44 15.858 17.44C15.8314 17.4666 15.7914 17.5333 15.738 17.64C15.5514 17.6666 15.4714 17.7333 15.498 17.84C15.5247 17.92 15.5247 18.0133 15.498 18.12C15.1247 18.2 14.9647 18.44 15.018 18.84C14.8314 18.84 14.7514 18.8933 14.778 19C14.8047 19.1066 14.8047 19.2133 14.778 19.32C14.5914 19.32 14.5114 19.3733 14.538 19.48C14.5647 19.5866 14.578 19.6933 14.578 19.8C14.5514 19.8 14.538 19.7866 14.538 19.76C14.4847 19.8133 14.4447 19.8533 14.418 19.88C14.3914 19.88 14.3647 19.8933 14.338 19.92C14.338 19.9733 14.3647 20 14.418 20C14.4447 19.9733 14.4847 19.9066 14.538 19.8ZM13.818 24.08C13.6047 24.1333 13.5247 24.24 13.578 24.4C13.6314 24.56 13.6314 24.7066 13.578 24.84C13.418 25.08 13.338 25.32 13.338 25.56C13.338 25.8 13.418 26.1066 13.578 26.48V24.8C13.818 24.7466 13.9114 24.6266 13.858 24.44C13.8314 24.2266 13.9114 23.92 14.098 23.52C13.9114 23.68 13.818 23.76 13.818 23.76C13.8714 23.92 13.9114 24.0266 13.938 24.08C13.9647 24.0266 13.978 23.9866 13.978 23.96C13.978 23.9066 13.9247 23.9466 13.818 24.08ZM14.258 24.36C14.1247 24.6 14.058 24.7733 14.058 24.88C14.058 24.96 14.1247 25.1733 14.258 25.52C14.258 25.3066 14.2714 25.08 14.298 24.84C14.3247 24.6 14.418 24.24 14.578 23.76C14.3914 23.92 14.298 24 14.298 24C14.3514 24.16 14.3914 24.2666 14.418 24.32C14.4447 24.2666 14.458 24.2266 14.458 24.2C14.458 24.1466 14.3914 24.2 14.258 24.36ZM22.818 14.04C22.738 14.1466 22.6714 14.24 22.618 14.32C22.5647 14.4 22.5114 14.4666 22.458 14.52C22.2714 14.6533 22.0847 14.76 21.898 14.84C21.7114 14.8933 21.5514 15 21.418 15.16C20.8847 15.7466 20.3647 16.32 19.858 16.88C19.3514 17.44 18.8314 18 18.298 18.56C18.218 18.64 18.1514 18.7333 18.098 18.84C18.0447 18.92 17.9914 19.0133 17.938 19.12C17.5114 20.0533 17.0714 20.9733 16.618 21.88C16.1647 22.76 15.7514 23.6666 15.378 24.6C15.1914 25.0533 15.0314 25.4933 14.898 25.92C14.7647 26.3466 14.7247 26.7733 14.778 27.2C14.9114 27.44 15.018 27.6533 15.098 27.84C15.2047 28.0266 15.298 28.2133 15.378 28.4C16.1247 28.1866 16.7914 27.76 17.378 27.12C17.9914 26.48 18.6047 25.84 19.218 25.2C19.8314 24.5333 20.4047 23.84 20.938 23.12C21.3914 22.5066 21.8047 21.88 22.178 21.24C22.5514 20.6 22.9247 19.9466 23.298 19.28C23.378 19.12 23.4314 18.9466 23.458 18.76C23.4847 18.5733 23.538 18.4 23.618 18.24C24.418 16.9333 24.7247 15.5733 24.538 14.16C24.378 13.9466 24.218 13.84 24.058 13.84C23.9247 13.8133 23.778 13.84 23.618 13.92C23.4847 13.9733 23.3514 14.0266 23.218 14.08C23.0847 14.1333 22.9514 14.12 22.818 14.04ZM12.418 25.48H12.658C12.6314 25.3466 12.6047 25.2 12.578 25.04C12.578 24.88 12.578 24.7333 12.578 24.6H12.418V25.48ZM11.498 26.44H11.698C11.6714 26.3066 11.658 26.2 11.658 26.12C11.6314 26.0133 11.618 25.9066 11.618 25.8H11.498V26.44ZM23.818 18.88C23.738 18.88 23.6714 18.8933 23.618 18.92C23.6714 19.08 23.698 19.2 23.698 19.28H23.818V18.88ZM22.978 21.24H23.098V20.76H22.978V21.24ZM12.898 21.92C12.9514 21.8933 13.018 21.88 13.098 21.88C13.098 21.8266 13.0714 21.6933 13.018 21.48C12.9647 21.48 12.9247 21.4933 12.898 21.52V21.92ZM14.858 20.28H14.938V20.04H14.858V20.28ZM14.138 20.52H14.218V20.28H14.138V20.52ZM22.738 21.72H22.818V21.48H22.738V21.72ZM22.498 22.16H22.578V21.96H22.498V22.16ZM14.778 23.52V23.44H14.538V23.52H14.778ZM11.498 24.8H11.578V24.56H11.498V24.8ZM11.898 27.36V27.28H11.658V27.36H11.898ZM29.7965 25.32C30.3298 25.2933 30.7965 25.3866 31.1965 25.6C31.6231 25.8133 32.0631 26.04 32.5165 26.28C32.6765 26.9466 32.4898 27.4933 31.9565 27.92C31.5831 28.24 31.1831 28.5333 30.7565 28.8C30.3565 29.0666 29.9698 29.3466 29.5965 29.64C29.3031 29.8533 29.0631 29.9066 28.8765 29.8C28.6898 29.6933 28.4765 29.5866 28.2365 29.48C28.4231 28.7866 28.6365 28.0933 28.8765 27.4C29.1165 26.7066 29.4231 26.0133 29.7965 25.32Z" fill="white"/>
</svg>
