<svg width="32" height="32" viewBox="0 0 32 32" fill="none" xmlns="http://www.w3.org/2000/svg">
<path d="M4 8.00033H6.66667M6.66667 8.00033H28M6.66667 8.00033V26.667C6.66667 27.3742 6.94762 28.0525 7.44772 28.5526C7.94781 29.0527 8.62609 29.3337 9.33333 29.3337H22.6667C23.3739 29.3337 24.0522 29.0527 24.5523 28.5526C25.0524 28.0525 25.3333 27.3742 25.3333 26.667V8.00033M10.6667 8.00033V5.33366C10.6667 4.62641 10.9476 3.94814 11.4477 3.44804C11.9478 2.94794 12.6261 2.66699 13.3333 2.66699H18.6667C19.3739 2.66699 20.0522 2.94794 20.5523 3.44804C21.0524 3.94814 21.3333 4.62641 21.3333 5.33366V8.00033M13.3333 14.667V22.667M18.6667 14.667V22.667" stroke="white" stroke-width="2" stroke-linecap="round" stroke-linejoin="round"/>
</svg>
