<svg width="148" height="45" viewBox="0 0 148 45" fill="none" xmlns="http://www.w3.org/2000/svg">
<rect width="148" height="45" rx="22.5" fill="white" fill-opacity="0.15"/>
<path d="M49.6406 14.0312L49.4297 26.1016H47.1094L46.8984 14.0312H49.6406ZM46.6172 29.5C46.6055 28.5859 47.3672 27.8359 48.2812 27.8359C49.1836 27.8359 49.9336 28.5859 49.9453 29.5C49.9336 30.4141 49.1836 31.1523 48.2812 31.1641C47.3672 31.1523 46.6055 30.4141 46.6172 29.5ZM56.0484 31L51.3375 14.0312H54.0563L57.3609 27.1562H57.5016L60.9469 14.0312H63.6188L67.0641 27.1562H67.2047L70.5094 14.0312H73.2281L68.5172 31H65.9156L62.3531 18.3203H62.2125L58.65 31H56.0484ZM74.7141 31H71.9719L78.0656 14.0312H81.0422L87.1594 31H84.4172L82.8703 26.5234H76.2609L74.7141 31ZM76.9992 24.3672H82.1203L79.6125 17.125H79.4953L76.9992 24.3672ZM88.7156 31V14.0312H94.7625C98.7117 14.0312 100.645 16.3984 100.645 19.5391C100.645 22.668 98.7 25.0469 94.7625 25.0469H91.2938V31H88.7156ZM91.2938 22.8438H94.5047C97.0008 22.8555 98.0438 21.4492 98.0438 19.5391C98.0438 17.6172 97.0008 16.2461 94.5047 16.2344H91.2938V22.8438Z" fill="white"/>
</svg>
